<svg viewBox="0 0 359.78 288.55" xmlns="http://www.w3.org/2000/svg"><path d="m341.2 260.87a26.92 26.92 0 0 0 -4.33-9s5.19 1 8.33.21a20.13 20.13 0 0 0 8.05-4.77c1.51-1.51 7.63-8 5.74-16.46-1.46-6.53-5.09-11.76-11-17.58l11.8-13.62-8.4-7.28-11.66 13.46-6.4-5.54 11.67-13.5-8.4-7.28-11.68 13.49-16.52-14.31-7.56 8.72 4.86 4.21c1.32 1.15 3.55 3.33 3.58 5.32s-.3 2.73-2.19 4.9l-30.09 34.74a4.5 4.5 0 0 1 -3 1.76c-1.28.06-2.13-.4-3.81-1.86l-5-4.35-10.47 8.59 16.44 14.28-11.63 13.42 8.4 7.28 11.63-13.42 6.4 5.54-11.63 13.42 8.4 7.28 11.82-13.65c2.28 1.75 4.45 3.34 5.76 4.21 2.67 1.76 8.63 5.82 16.75 6.68s14.05-3.7 19-9.17 6.13-11.08 5.14-15.72zm-16.11-51.12s2.87 2.08 5.47 4.39a35.36 35.36 0 0 1 7.38 8.45c2.54 4.05 2.33 8.41-.24 11.54a8.7 8.7 0 0 1 -9.15 3.27 27.07 27.07 0 0 1 -10.55-5.4c-3.16-2.53-7-6.05-7-6.05zm-16 56.44c-2.84-.61-7.5-3-11.47-6s-9.44-7.9-9.44-7.9l15.61-18s5.58 4.35 9.5 8.23a35.58 35.58 0 0 1 7.39 10.11 9.34 9.34 0 0 1 -1.42 10.37c-3.57 4.15-7.31 3.79-10.15 3.19z" fill="#385868"/><path d="m88.8 77.21a26.92 26.92 0 0 0 -6.58-7.57s5.27-.42 8.09-2a20.13 20.13 0 0 0 6.49-6.74c1.07-1.9 5.2-9.77 1.2-17.4-3.15-5.91-8-10-15.29-14l7.76-16.27-10-4.78-7.73 16.05-7.64-3.64 7.67-16.08-10.03-4.78-7.67 16.08-19.73-9.41-5 10.42 5.8 2.77c1.58.75 4.31 2.27 4.87 4.18s.43 2.71-.81 5.31l-19.76 41.49a4.5 4.5 0 0 1 -2.44 2.51c-1.22.4-2.16.18-4.17-.78l-6-2.86-7.83 11.06 19.73 9.41-7.64 16 10 4.78 7.64-16 7.64 3.64-7.64 16 10 4.78 7.77-16.3c2.67 1.09 5.18 2 6.67 2.53 3 1 9.86 3.32 17.92 2s12.64-7.26 15.91-13.85 3-12.34.8-16.55zm-29.11-45s3.31 1.23 6.44 2.79a35.36 35.36 0 0 1 9.36 6.19c3.51 3.22 4.51 7.47 2.84 11.18a8.7 8.7 0 0 1 -8 5.58 27.07 27.07 0 0 1 -11.56-2.41c-3.72-1.6-8.34-4-8.34-4zm-.41 58.66c-2.9.17-8-.9-12.64-2.69s-11.2-5.11-11.2-5.11l10.26-21.53s6.53 2.72 11.3 5.46a35.58 35.58 0 0 1 9.81 7.79 9.34 9.34 0 0 1 1.38 10.38c-2.31 4.83-6.01 5.52-8.91 5.69z" fill="#385868"/><path d="m320.24 137.49a123.08 123.08 0 0 1 -123.1 123.1h-.29a123.1 123.1 0 0 1 0-246.2h.29a123.08 123.08 0 0 1 123.1 123.1z" fill="#fff"/><path d="m299.76 197.63a123 123 0 0 1 -107.44 63h-.32a123.12 123.12 0 0 1 -59.82-230.58 123.14 123.14 0 0 0 107.16 183.24h.29a122.52 122.52 0 0 0 60.13-15.66z" fill="#e1d2d5" opacity=".5"/><path d="m197.14 3.77h-.32a133.72 133.72 0 0 0 0 267.44h.32a133.72 133.72 0 0 0 0-267.44zm5.34 80a198.24 198.24 0 0 0 41.27-5.46 239.94 239.94 0 0 1 6.88 53.87h-48.15v-48.37zm0-10.74v-57.69c14.4 4 29.06 23.21 38.32 52.72a187.73 187.73 0 0 1 -38.32 5.02zm-10.67-57.81v57.92a185.9 185.9 0 0 1 -38.64-5.14c9.39-29.7 24.11-49.06 38.64-52.78zm0 68.6v48.35h-48.48a239.94 239.94 0 0 1 6.88-53.87 201.34 201.34 0 0 0 41.6 5.51zm-59.27 48.35h-58.25a122.23 122.23 0 0 1 27.84-72.65 194.4 194.4 0 0 0 37.8 15.94 252.22 252.22 0 0 0 -7.4 56.7zm0 10.67a249.18 249.18 0 0 0 7.33 56.7 200.2 200.2 0 0 0 -37.8 15.94 122.64 122.64 0 0 1 -27.84-72.65zm10.8 0h48.47v48.28a197.1 197.1 0 0 0 -41.6 5.59 239.94 239.94 0 0 1 -6.88-53.88zm48.47 59v58c-14.53-3.79-29.25-23.08-38.64-52.78a181.71 181.71 0 0 1 38.64-5.21zm10.67 57.8v-57.86a189 189 0 0 1 38.38 5.08c-9.32 29.58-23.92 48.8-38.38 52.78zm0-68.53v-48.28h48.15a239.84 239.84 0 0 1 -6.88 53.81 198.27 198.27 0 0 0 -41.27-5.53zm58.89-48.28h58.63a122.39 122.39 0 0 1 -27.84 72.65 197.69 197.69 0 0 0 -38.16-16.08 248 248 0 0 0 7.37-56.57zm0-10.67a252.35 252.35 0 0 0 -7.26-56.64 199.25 199.25 0 0 0 38.06-16 122.26 122.26 0 0 1 27.83 72.7h-58.63zm23.47-80.88a185.94 185.94 0 0 1 -33.62 13.89c-6.22-20.17-15.05-36.52-25.4-47.32a123.65 123.65 0 0 1 59.01 33.43zm-116.76-33.28c-10.35 10.72-19.08 27.11-25.26 47.1a182.64 182.64 0 0 1 -33.3-13.82 122.24 122.24 0 0 1 58.56-33.28zm-58.63 205.64a184.55 184.55 0 0 1 33.3-13.82c6.24 20.06 15 36.39 25.33 47.19a122.33 122.33 0 0 1 -58.63-33.37zm116.36 33.49c10.41-10.8 19.16-27.19 25.46-47.38a185.94 185.94 0 0 1 33.62 13.89 123.43 123.43 0 0 1 -59.07 33.5z" fill="#385868"/></svg>