<svg viewBox="0 0 337 337" xmlns="http://www.w3.org/2000/svg"><circle cx="172.5" cy="168.5" fill="#f5e48f" r="162.5"/><path d="m330.92 168.47a162.53 162.53 0 0 1 -312.68 62.17 85.92 85.92 0 0 1 71-6c17.18 6.27 32 18 49.29 23.94 37.44 12.9 82.51-6.23 101-41.23s10-81.6-18.34-109.29c-14.47-14.15-33-23.47-51.94-30.56a289.05 289.05 0 0 0 -111.66-17.88 162.51 162.51 0 0 1 273.33 118.85z" fill="#dec378" opacity=".6"/><path d="m168.5 23a162.5 162.5 0 0 1 162.25 153.5c.16-3 .25-6 .25-9a162.5 162.5 0 0 0 -325 0c0 3 .09 6 .25 9a162.5 162.5 0 0 1 162.25-153.5z" fill="#dec378"/><path d="m168.5 308.5a162.5 162.5 0 0 1 -162.25-153.5c-.16 3-.25 6-.25 9a162.5 162.5 0 0 0 325 0c0-3-.09-6-.25-9a162.5 162.5 0 0 1 -162.25 153.5z" fill="#fff" opacity=".3"/><g fill="#893c21"><path d="m168.5 337c-92.91 0-168.5-75.59-168.5-168.5s75.59-168.5 168.5-168.5 168.5 75.59 168.5 168.5-75.59 168.5-168.5 168.5zm0-325c-86.29 0-156.5 70.21-156.5 156.5s70.21 156.5 156.5 156.5 156.5-70.21 156.5-156.5-70.21-156.5-156.5-156.5z"/><path d="m57.77 190.89h-46.52v-12h34.52v-26.53h12z"/><path d="m51.47 159.58a18.46 18.46 0 1 1 18.46-18.46 18.48 18.48 0 0 1 -18.46 18.46zm0-24.92a6.46 6.46 0 1 0 6.46 6.46 6.47 6.47 0 0 0 -6.46-6.46z"/><path d="m195.65 57.88h-43.72v-52.98h12v40.98h31.72z"/><path d="m208.69 72a20.44 20.44 0 1 1 20.44-20.44 20.47 20.47 0 0 1 -20.44 20.44zm0-28.89a8.44 8.44 0 1 0 8.44 8.44 8.45 8.45 0 0 0 -8.44-8.47z"/><path d="m290.57 209.78h-12v-39.2h47.35v12h-35.35z"/><path d="m284.88 240a18.72 18.72 0 1 1 18.72-18.71 18.74 18.74 0 0 1 -18.72 18.71zm0-25.43a6.72 6.72 0 1 0 6.72 6.72 6.72 6.72 0 0 0 -6.72-6.75z"/><path d="m180.75 331.07h-12v-34.08h-26.18v-12h38.18z"/><path d="m131.45 309.62a18.32 18.32 0 1 1 18.32-18.32 18.34 18.34 0 0 1 -18.32 18.32zm0-24.65a6.32 6.32 0 1 0 6.32 6.32 6.33 6.33 0 0 0 -6.32-6.29z"/><path d="m222.06 167.48c-5.42-4.08-13.13-5.71-13.13-5.71s6.53-3.79 9.2-7.57 4-9.65 4.23-12.69.74-15.8-9.2-23.15c-7.69-5.68-16.5-7.94-28.34-8.67v-25.75h-15.88v25.45h-12.1v-25.45h-15.84v25.45h-31.27v16.49h9.18c2.5 0 7 .28 8.85 2.4s2.23 3.23 2.23 7.34 0 64.14 0 65.7a6.43 6.43 0 0 1 -1.63 4.75c-1.33 1.26-2.67 1.56-5.86 1.56h-9.5l-3.26 19.07h31.26v25.38h15.88v-25.39h12.09v25.38h15.88v-25.8c4.1-.24 7.93-.55 10.16-.84 4.53-.59 14.76-1.78 24.34-8.46s11.72-17.14 11.94-27.67-3.82-17.74-9.23-21.82zm-65.22-40.14s5-.44 10-.37a50.52 50.52 0 0 1 15.88 2.23c6.53 2 10.38 6.9 10.53 12.69s-2.38 9.64-6.83 12.09-10.61 3.78-16.4 4-13.21 0-13.21 0zm35.54 75.9c-3.64 2-10.91 3.78-18 4.3s-17.58.3-17.58.3v-34.06s10.09-.52 18 0 14.47 2.52 17.43 4 8.16 4.75 8.16 12.54-4.39 10.92-8.01 12.92z"/></g><path d="m277.58 80.61c13.74 17.68 23.42 38.08 27.42 60.16.69 3.79 6.48 2.19 5.79-1.6-4.24-23.16-14.61-44.29-29-62.81-2.37-3-6.58 1.23-4.24 4.24z" fill="#fff"/><path d="m250 53.12c6.83 4.81 12.66 10.89 18.37 16.95 2.65 2.82 6.89-1.43 4.24-4.24-6.11-6.45-12.36-12.78-19.61-17.9-3.16-2.23-6.16 3-3 5.18z" fill="#fff"/></svg>