<svg viewBox="0 0 391.88 391.88" xmlns="http://www.w3.org/2000/svg"><path d="m196.94 13c-101.43 0-183.94 82.52-183.94 183.94s82.51 183.94 183.94 183.94 183.94-82.51 183.94-183.94-82.52-183.94-183.94-183.94zm0 282.28a98.34 98.34 0 1 1 98.34-98.34 98.44 98.44 0 0 1 -98.34 98.34z" fill="#fff"/><path d="m113.59 237.76-90 38.07a190.72 190.72 0 0 1 -11.45-127.94l95.34 21.52a92.56 92.56 0 0 0 6.11 68.35z" fill="#f3aa9f"/><path d="m157.79 114.87-38.07-90a190.72 190.72 0 0 1 127.95-11.45l-21.52 95.34a92.56 92.56 0 0 0 -68.35 6.11z" fill="#f3aa9f"/><path d="m279.43 161.6 91.49-34.4a190.72 190.72 0 0 1 6.25 128.3l-94.4-25.35a92.56 92.56 0 0 0 -3.35-68.55z" fill="#f3aa9f"/><path d="m228.81 281.27 29 93.34a190.72 190.72 0 0 1 -128.45-1.25l30.82-92.75a92.56 92.56 0 0 0 68.62.66z" fill="#f3aa9f"/><path d="m198.28 6a191.79 191.79 0 0 0 -23.38 1.43c93.87 11.57 166.56 91.57 166.56 188.51a191.74 191.74 0 0 1 -1.57 24.49 189.06 189.06 0 0 1 -7.13 35.07l-.77-.21a190.13 190.13 0 0 1 -156.99 129.15 189.91 189.91 0 0 0 203.74-129.15l.77.21a189.06 189.06 0 0 0 7.13-35.07 191.74 191.74 0 0 0 1.57-24.49c.01-104.94-85.03-189.94-189.93-189.94z" fill="#e1d2d5"/><path d="m256.64 374.61a189.21 189.21 0 0 1 -81.17 9.62 188.66 188.66 0 0 0 75.67-27.28z" fill="#e1978f"/><path d="m251.17 15.76-3.73 16.54a189 189 0 0 0 -63.33-21.74c6.25-.62 12.6-.94 19-.94a189.77 189.77 0 0 1 48.06 6.14z" fill="#e1978f"/><path d="m384.08 207.73c-.16 4.1-.46 8.18-.88 12.21a1.17 1.17 0 0 1 0 .19 188.16 188.16 0 0 1 -7.89 35l-40.68-10.79a192.22 192.22 0 0 0 4.11-23.95 192.35 192.35 0 0 0 1.57-24.49 190.06 190.06 0 0 0 -8-54.66l37.45-14.08a189.08 189.08 0 0 1 14.32 80.57z" fill="#e1978f"/><path d="m277.44 137.67h97.67v12h-97.67z" fill="#385868" transform="matrix(.92507721 -.3797791 .3797791 .92507721 -30.12 134.69)"/><path d="m326.07 194.53h12v97.72h-12z" fill="#385868" transform="matrix(.25628937 -.9666001 .9666001 .25628937 11.69 501.97)"/><path d="m195.94 391.88c-108.04 0-195.94-87.88-195.94-195.94s87.9-195.94 195.94-195.94 195.94 87.9 195.94 195.94-87.88 195.94-195.94 195.94zm0-379.88c-101.43 0-183.94 82.51-183.94 183.94s82.51 183.94 183.94 183.94 183.94-82.51 183.94-183.94-82.52-183.94-183.94-183.94z" fill="#385868"/><path d="m181.33 286.63a92.34 92.34 0 1 1 0-182.55 92.35 92.35 0 0 0 0 182.55z" fill="#e1d2d5"/><path d="m132.42 18.2h12v97.67h-12z" fill="#385868" transform="matrix(.92507721 -.3797791 .3797791 .92507721 -15.09 57.59)"/><path d="m189.27 55.24h97.72v12h-97.72z" fill="#385868" transform="matrix(.25628937 -.9666001 .9666001 .25628937 117.89 275.72)"/><path d="m113.36 237.87-22.36 9.46-.58-.89a92.53 92.53 0 0 1 -9.72-83.09l26.11 5.89a92.6 92.6 0 0 0 6.59 68.62z" fill="#e1978f"/><g fill="#385868"><path d="m236.74 279.71h12v97.67h-12z" transform="matrix(.93813091 -.3462808 .3462808 .93813091 -98.75 104.38)"/><path d="m94.02 324.75h97.72v12h-97.72z" transform="matrix(.29086918 -.95676283 .95676283 .29086918 -215.13 371.22)"/><path d="m18.17 251.06h97.67v12h-97.67z" transform="matrix(.91046724 -.41358121 .41358121 .91046724 -100.3 50.71)"/><path d="m51.55 108.77h12v97.72h-12z" transform="matrix(.22 -.98 .98 .22 -108.89 178.98)"/><path d="m195.94 294.28a98.34 98.34 0 1 1 98.34-98.34 98.45 98.45 0 0 1 -98.34 98.34zm0-184.68a86.34 86.34 0 1 0 86.34 86.34 86.44 86.44 0 0 0 -86.34-86.34z"/><path d="m234.49 195.56a27.88 27.88 0 0 0 -9.52-4.14s4.73-2.74 6.67-5.49a20.85 20.85 0 0 0 3.07-9.2c.16-2.21.54-11.46-6.67-16.78-5.58-4.12-12-5.76-20.54-6.29v-18.66h-11.5v18.45h-8.77v-18.45h-11.53v18.45h-22.64v12h6.66c1.81 0 5 .2 6.41 1.74s1.61 2.34 1.61 5.32 0 46.5 0 47.63a4.66 4.66 0 0 1 -1.18 3.44c-1 .92-1.94 1.13-4.25 1.13h-6.88l-2.37 13.82h22.64v18.4h11.51v-18.4h8.79v18.4h11.51v-18.7c3-.17 5.75-.4 7.37-.61 3.28-.43 10.7-1.29 17.64-6.13s8.5-12.43 8.66-20.06-2.77-12.91-6.69-15.87zm-47.28-29.1s3.66-.32 7.26-.27a36.62 36.62 0 0 1 11.53 1.62c4.73 1.45 7.53 5 7.64 9.2a9 9 0 0 1 -4.95 8.77 28 28 0 0 1 -11.89 2.9c-4.19.16-9.57 0-9.57 0zm25.76 55c-2.64 1.45-7.91 2.74-13 3.12s-12.75.22-12.75.22v-24.67s7.32-.38 13 0a36.85 36.85 0 0 1 12.64 2.87c2.15 1.07 5.92 3.44 5.92 9.09s-3.18 7.91-5.78 9.4z"/></g></svg>