
<svg viewBox="0 0 378 294.46" xmlns="http://www.w3.org/2000/svg"><rect fill="#fff" height="237.95" rx="12" width="360.76" x="10.08" y="5.75"/><path d="m236.33 239.17a25.15 25.15 0 0 0 -8.59-3.73s4.27-2.48 6-4.95a18.8 18.8 0 0 0 2.77-8.29c.15-2 .49-10.33-6-15.13-5-3.71-10.79-5.19-18.53-5.67v-16.84h-10.38v16.64h-7.91v-16.64h-10.37v16.64h-20.42v10.8h6c1.64 0 4.55.18 5.78 1.57s1.46 2.11 1.46 4.8 0 41.93 0 42.95a4.2 4.2 0 0 1 -1.07 3.1c-.87.83-1.74 1-3.83 1h-6.24l-2.13 12.47h20.42v16.59h10.41v-16.61h7.91v16.59h10.39v-16.86c2.68-.16 5.18-.36 6.64-.55 3-.39 9.65-1.16 15.91-5.53s7.66-11.21 7.81-18.09-2.49-11.59-6.03-14.26zm-42.63-26.24s3.3-.29 6.55-.24a33 33 0 0 1 10.38 1.46c4.27 1.31 6.79 4.51 6.89 8.29a8.13 8.13 0 0 1 -4.46 7.91 25.29 25.29 0 0 1 -10.73 2.65c-3.78.15-8.63 0-8.63 0zm23.23 49.62c-2.38 1.31-7.13 2.47-11.74 2.81s-11.5.19-11.5.19v-22.26s6.6-.34 11.74 0a33.23 33.23 0 0 1 11.4 2.62 8.72 8.72 0 0 1 5.34 8.2c0 5.09-2.87 7.13-5.24 8.44z" fill="#385868"/><path d="m372 19.29v207.06c0 7.26-5.4 13.21-12 13.21h-10v-199.39c0-7.26-5.4-13.17-12-13.17h-332v-7.71c0-7.29 5.4-13.21 12-13.21h342c6.6 0 12 5.92 12 13.21z" fill="#d1d6d8"/><g fill="#385868"><path d="m360 245.48h-105.84v-12h105.84a6 6 0 0 0 6-6v-209.48a6 6 0 0 0 -6-6h-342a6 6 0 0 0 -6 6v209.48a6 6 0 0 0 6 6h135.65v12h-135.65a18 18 0 0 1 -18-18v-209.48a18 18 0 0 1 18-18h342a18 18 0 0 1 18 18v209.48a18 18 0 0 1 -18 18z"/><path d="m5 51.56h367v52h-367z"/><path d="m24 123.56h177v13h-177z"/><path d="m24 148.56h88v13h-88z"/><path d="m249 123.56h88v13h-88z"/><path d="m24 173.56h88v13h-88z"/></g></svg>
