<svg viewBox="0 0 405.31 393.49" xmlns="http://www.w3.org/2000/svg"><path d="m58.63 367a26.15 26.15 0 0 0 25.53 20.51h237a26.15 26.15 0 0 0 25.52-20.51l41.71-189.09a26.15 26.15 0 0 0 -25.53-31.78h-320.41a26.15 26.15 0 0 0 -25.53 31.78z" fill="#a9ea9c"/><path d="m345.27 366.23a26.15 26.15 0 0 1 -25.53 20.51h-237a26.15 26.15 0 0 1 -25.53-20.51l-36.46-165.23 48.4 116.31a62.82 62.82 0 0 0 55.09 38.69z" fill="#fff" opacity=".3"/><path d="m380.49 193.67h-355.68l-8.52-18.46h372.72z" fill="#91cd86"/><path d="m321.15 393.49h-237a32.35 32.35 0 0 1 -31.39-25.22l-41.71-189.09a32.15 32.15 0 0 1 31.39-39.07h320.42a32.15 32.15 0 0 1 31.39 39.07l-41.71 189.09a32.35 32.35 0 0 1 -31.39 25.22zm-256.67-27.81a20.27 20.27 0 0 0 19.67 15.81h237a20.27 20.27 0 0 0 19.67-15.81l41.71-189.09a20.14 20.14 0 0 0 -19.67-24.49h-320.41a20.15 20.15 0 0 0 -19.67 24.48z" fill="#1d6855"/><rect fill="#a9ea9c" height="57.51" rx="12" width="393.31" x="6" y="117.71"/><path d="m399.31 128v15.47a10.34 10.34 0 0 0 -10.31-10.3h-372.69a10.34 10.34 0 0 0 -10.31 10.31v-15.48a10.34 10.34 0 0 1 10.31-10.31h372.69a10.34 10.34 0 0 1 10.31 10.31z" fill="#fff" opacity=".3"/><path d="m387.31 181.21h-369.31a18 18 0 0 1 -18-18v-33.5a18 18 0 0 1 18-18h369.31a18 18 0 0 1 18 18v33.5a18 18 0 0 1 -18 18zm-369.31-57.5a6 6 0 0 0 -6 6v33.5a6 6 0 0 0 6 6h369.31a6 6 0 0 0 6-6v-33.5a6 6 0 0 0 -6-6z" fill="#1d6855"/><rect fill="#a9ea9c" height="150.57" rx="12" width="55.76" x="176.26" y="6"/><path d="m241.56 280.75a26.92 26.92 0 0 0 -9.19-4s4.57-2.65 6.44-5.3a20.12 20.12 0 0 0 3-8.88c.16-2.13.52-11.06-6.44-16.2-5.38-4-11.55-5.55-19.83-6.07v-18h-11.15v17.8h-8.46v-17.81h-11.12v17.81h-21.81v11.54h6.42c1.75 0 4.87.19 6.19 1.68s1.56 2.26 1.56 5.14 0 44.88 0 46a4.5 4.5 0 0 1 -1.14 3.32c-.93.88-1.87 1.09-4.1 1.09h-6.64l-2.29 13.31h21.86v17.76h11.11v-17.76h8.46v17.76h11.07v-18c2.87-.17 5.55-.39 7.11-.59 3.17-.41 10.33-1.25 17-5.92s8.2-12 8.36-19.37-2.62-12.46-6.41-15.31zm-45.63-28.09s3.53-.31 7-.26a35.35 35.35 0 0 1 11.07 1.6c4.57 1.4 7.27 4.83 7.37 8.88a8.7 8.7 0 0 1 -4.78 8.46 27.07 27.07 0 0 1 -11.47 2.8c-4 .16-9.24 0-9.24 0zm24.87 53.11c-2.54 1.4-7.63 2.65-12.56 3s-12.3.21-12.3.21v-23.82s7.06-.36 12.56 0a35.57 35.57 0 0 1 12.2 2.81 9.34 9.34 0 0 1 5.71 8.77c-.01 5.45-3.08 7.63-5.62 9.03z" fill="#1d6855"/><path d="m224.78 17.17v97.83c-18.46-29.3-28.17-61.23-28.17-93.74v-14.4h13.71c7.96 0 14.46 4.64 14.46 10.31z" fill="#fff" opacity=".3"/><path d="m220 162.57h-31.74a18 18 0 0 1 -18-18v-126.57a18 18 0 0 1 18-18h31.74a18 18 0 0 1 18 18v126.57a18 18 0 0 1 -18 18zm-31.74-150.57a6 6 0 0 0 -6 6v126.57a6 6 0 0 0 6 6h31.74a6 6 0 0 0 6-6v-126.57a6 6 0 0 0 -6-6z" fill="#1d6855"/><ellipse cx="357.57" cy="218.34" fill="#fff" rx="17.02" ry="3.83" transform="matrix(.22971002 -.97325912 .97325912 .22971002 62.96 516.22)"/><ellipse cx="349.82" cy="250.75" fill="#fff" rx="8.51" ry="3.83" transform="matrix(.22954015 -.97329919 .97329919 .22954015 25.45 533.64)"/><g fill="#1d6855"><circle cx="203.23" cy="131.01" r="9.88"/><path d="m6 148.57h65.71v8h-65.71z"/><path d="m84.23 148.57h33.02v8h-33.02z"/></g></svg>