<svg viewBox="0 0 327.34 303.57" xmlns="http://www.w3.org/2000/svg"><rect fill="#ebf0f9" height="240.84" rx="12" width="239.99" x="43.81" y="57.84"/><path d="m284.87 21.38v96l-.36-.27a21.45 21.45 0 0 1 -2.06-1.81l-.36-.36v1a20.13 20.13 0 0 1 -6.74-9.59 18 18 0 0 1 -.85-5.49c0 11.1-10.14 20.19-22.52 20.19a24.43 24.43 0 0 1 -9.84-2 23 23 0 0 1 -2.89-1.52q-.7-.5-1.34-1.06c.25.24.52.48.8.71a19.61 19.61 0 0 1 -9.25-16.28c0 11.1-10.14 20.19-22.52 20.19a24.18 24.18 0 0 1 -12.9-3.67c-5.81-3.66-9.62-9.71-9.62-16.52a18 18 0 0 1 -.5 4.2c-.13-.47-.23-1-.31-1.44a18.66 18.66 0 0 1 -3.34 8.88 23.41 23.41 0 0 1 -18.39 8.46 24.43 24.43 0 0 1 -10.3-2.25 23 23 0 0 1 -4.68-2.9 19.87 19.87 0 0 1 -7.09-11 18.07 18.07 0 0 1 -.45-4 18.07 18.07 0 0 1 -.45 4c-2.1 9.15-11.22 16.15-22.08 16.15a23.77 23.77 0 0 1 -16.12-6.13 21.06 21.06 0 0 1 -2.23-2.39 18.52 18.52 0 0 1 -3.48-10.7 18.08 18.08 0 0 1 -.26 3.06 18.07 18.07 0 0 1 -.45-4 18 18 0 0 1 -.16 2.37c-1.3 9.98-10.85 17.79-22.34 17.79a24.43 24.43 0 0 1 -10.3-2.25 23 23 0 0 1 -4.68-2.9 21.28 21.28 0 0 1 -3.38-3.38 18.79 18.79 0 0 1 -3.07-7.1c-.06.32-.14.64-.22 1a18 18 0 0 1 -.85-5.49 18.7 18.7 0 0 1 -4.38 11.92l-.36.43a20 20 0 0 1 -2.06 2.06v-92.81c.79-.26 1.6-.5 2.42-.72l.78-.2c1.06-.27 2.14-.5 3.24-.7v-.54h45.07v8.68h2.1v-8.29h-1.1v-.38h43.62v6.79h.38v-6.8h44.33v8.68h2.86v-8.29h-1.79v-.38h89v.54l1.07.21v8h2.15v-7.52a46.94 46.94 0 0 1 5.45 1.71l.36.14c.7.27 1.38.56 2.06.86v-.1a3.79 3.79 0 0 0 -2.06-3.28c.84.11 1.65.3 2.44.49z" fill="#bbd2e5"/><path d="m271.89 303.57h-215.99a18 18 0 0 1 -18-18v-216.83a18 18 0 0 1 18-18h216a18 18 0 0 1 18 18v216.83a18 18 0 0 1 -18.01 18zm-215.99-240.83a6 6 0 0 0 -6 6v216.83a6 6 0 0 0 6 6h216a6 6 0 0 0 6-6v-216.83a6 6 0 0 0 -6-6z" fill="#426572"/><path d="m198.37 205.6a26.46 26.46 0 0 0 -9-3.93s4.49-2.6 6.33-5.21a19.79 19.79 0 0 0 2.91-8.73c.15-2.09.51-10.87-6.33-15.93-5.29-3.91-11.36-5.46-19.5-6v-17.68h-10.96v17.51h-8.32v-17.51h-10.93v17.51h-21.49v11.37h6.32c1.72 0 4.79.19 6.09 1.65s1.53 2.22 1.53 5.05 0 44.13 0 45.2a4.42 4.42 0 0 1 -1.12 3.27c-.92.87-1.84 1.07-4 1.07h-6.53l-2.25 13.12h21.49v17.44h10.89v-17.46h8.32v17.46h10.92v-17.8c2.82-.16 5.46-.38 7-.58 3.11-.41 10.16-1.22 16.74-5.82s8.06-11.79 8.22-19-2.61-12.19-6.33-15zm-44.87-27.6s3.47-.31 6.89-.26a34.76 34.76 0 0 1 10.93 1.53c4.49 1.38 7.14 4.75 7.25 8.73a8.56 8.56 0 0 1 -4.7 8.32 26.61 26.61 0 0 1 -11.28 2.76c-4 .15-9.09 0-9.09 0zm24.45 52.22c-2.5 1.38-7.5 2.6-12.35 3s-12.1.2-12.1.2v-23.48s6.94-.36 12.35 0a35 35 0 0 1 12 2.76 9.18 9.18 0 0 1 5.62 8.63c-.01 5.35-3.02 7.5-5.52 8.88z" fill="#426572"/><path d="m278.44 7a45 45 0 0 1 45 45v34.34a22.52 22.52 0 0 1 -22.44 22.53 22.52 22.52 0 0 1 -22.52-22.52v-79.35a0 0 0 0 1 -.04 0z" fill="#fff"/><path d="m311.33 47.34v41.34c0 9.73-7.79 17.91-18.06 19.79a24.67 24.67 0 0 0 4.47.4c12.39 0 22.52-9.08 22.52-20.19v-41.34c.01-22.34-20.16-40.34-45.04-40.34v.79c20.6 3.68 36.11 19.99 36.11 39.55z" fill="#d9e2ef" opacity=".5"/><path d="m298.82 113.91a28.56 28.56 0 0 1 -28.52-28.52v-85.39h6a51.11 51.11 0 0 1 51 51v34.38a28.56 28.56 0 0 1 -28.48 28.53zm-16.53-101.45v72.92a16.54 16.54 0 0 0 16.52 16.52 16.54 16.54 0 0 0 16.52-16.52v-34.38a39.11 39.11 0 0 0 -33.04-38.54z" fill="#426572"/><ellipse cx="265.92" cy="64.44" fill="#fff" rx="3.83" ry="9.29" transform="matrix(.99979858 -.02006994 .02006994 .99979858 -1.24 5.35)"/><ellipse cx="266.2" cy="82.62" fill="#fff" rx="3.83" ry="4.64" transform="matrix(.99979858 -.02006994 .02006994 .99979858 -1.6 5.36)"/><path d="m51.76 7h45a0 0 0 0 1 0 0v79.34a22.52 22.52 0 0 1 -22.52 22.52 22.52 22.52 0 0 1 -22.48-22.52v-79.34a0 0 0 0 1 0 0z" fill="#f3aa9f"/><path d="m140.43 7h45a0 0 0 0 1 0 0v79.34a22.52 22.52 0 0 1 -22.43 22.53 22.52 22.52 0 0 1 -22.52-22.52v-79.35a0 0 0 0 1 -.05 0z" fill="#f3aa9f"/><path d="m232.67 7h45a0 0 0 0 1 0 0v79.34a22.52 22.52 0 0 1 -22.52 22.52 22.52 22.52 0 0 1 -22.52-22.52v-79.34a0 0 0 0 1 0 0z" fill="#f3aa9f"/><path d="m52.48 7a0 0 0 0 1 0 0v79.34a22.52 22.52 0 0 1 -22.48 22.53 22.52 22.52 0 0 1 -22.57-22.53v-34.34a45 45 0 0 1 45.05-45z" fill="#fff"/><path d="m14.58 47.34v41.34c0 9.73 7.79 17.91 18.06 19.79a24.67 24.67 0 0 1 -4.47.4c-12.39 0-22.52-9.08-22.52-20.19v-41.34c-.01-22.34 20.16-40.34 45.04-40.34v.79c-20.6 3.68-36.11 19.99-36.11 39.55z" fill="#d9e2ef" opacity=".5"/><path d="m159.6 15.93c-4.84 0-8.76 3.52-8.76 7.85v73.87a18.29 18.29 0 0 0 2.36 9c-6.54-3.54-10.94-10-10.94-17.29v-73.9c0-4.34 3.92-7.85 8.76-7.85h36.29v8.33z" fill="#e1978f"/><path d="m249.86 15.93c-4.84 0-8.76 3.52-8.76 7.85v73.87a18.29 18.29 0 0 0 2.36 9c-6.54-3.54-10.94-10-10.94-17.29v-73.9c0-4.34 3.92-7.85 8.76-7.85h36.29v8.33z" fill="#e1978f"/><path d="m96.81 7h45a0 0 0 0 1 0 0v79.34a22.52 22.52 0 0 1 -22.52 22.52 22.52 22.52 0 0 1 -22.48-22.52v-79.34a0 0 0 0 1 0 0z" fill="#fff"/><path d="m104.32 14v81.73a18.29 18.29 0 0 0 2.36 9c-6.54-3.54-10.94-10-10.94-17.29v-81.76h45v8.32z" fill="#d9e2ef" opacity=".5"/><path d="m186.19 7h45a0 0 0 0 1 0 0v79.34a22.52 22.52 0 0 1 -22.52 22.52 22.52 22.52 0 0 1 -22.52-22.52v-79.34a0 0 0 0 1 .04 0z" fill="#fff"/><path d="m193.7 14v81.73a18.29 18.29 0 0 0 2.36 9c-6.54-3.54-10.94-10-10.94-17.29v-81.76h45v8.32z" fill="#d9e2ef" opacity=".5"/><g fill="#426572"><path d="m28.52 113.91a28.56 28.56 0 0 1 -28.52-28.53v-34.38a51.11 51.11 0 0 1 51-51h6v85.38a28.56 28.56 0 0 1 -28.48 28.53zm16.48-101.45a39.11 39.11 0 0 0 -33 38.54v34.38a16.52 16.52 0 0 0 33 0z"/><path d="m73.57 113.91a28.56 28.56 0 0 1 -28.57-28.53v-85.38h57v85.38a28.56 28.56 0 0 1 -28.43 28.53zm-16.57-101.91v73.38a16.52 16.52 0 0 0 33 0v-73.38z"/><path d="m121.47 113.91h-5.69a25.71 25.71 0 0 1 -25.68-25.68v-88.23h57v88.23a25.71 25.71 0 0 1 -25.63 25.68zm-19.37-101.91v76.23a13.69 13.69 0 0 0 13.68 13.68h5.69a13.69 13.69 0 0 0 13.68-13.68v-76.23z"/><path d="m163.67 113.91a28.56 28.56 0 0 1 -28.52-28.52v-85.39h57v85.38a28.56 28.56 0 0 1 -28.48 28.53zm-16.52-101.91v73.38a16.52 16.52 0 0 0 33 0v-73.38z"/><path d="m208.72 113.91a28.56 28.56 0 0 1 -28.52-28.53v-85.38h57v85.38a28.56 28.56 0 0 1 -28.48 28.53zm-16.52-101.91v73.38a16.52 16.52 0 0 0 33 0v-73.38z"/><path d="m253.77 113.91a28.56 28.56 0 0 1 -28.52-28.52v-85.39h57v85.38a28.56 28.56 0 0 1 -28.48 28.53zm-16.53-101.91v73.38a16.52 16.52 0 0 0 33 0v-73.38z"/></g></svg>