<svg viewBox="0 0 420.35 316.79" xmlns="http://www.w3.org/2000/svg"><path d="m86.5 316.79a22.88 22.88 0 1 1 22.88-22.88 22.91 22.91 0 0 1 -22.88 22.88zm0-33.76a10.88 10.88 0 1 0 10.88 10.88 10.89 10.89 0 0 0 -10.88-10.91z" fill="#3b5360"/><path d="m334.65 316.79a22.88 22.88 0 1 1 22.88-22.88 22.91 22.91 0 0 1 -22.88 22.88zm0-33.76a10.88 10.88 0 1 0 10.88 10.88 10.89 10.89 0 0 0 -10.88-10.91z" fill="#3b5360"/><rect fill="#b0dfea" height="279.08" rx="12" width="408.35" x="7.03" y="9.77"/><rect fill="#b0dfea" height="220.83" rx="12" width="350.28" x="35.88" y="36.17"/><circle cx="265.44" cy="147.05" fill="#95bcc9" r="57.39"/><path d="m415.37 249.18v26.17a10.16 10.16 0 0 1 -10.13 10.13h-388.09a10.16 10.16 0 0 1 -10.15-10.14v-26.16a10.16 10.16 0 0 0 10.13 10.13h388.11a10.16 10.16 0 0 0 10.13-10.13z" fill="#95bcc9"/><path d="m386.16 224.08v21.92a10.16 10.16 0 0 1 -10.16 10.15h-330a10.16 10.16 0 0 1 -10.12-10.15v-21.92a10.16 10.16 0 0 0 10.12 10.12h330a10.16 10.16 0 0 0 10.16-10.12z" fill="#95bcc9"/><path d="m149.35 146.6a30.12 30.12 0 0 0 -10.28-4.47s5.11-3 7.2-5.93a22.52 22.52 0 0 0 3.31-9.94c.17-2.38.58-12.37-7.2-18.13-6-4.45-12.92-6.22-22.19-6.79v-20.16h-12.44v19.93h-9.47v-19.93h-12.43v19.93h-24.46v12.89h7.19c2 0 5.45.22 6.93 1.88s1.74 2.53 1.74 5.75 0 50.23 0 51.45a5 5 0 0 1 -1.25 3.73c-1 1-2.09 1.22-4.59 1.22h-7.47l-2.55 14.97h24.46v19.87h12.43v-19.87h9.47v19.87h12.43v-20.2c3.21-.19 6.21-.43 8-.66 3.54-.46 11.56-1.39 19.06-6.62s9.18-13.42 9.35-21.67-3.01-13.92-7.24-17.12zm-51.07-31.43s4-.35 7.84-.29a39.56 39.56 0 0 1 12.43 1.74c5.11 1.57 8.13 5.4 8.25 9.94a9.74 9.74 0 0 1 -5.35 9.47 30.29 30.29 0 0 1 -12.84 3.14c-4.53.17-10.34 0-10.34 0zm27.83 59.43c-2.85 1.57-8.54 3-14.06 3.37s-13.77.23-13.77.23v-26.66s7.9-.41 14.06 0a39.81 39.81 0 0 1 13.66 3.14c2.32 1.16 6.39 3.72 6.39 9.82s-3.39 8.5-6.28 10.1z" fill="#385868"/><path d="m233.23 25 82.3-.09c3.86 0 3.87-6 0-6l-82.3.09c-3.86 0-3.87 6 0 6z" fill="#fff"/><path d="m337 25.33 60.83-.06c3.86 0 3.87-6 0-6l-60.83.06c-3.86 0-3.87 6 0 6z" fill="#fff"/><g fill="#3b5360"><path d="m402.35 294.85h-384.35a18 18 0 0 1 -18-18v-258.85a18 18 0 0 1 18-18h68.5v12h-68.5a6 6 0 0 0 -6 6v258.85a6 6 0 0 0 6 6h384.35a6 6 0 0 0 6-6v-258.85a6 6 0 0 0 -6-6h-283v-12h283a18 18 0 0 1 18 18v258.85a18 18 0 0 1 -18 18z"/><path d="m373.32 263.84h-326.32a18 18 0 0 1 -18-18v-196.84a18 18 0 0 1 18-18h326.32a18 18 0 0 1 18 18v196.84a18 18 0 0 1 -18 18zm-326.32-220.84a6 6 0 0 0 -6 6v196.84a6 6 0 0 0 6 6h326.32a6 6 0 0 0 6-6v-196.84a6 6 0 0 0 -6-6z"/><path d="m265 234.08a87.45 87.45 0 1 1 87.45-87.45 87.55 87.55 0 0 1 -87.45 87.45zm0-162.9a75.45 75.45 0 1 0 75.45 75.45 75.54 75.54 0 0 0 -75.45-75.45z"/><path d="m262.58 45.76h12v65.19h-12z"/><path d="m200.72 77.03h12v65.19h-12z" transform="matrix(.57 -.82 .82 .57 -1.22 216.91)"/><path d="m289.87 103.62h65.19v12h-65.19z" transform="matrix(.82144792 -.57028354 .57028354 .82144792 -4.94 203.48)"/><path d="m262.58 181.46h12v65.19h-12z"/><path d="m174.13 176.79h65.19v12h-65.19z" transform="matrix(.82144792 -.57028354 .57028354 .82144792 -67.33 150.53)"/><path d="m316.46 150.2h12v65.19h-12z" transform="matrix(.57 -.82 .82 .57 -11.59 343.43)"/></g><circle cx="265.02" cy="149.16" fill="#d9f4f9" r="45.16"/><path d="m265 197.78a51.16 51.16 0 1 1 51.16-51.16 51.21 51.21 0 0 1 -51.16 51.16zm0-90.31a39.16 39.16 0 1 0 39.16 39.16 39.2 39.2 0 0 0 -39.16-39.16z" fill="#3b5360"/><path d="m265.44 121.35a28.42 28.42 0 0 1 13 2.26c10.57 4.53 14.2 15.16 14.34 26 .05 3.86 6.05 3.87 6 0-.16-12.34-4.43-24.64-16-30.54a33.81 33.81 0 0 0 -17.37-3.69c-3.82.3-3.86 6.3 0 6z" fill="#fff"/></svg>