<svg viewBox="0 0 278.82 329.8" xmlns="http://www.w3.org/2000/svg"><path d="m139.41 329.8s132.41-66.2 132.41-165.51v-132.41l-81.25-20.32a210.93 210.93 0 0 0 -102.32 0l-81.25 14.32v138.41c0 99.3 132.41 165.51 132.41 165.51z" fill="#f3aa9f"/><path d="m271.82 101.39v55.34c0 99.31-132.42 165.52-132.42 165.52s-132.4-66.25-132.4-165.52v-55.34c0 99.32 132.4 165.52 132.4 165.52s132.42-66.2 132.42-165.52z" fill="#e1978f"/><path d="m139.41 329-3.13-1.57a355.91 355.91 0 0 1 -67.68-46.51c-19.75-17.28-35.52-35.39-46.87-53.84-14.42-23.43-21.73-47.46-21.73-71.43v-137.87l5.3-1.33a554.87 554.87 0 0 1 268.21 0l5.3 1.33v137.87c0 24-7.31 48-21.73 71.43-11.35 18.45-27.12 36.56-46.87 53.84a355.91 355.91 0 0 1 -67.68 46.51zm-125.41-300.26v126.91c0 48.58 34.58 89.09 63.58 114.53a355 355 0 0 0 61.83 43.07 355 355 0 0 0 61.83-43.07c29-25.43 63.58-65.95 63.58-114.53v-126.91a541 541 0 0 0 -250.82 0z" fill="#426572"/><path d="m193 135.63c-5-3.76-12.11-5.27-12.11-5.27s6-3.49 8.48-7 3.69-8.89 3.9-11.7.68-14.57-8.48-21.34c-7.09-5.24-15.21-7.32-26.13-8v-23.7h-14.59v23.46h-11.15v-23.46h-14.64v23.46h-28.79v15.2h8.51c2.31 0 6.41.26 8.16 2.21s2.05 3 2.05 6.77 0 59.13 0 60.57a5.93 5.93 0 0 1 -1.51 4.38c-1.23 1.16-2.46 1.44-5.4 1.44h-8.8l-3 17.58h28.79v23.39h14.64v-23.41h11.15v23.39h14.64v-23.77c3.78-.22 7.31-.51 9.37-.78 4.17-.55 13.61-1.64 22.44-7.8s10.8-15.8 11-25.51-3.53-16.35-8.53-20.11zm-60.12-37s4.65-.41 9.23-.34a46.57 46.57 0 0 1 14.64 2.05c6 1.85 9.57 6.36 9.71 11.7s-2.19 8.89-6.29 11.15-9.78 3.49-15.11 3.69-12.17 0-12.17 0zm32.76 70c-3.35 1.85-10.05 3.49-16.55 4s-16.21.27-16.21.27v-31.4s9.3-.48 16.55 0 13.34 2.33 16.07 3.7 7.53 4.38 7.53 11.56-4.03 9.99-7.35 11.84z" fill="#426572"/><g fill="#fff"><ellipse cx="248.04" cy="59.19" rx="19.96" ry="3.83" transform="matrix(.02617695 -.99965732 .99965732 .02617695 182.39 305.6)"/><ellipse cx="246.9" cy="98.26" rx="9.98" ry="3.83" transform="matrix(.02617695 -.99965732 .99965732 .02617695 142.23 342.51)"/></g></svg>