<svg viewBox="0 0 243.03 129.12" xmlns="http://www.w3.org/2000/svg"><rect fill="#e0f0f5" height="76" rx="3.66" width="36" x="55.06" y="51"/><rect fill="#e0f0f5" height="100" rx="3.33" width="36" x="104.06" y="28"/><rect fill="#e0f0f5" height="126" rx="3.72" width="36" x="152.06" y="1"/><path d="m188.56 81.51v42.12a3.71 3.71 0 0 1 -3.72 3.72h-28.55a3.72 3.72 0 0 1 -3.73-3.72v-38.81a6 6 0 1 1 12 0v8.35a6 6 0 1 0 12 0v-11.66a6 6 0 0 1 12 0z" fill="#bddfe9"/><path d="m139.51 64.12v60.12a3.71 3.71 0 0 1 -3.72 3.72h-28.55a3.72 3.72 0 0 1 -3.73-3.72v-34.81a6 6 0 1 1 12 0v4.35a6 6 0 0 0 12 0v-29.66a6 6 0 0 1 12 0z" fill="#bddfe9"/><path d="m91.56 82.51v40.12a3.71 3.71 0 0 1 -3.72 3.72h-28.55a3.72 3.72 0 0 1 -3.73-3.72v-34.81a6 6 0 1 1 12 0v4.35a6 6 0 1 0 12 0v-9.66a6 6 0 0 1 12 0z" fill="#bddfe9"/><circle cx="195.94" cy="16.78" fill="#eef0f1" r="1.73"/><path d="m201 29.19a4.11 4.11 0 1 1 2.92-1.19 4.12 4.12 0 0 1 -2.92 1.19zm0-7.19a3.12 3.12 0 0 0 0 6.23 3.11 3.11 0 0 0 3.14-3.09 3.12 3.12 0 0 0 -3.08-3.14z" fill="#eef0f1"/><circle cx="72.56" cy="103.5" fill="#a3cad3" r="11.5"/><circle cx="73.56" cy="97.5" fill="#fff" r="11.5"/><path d="m72.56 111a12.5 12.5 0 1 1 12.5-12.5 12.52 12.52 0 0 1 -12.5 12.5zm0-23a10.5 10.5 0 1 0 10.5 10.5 10.51 10.51 0 0 0 -10.5-10.5z" fill="#183154"/><circle cx="170.56" cy="36.5" fill="#bddfe9" r="11.5"/><circle cx="171.56" cy="31.5" fill="#8fdaff" r="11.5"/><path d="m182.06 31.9a11.49 11.49 0 0 1 -21.65 5.39 11.36 11.36 0 0 0 5.39 1.35 11.49 11.49 0 0 0 10.2-16.89 11.46 11.46 0 0 1 6.06 10.15z" fill="#38609b"/><path d="m170.55 44a12.51 12.51 0 1 1 11.8-16.65 12.53 12.53 0 0 1 -11.8 16.65zm0-23a10.51 10.51 0 1 0 9.9 7 10.53 10.53 0 0 0 -9.9-7z" fill="#183154"/><path d="m133 49a1 1 0 0 1 -.42-1.9l26-12.37a1 1 0 0 1 .86 1.8l-26 12.37a.94.94 0 0 1 -.44.1z" fill="#183154"/><g fill="#bddfe9"><path d="m54.56 18.42 9.11 18.47 14.39 1.11-10 7 6 27-17.5-8.89-.01-6.01-18.49 6.9 1.75-9.77 1.25-13.23 4.38-4.11z"/><path d="m2.05 75.11a7 7 0 0 1 5-2h22.8a7 7 0 1 0 0-14h-13.22a7 7 0 0 1 0-14h32.37a5.52 5.52 0 0 1 5.52 5.52v72.97a5.52 5.52 0 0 1 -5.52 5.52h-9.53a7 7 0 1 0 0-14h-32.47a7 7 0 1 1 0-14h17.74a7 7 0 0 0 0-14h-17.74a7 7 0 0 1 -7-7 6.94 6.94 0 0 1 2.05-5" opacity=".3"/><path d="m188.47 20.52v73.05a5.52 5.52 0 0 0 5.53 5.53h9.56a7 7 0 0 1 0-14h32.44a7 7 0 0 0 0-14h-17.71a7 7 0 0 1 -7-7 7 7 0 0 1 7-7h17.71a7 7 0 0 0 0-14h-22.83a7 7 0 0 1 0-14h13.23a7 7 0 0 0 7-7 7 7 0 0 0 -7-7h-32.4a5.52 5.52 0 0 0 -5.53 5.42z" opacity=".3"/><circle cx="179.64" cy="69.11" r="3.18"/><circle cx="174.09" cy="73.08" opacity=".5" r="1.59"/><circle cx="117.16" cy="76.81" r="3.18"/><circle cx="111.6" cy="80.78" opacity=".5" r="1.59"/><circle cx="71.73" cy="75.62" r="3.18"/><circle cx="66.17" cy="79.59" opacity=".5" r="1.59"/></g><path d="m117.16 29.3h19.34a0 0 0 0 1 0 0 2.2 2.2 0 0 1 -2.2 2.2h-14.93a2.2 2.2 0 0 1 -2.2-2.2 0 0 0 0 1 0 0z" fill="#fff"/><path d="m87.48 128h-28.69a4.73 4.73 0 0 1 -4.73-4.73v-68a4.73 4.73 0 0 1 4.73-4.73h28.69a4.73 4.73 0 0 1 4.73 4.73v68a4.73 4.73 0 0 1 -4.73 4.73zm-28.69-75.49a2.73 2.73 0 0 0 -2.73 2.73v68a2.73 2.73 0 0 0 2.73 2.76h28.69a2.74 2.74 0 0 0 2.73-2.73v-68a2.73 2.73 0 0 0 -2.73-2.73z" fill="#183154"/><path d="m135.86 128h-28.69a4.73 4.73 0 0 1 -4.73-4.73v-90.89a4.73 4.73 0 0 1 4.73-4.73h28.69a4.73 4.73 0 0 1 4.73 4.73v90.89a4.73 4.73 0 0 1 -4.73 4.73zm-28.69-98.35a2.73 2.73 0 0 0 -2.73 2.73v90.89a2.73 2.73 0 0 0 2.73 2.73h28.69a2.74 2.74 0 0 0 2.73-2.73v-90.89a2.73 2.73 0 0 0 -2.73-2.73z" fill="#183154"/><path d="m152.35 29a1 1 0 0 1 -1-1v-3.83a1 1 0 1 1 2 0v3.83a1 1 0 0 1 -1 1z" fill="#183154"/><path d="m152.35 33.49a1 1 0 0 1 -1-1v-.83a1 1 0 1 1 2 0v.83a1 1 0 0 1 -1 1z" fill="#183154"/><path d="m184.77 128h-28.69a4.73 4.73 0 0 1 -4.73-4.73v-87.41a1 1 0 1 1 2 0v87.41a2.74 2.74 0 0 0 2.73 2.73h28.69a2.73 2.73 0 0 0 2.73-2.73v-2.13a1 1 0 1 1 2 0v2.13a4.73 4.73 0 0 1 -4.73 4.73z" fill="#183154"/><path d="m188.5 98.41a1 1 0 0 1 -1-1v-92.68a2.73 2.73 0 0 0 -2.73-2.73h-28.69a2.74 2.74 0 0 0 -2.73 2.73v15.78a1 1 0 0 1 -2 0v-15.78a4.73 4.73 0 0 1 4.73-4.73h28.69a4.73 4.73 0 0 1 4.73 4.73v92.68a1 1 0 0 1 -1 1z" fill="#183154"/><path d="m167.46 23.88a.5.5 0 0 1 -.13-1l.29-.07a.49.49 0 0 1 .6.37.5.5 0 0 1 -.37.6l-.26.07z" fill="#fff"/><path d="m162.15 30.86a.5.5 0 0 1 -.48-.52c0-.2.25-4.88 4.23-6.89a.5.5 0 0 1 .67.22.49.49 0 0 1 -.22.67c-3.47 1.76-3.68 6-3.68 6a.5.5 0 0 1 -.52.52z" fill="#fff"/><circle cx="121.51" cy="56.29" fill="#bddfe9" r="11.5"/><circle cx="121.51" cy="51.51" fill="#fff" r="11.5"/><path d="m82.54 94a1 1 0 0 1 -.61-.21 1 1 0 0 1 -.18-1.41l28.52-36.74a1 1 0 0 1 1.58 1.22l-28.52 36.79a1 1 0 0 1 -.79.35z" fill="#183154"/><path d="m127.09 41.69a11.48 11.48 0 0 1 -15.45 15.45 11.5 11.5 0 1 0 15.45-15.45z" fill="#bddfe9"/><path d="m53.56 9.42 9.11 18.47 20.39 2.96-14.75 14.38 3.48 20.3-18.23-9.58-18.23 9.58 3.48-20.3-14.75-14.38 20.38-2.96z" fill="#8fdaff"/><path d="m68.31 45.64 3.48 20.36-18.23-9.64-18.23 9.64 1.85-10.81a54.85 54.85 0 0 0 19.82-6.9 55 55 0 0 0 18.73-18.09l7.33 1.07z" fill="#38609b"/><path d="m58.37 21a1 1 0 0 1 -.9-.55l-1.17-2.39a1 1 0 0 1 1.79-.89l1.18 2.39a1 1 0 0 1 -.46 1.34 1 1 0 0 1 -.44.1z" fill="#183154"/><path d="m73.12 68.19-19.56-10.28-19.56 10.28 3.73-21.78-15.82-15.41 21.87-3.18 9.78-19.82 2.78 5.64a1 1 0 0 1 -1.79.89l-1-2-8.44 17.11-18.9 2.74 13.67 13.33-3.23 18.83 16.91-8.89 16.9 8.89-3.23-18.83 13.68-13.33-18.91-2.74-.92-1.87a1 1 0 0 1 .45-1.34 1 1 0 0 1 1.34.46l.46.92 21.88 3.19-15.83 15.41z" fill="#183154"/><path d="m60.45 25.22a1 1 0 0 1 -.89-.55l-.37-.75a1 1 0 1 1 1.81-.92l.37.75a1 1 0 0 1 -.45 1.34 1 1 0 0 1 -.47.13z" fill="#183154"/><g fill="#fff" opacity=".15"><circle cx="51.95" cy="36.9" r="6.36"/><circle cx="44.63" cy="46.29" r="3.18"/></g><path d="m53.87 23.65a1.5 1.5 0 0 0 0-3 1.5 1.5 0 0 0 0 3z" fill="#fdfeff"/><path d="m48.94 34a21.85 21.85 0 0 1 2.83-6.65c.77-1.23-1.18-2.36-1.94-1.13a23.77 23.77 0 0 0 -3.06 7.18c-.32 1.41 1.84 2 2.17.6z" fill="#fdfeff"/><path d="m121.51 64a12.5 12.5 0 1 1 12.49-12.49 12.52 12.52 0 0 1 -12.49 12.49zm0-23a10.5 10.5 0 1 0 10.49 10.51 10.51 10.51 0 0 0 -10.49-10.51z" fill="#183154"/><path d="m188.56 116.27a1 1 0 0 1 -1-1v-6.2a1 1 0 0 1 2 0v6.2a1 1 0 0 1 -1 1z" fill="#183154"/><path d="m188.56 105.29a1 1 0 0 1 -1-1v-1.19a1 1 0 1 1 2 0v1.19a1 1 0 0 1 -1 1z" fill="#183154"/></svg>