<svg viewBox="0 0 495.83 382.82" xmlns="http://www.w3.org/2000/svg"><rect fill="#a9ea9c" height="146.19" rx="32.18" width="349.43" x="45.22" y="32.15"/><path d="m362.47 184.34h-285.07a38.22 38.22 0 0 1 -38.18-38.18v-81.83a38.22 38.22 0 0 1 38.18-38.18h285.07a38.22 38.22 0 0 1 38.18 38.18v81.83a38.22 38.22 0 0 1 -38.18 38.18zm-285.07-146.19a26.21 26.21 0 0 0 -26.18 26.18v81.83a26.21 26.21 0 0 0 26.18 26.18h285.07a26.21 26.21 0 0 0 26.18-26.18v-81.83a26.21 26.21 0 0 0 -26.18-26.18z" fill="#426572"/><rect fill="#a9ea9c" height="146.19" rx="32.18" width="349.43" x="72.56" y="6"/><path d="m422 47.81v11.89a38.25 38.25 0 0 0 -38.25-38.25h-272.95a38.25 38.25 0 0 0 -38.24 38.25v-11.89a38.25 38.25 0 0 1 38.24-38.24h272.94a38.25 38.25 0 0 1 38.26 38.24z" fill="#87d873"/><path d="m389.81 158.19h-285.07a38.22 38.22 0 0 1 -38.18-38.19v-81.82a38.22 38.22 0 0 1 38.18-38.18h285.07a38.22 38.22 0 0 1 38.19 38.18v81.82a38.22 38.22 0 0 1 -38.19 38.19zm-285.07-146.19a26.21 26.21 0 0 0 -26.18 26.18v81.82a26.21 26.21 0 0 0 26.18 26.18h285.07a26.21 26.21 0 0 0 26.19-26.18v-81.82a26.21 26.21 0 0 0 -26.19-26.18z" fill="#426572"/><rect fill="#a9ea9c" height="146.19" rx="32.18" width="349.43" x="45.22" y="39.28"/><path d="m394.65 82.28v11.89a38.25 38.25 0 0 0 -38.25-38.25h-272.93a38.25 38.25 0 0 0 -38.25 38.25v-11.89a38.25 38.25 0 0 1 38.25-38.28h272.93a38.25 38.25 0 0 1 38.25 38.28z" fill="#87d873"/><path d="m362.47 191.47h-285.07a38.22 38.22 0 0 1 -38.18-38.18v-81.83a38.22 38.22 0 0 1 38.18-38.18h285.07a38.22 38.22 0 0 1 38.18 38.18v81.83a38.22 38.22 0 0 1 -38.18 38.18zm-285.07-146.19a26.21 26.21 0 0 0 -26.18 26.18v81.83a26.21 26.21 0 0 0 26.18 26.18h285.07a26.21 26.21 0 0 0 26.18-26.18v-81.83a26.21 26.21 0 0 0 -26.18-26.18z" fill="#426572"/><rect fill="#f88e00" height="297.57" rx="44.83" width="436.44" x="6" y="74.93"/><path d="m442.44 293.34v33.06a49.41 49.41 0 0 1 -49.44 49.41h-337.59a49.41 49.41 0 0 1 -49.41-49.4v-33.07a49.41 49.41 0 0 0 49.41 49.41h337.59a49.41 49.41 0 0 0 49.44-49.41z" fill="#c96626"/><path d="m397.61 382.82h-346.78a50.89 50.89 0 0 1 -50.83-50.82v-207.92a50.89 50.89 0 0 1 50.83-50.83h346.78a50.89 50.89 0 0 1 50.83 50.83v207.92a50.89 50.89 0 0 1 -50.83 50.82zm-346.78-297.57a38.87 38.87 0 0 0 -38.83 38.83v207.92a38.87 38.87 0 0 0 38.83 38.83h346.78a38.87 38.87 0 0 0 38.83-38.83v-207.92a38.87 38.87 0 0 0 -38.83-38.83z" fill="#426572"/><path d="m392.11 352.39h-12v-7h12zm-24 0h-11.91v-7h11.93zm-23.86 0h-11.91v-7h11.93zm-23.86 0h-11.91v-7h11.93zm-23.86 0h-11.91v-7h11.93zm-23.86 0h-11.92v-7h11.93zm-23.86 0h-11.92v-7h11.93zm-23.86 0h-11.95v-7h12zm-23.86 0h-11.92v-7h11.93zm-23.86 0h-11.93v-7h11.93zm-23.86 0h-11.93v-7h11.93zm-23.86 0h-11.93v-7h11.93zm-23.86 0h-11.93v-7h11.93zm-23.86 0h-11.94v-7h11.94zm-24.09-.07a30.19 30.19 0 0 1 -12.82-3.8l3.42-6.11a23.24 23.24 0 0 0 9.87 2.93zm347.46-2.91-3-6.31a23.75 23.75 0 0 0 8.1-6.37l5.42 4.43a30.79 30.79 0 0 1 -10.53 8.26zm-370.24-9.8a30.19 30.19 0 0 1 -5.2-12.32l6.89-1.23a23.23 23.23 0 0 0 4 9.48zm386.71-10.41-6.8-1.68a23.6 23.6 0 0 0 .68-5.65v-5.37h7v5.38a30.62 30.62 0 0 1 -.88 7.32zm-385.39-14.43h-7v-11.93h7zm386.27-10.2h-7v-11.94h7zm-386.27-13.66h-7v-11.91h7zm386.27-10.2h-7v-11.94h7zm-386.27-13.71h-7v-11.89h7zm386.27-10.2h-7v-11.89h7zm-386.27-13.62h-7v-11.93h7zm386.28-10.18h-7v-12h7zm-386.28-13.68h-7v-11.93h7zm386.27-10.2h-7v-11.93h7zm-386.27-13.66h-7v-11.94h7zm386.27-10.2h-7v-11.94h7zm-386.27-13.67h-7v-11.93h7zm386.27-10.2h-7v-11.93h7zm-386.27-13.66h-7v-11.93h7zm386.27-10.2h-7v-7a23.72 23.72 0 0 0 -.38-4.23l6.87-1.3a30.85 30.85 0 0 1 .49 5.48zm-385.57-12.75-6.79-1.69a30.63 30.63 0 0 1 6-11.95l5.41 4.44a23.57 23.57 0 0 0 -4.62 9.2zm374.18-8a23.79 23.79 0 0 0 -7.69-6.86l3.41-6.12a30.84 30.84 0 0 1 10 8.89zm-361.45-7.55-3-6.32a30.28 30.28 0 0 1 13-2.95v7a23.34 23.34 0 0 0 -10 2.27zm343.88-2.23q-.77-.05-1.56-.05h-10.14v-7h10.15q1 0 2 .06zm-23.63 0h-11.92v-7h11.93zm-23.86 0h-11.94v-7h11.93zm-23.86 0h-11.94v-7h11.93zm-23.86 0h-11.94v-7h11.93zm-23.86 0h-11.94v-7h11.93zm-23.86 0h-11.95v-7h11.93zm-23.86 0h-11.95v-7h11.93zm-23.86 0h-11.95v-7h11.93zm-23.9 0h-11.91v-7h11.91zm-23.86 0h-11.92v-7h11.93zm-23.86 0h-11.92v-7h11.93zm-23.86 0h-11.92v-7h11.93zm-23.86 0h-11.92v-7h11.93z" fill="#426572"/><path d="m434.91 285.16-79.91 5.3a48.88 48.88 0 0 1 -9.15-.16 49.42 49.42 0 0 1 -43.36-49 49.41 49.41 0 0 1 49.41-49.41h68.71a49.41 49.41 0 0 1 49.39 49.37c0 27.29-7.8 43.9-35.09 43.9z" fill="#c96626"/><rect fill="#f88e00" height="98.82" rx="41.57" width="167.52" x="316.8" y="174.22"/><path d="m448.26 283.44h-84.38a47.62 47.62 0 0 1 -47.57-47.57v-15.67a47.62 47.62 0 0 1 47.57-47.57h84.38a47.62 47.62 0 0 1 47.57 47.57v15.67a47.62 47.62 0 0 1 -47.57 47.57zm-84.38-98.81a35.61 35.61 0 0 0 -35.57 35.57v15.67a35.61 35.61 0 0 0 35.57 35.57h84.38a35.61 35.61 0 0 0 35.57-35.57v-15.67a35.61 35.61 0 0 0 -35.57-35.57z" fill="#426572"/><g fill="#fff"><path d="m95.74 120.66c-12.65 0-25.47-.64-38.1 0-5.18.26-9.88 3.36-11.37 8.5-.81 2.79-.48 6-.48 8.9v21.26c0 3.86 6 3.87 6 0v-18.66c0-6-1.26-13.68 7-14 12.28-.46 24.67 0 37 0 3.86 0 3.87-6 0-6z"/><path d="m137.93 120.66h-26.74c-3.86 0-3.87 6 0 6h26.74c3.86 0 3.87-6 0-6z"/></g></svg>