<svg viewBox="0 0 63.19 63.39" xmlns="http://www.w3.org/2000/svg"><path d="m32.06 15.94a15.87 15.87 0 1 0 15.86 15.88 15.87 15.87 0 0 0 -15.86-15.88zm0 27.14a11.27 11.27 0 1 1 11.26-11.28 11.27 11.27 0 0 1 -11.26 11.28z" fill="#d9e1e4"/><path d="m45.9 55.24a6.39 6.39 0 0 0 -8.62 2.76 6.65 6.65 0 0 0 -.27.61 6.39 6.39 0 0 1 -12-.44 6.39 6.39 0 0 0 -8.01-4.17 6.62 6.62 0 0 0 -.62.24 6.4 6.4 0 0 1 -8.21-8.82 6.41 6.41 0 0 0 -2.73-8.64l-.58-.26a6.39 6.39 0 0 1 .43-12 6.4 6.4 0 0 0 4.19-8 5.17 5.17 0 0 0 -.26-.69 6.4 6.4 0 0 1 8.78-8.25 6.39 6.39 0 0 0 8.62-2.72 6.28 6.28 0 0 0 .27-.59 6.39 6.39 0 0 1 12 .43 6.41 6.41 0 0 0 8.11 4.17l.59-.22a6.39 6.39 0 0 1 8.21 8.82 6.38 6.38 0 0 0 2.71 8.61 4.66 4.66 0 0 0 .6.28 6.4 6.4 0 0 1 -.43 12 6.38 6.38 0 0 0 -4.18 8c.07.22.15.43.24.64a6.4 6.4 0 0 1 -8.79 8.25z" fill="#d9e1e4"/><path d="m38.13 3.69a6.37 6.37 0 0 0 -3.13-.78 6.28 6.28 0 0 0 -5.94 4 6.4 6.4 0 0 1 -8.3 3.59 6.28 6.28 0 0 1 -.59-.27 6.41 6.41 0 0 0 -8.62 2.77 6.31 6.31 0 0 0 -.72 2.92 6.54 6.54 0 0 0 .54 2.57 6.38 6.38 0 0 1 -3.3 8.38c-.21.09-.43.17-.64.24a6.28 6.28 0 0 0 -4.43 6.07 6.47 6.47 0 0 0 .77 3.07 6.39 6.39 0 0 1 1.17-11.67 6.43 6.43 0 0 0 4.47-6.12 7 7 0 0 0 -.86-2.46 5.83 5.83 0 0 1 -.21-2.62 6.42 6.42 0 0 1 9.37-5.63 6.48 6.48 0 0 0 2.93.73 6.44 6.44 0 0 0 6-4 6.39 6.39 0 0 1 11.52-.77z" fill="#fff"/><path d="m62.21 32.68a6.33 6.33 0 0 1 -4.47 6.12 6.37 6.37 0 0 0 -4 8.63 6.37 6.37 0 0 1 -8.74 8.21 6.41 6.41 0 0 0 -8.64 2.74 4.29 4.29 0 0 0 -.26.58 6.39 6.39 0 0 1 -12-.38c31.34-9.13 29.9-29.87 25.25-50.09a6.43 6.43 0 0 1 5.52 9.37 6.21 6.21 0 0 0 -.73 2.93 6.43 6.43 0 0 0 4 6 6.24 6.24 0 0 1 4.07 5.89z" fill="#94b5bf"/><circle cx="8.63" cy="13.6" fill="#3e3126" r=".69"/><circle cx="24.78" cy="6.92" fill="#3e3126" r=".69"/><circle cx="6.67" cy="38.31" fill="#3e3126" r=".69"/><circle cx="31.66" cy="31.67" fill="#94b5bf" r="15.87"/><path d="m31.66 48.17a16.5 16.5 0 1 1 16.49-16.51 16.53 16.53 0 0 1 -16.49 16.51zm0-31.73a15.24 15.24 0 1 0 15.23 15.25 15.25 15.25 0 0 0 -15.23-15.25z" fill="#3e3126"/><path d="m31.64 51a19.25 19.25 0 1 1 19.19-19.32v.07a19.25 19.25 0 0 1 -19.19 19.25zm0-37.13a17.89 17.89 0 1 0 17.83 18v-.06a17.88 17.88 0 0 0 -17.83-17.95z" fill="#94b5bf"/><path d="m31.66 47.58a15.87 15.87 0 1 1 15.87-15.87 15.9 15.9 0 0 1 -15.87 15.87zm0-30.1a14.24 14.24 0 1 0 14.23 14.25 14.25 14.25 0 0 0 -14.23-14.29z" fill="#3e3126" opacity=".3"/><circle cx="31.59" cy="31.47" fill="#fff" r="11.26"/><path d="m4.51 37.25h-.2a6.93 6.93 0 0 1 .47-13 5.87 5.87 0 0 0 3.82-7.37c-.06-.19-.13-.37-.2-.55a.53.53 0 0 1 .27-.7.51.51 0 0 1 .68.26 6.93 6.93 0 0 1 -3.6 9.11 5.78 5.78 0 0 1 -.65.25 5.87 5.87 0 0 0 -.4 11 .52.52 0 0 1 .28.68.54.54 0 0 1 -.47.32z" fill="#3e3126"/><path d="m30.78 63.39h-.26a6.84 6.84 0 0 1 -6.31-4.81 5.86 5.86 0 0 0 -7.31-3.91 5.17 5.17 0 0 0 -.69.26 6.93 6.93 0 0 1 -8.89-9.55 5.82 5.82 0 0 0 .34-4.62.54.54 0 0 1 .34-.68.53.53 0 0 1 .67.33 6.89 6.89 0 0 1 -.4 5.46 5.87 5.87 0 0 0 7.52 8.13 6.92 6.92 0 0 1 9.1 3.6 6.63 6.63 0 0 1 .25.67 5.74 5.74 0 0 0 5.38 4.1 5.84 5.84 0 0 0 5.67-3.7 6.91 6.91 0 0 1 9-3.89c.22.09.44.19.65.3a5.87 5.87 0 0 0 8.09-7.53 6.91 6.91 0 0 1 3.6-9.1 5.4 5.4 0 0 1 .67-.25 5.87 5.87 0 0 0 .4-11 6.93 6.93 0 0 1 -3.88-9 4.51 4.51 0 0 1 .29-.63 5.87 5.87 0 0 0 -7.53-8.09 6.94 6.94 0 0 1 -9.11-3.62c-.09-.22-.17-.43-.24-.65a5.87 5.87 0 0 0 -11-.4.54.54 0 0 1 -.7.3.53.53 0 0 1 -.3-.69 6.92 6.92 0 0 1 13 .47 5.86 5.86 0 0 0 7.27 3.74 5.71 5.71 0 0 0 .6-.21 6.93 6.93 0 0 1 8.87 9.58 5.88 5.88 0 0 0 2.5 7.93l.5.23a6.92 6.92 0 0 1 -.47 13 5.86 5.86 0 0 0 -3.84 7.34 5.77 5.77 0 0 0 .22.58 6.93 6.93 0 0 1 -9.55 8.89 5.85 5.85 0 0 0 -7.91 2.44 5.62 5.62 0 0 0 -.25.56 6.87 6.87 0 0 1 -6.29 4.42z" fill="#3e3126"/><path d="m8.75 11.78h-.19a.53.53 0 0 1 -.31-.67 7 7 0 0 1 4.11-4.11 6.71 6.71 0 0 1 5.64.4 5.94 5.94 0 0 0 4.36.43.5.5 0 0 1 .64.32.52.52 0 0 1 -.36.65 6.85 6.85 0 0 1 -5.14-.5 5.68 5.68 0 0 0 -4.77-.3 6.05 6.05 0 0 0 -3.52 3.42.56.56 0 0 1 -.46.36z" fill="#3e3126"/><g fill="#94b5bf"><ellipse cx="30.48" cy="56.69" rx="2.59" ry="2.19"/><circle cx="32.09" cy="52.81" opacity=".5" r=".83"/><circle cx="47.84" cy="13.83" opacity=".5" r=".83"/><circle cx="37.99" cy="53.44" r="1.79"/><circle cx="52.24" cy="24.23" r="1.79"/><circle cx="35.26" cy="52.77" opacity=".5" r=".5"/><circle cx="48.79" cy="15.72" opacity=".5" r=".5"/><circle cx="50.18" cy="21.2" opacity=".35" r=".5"/><circle cx="50.75" cy="18.15" r="1.73"/></g><path d="m31.66 43.38a11.71 11.71 0 1 1 9.34-4.62.44.44 0 0 1 -.62.08.45.45 0 0 1 -.1-.62 10.81 10.81 0 1 0 -2.53 2.4.45.45 0 0 1 .59.67l-.09.07a11.71 11.71 0 0 1 -6.59 2.02z" fill="#3e3126"/><path d="m7.55 33h-.13a.33.33 0 0 1 -.18-.43l1.76-4.29a.33.33 0 0 1 .43-.18.33.33 0 0 1 .18.44l-1.8 4.23a.33.33 0 0 1 -.26.23z" fill="#3e3126"/><path d="m9.93 30.9h-.12a.33.33 0 0 1 -.18-.43l1-2.27a.33.33 0 0 1 .43-.18.33.33 0 0 1 .18.44l-1 2.26a.35.35 0 0 1 -.31.18z" fill="#3e3126"/><path d="m31.66 51.16a19.49 19.49 0 1 1 19.48-19.5 19.52 19.52 0 0 1 -19.48 19.5zm0-38.08a18.6 18.6 0 1 0 18.55 18.65v-.06a18.61 18.61 0 0 0 -18.55-18.59z" fill="#3e3126"/></svg>