<svg viewBox="0 0 246.07 171.76" xmlns="http://www.w3.org/2000/svg"><g fill="#aaa"><circle cx="136.02" cy="92.38" opacity=".5" r="79.38"/><rect height="74.8" opacity=".12" rx="37.4" width="206.11" y="64.22"/><rect height="74.8" opacity=".12" rx="37.4" width="209.17" x="36.9" y="22.15"/></g><circle cx="67.24" cy="9.79" fill="#2bc3f7" r="3.77"/><circle cx="225.24" cy="104.79" fill="#2bc3f7" r="3.77"/><circle cx="68.28" cy="87.16" fill="#9fe791" r="3.77"/><circle cx="202.31" cy="3.83" fill="#9fe791" r="3.77"/><g fill="#32caf8" opacity=".15"><path d="m72 151.9-7.15 5.93a3 3 0 0 0 0 4.24 3.07 3.07 0 0 0 4.24 0l7.15-5.93a3 3 0 0 0 0-4.24 3.07 3.07 0 0 0 -4.24 0z"/><path d="m75.64 158.44-5.93-7.15a3 3 0 0 0 -4.24 0 3.07 3.07 0 0 0 0 4.24l5.93 7.15a3 3 0 0 0 4.24 0 3.07 3.07 0 0 0 0-4.24z"/></g><circle cx="128.02" cy="81.38" fill="#f3e492" r="79.38"/><path d="m143.62 161.41a79.38 79.38 0 1 1 -14.62-157.41q3.73 0 7.4.35a79.38 79.38 0 0 0 7.2 157.06z" fill="#d4b96e"/><path d="m201.24 80.38a79.37 79.37 0 0 0 -76.24-79.3c1-.08 2-.08 3-.08a79.38 79.38 0 0 1 0 158.76c-1 0-2.06 0-3.09-.08a79.37 79.37 0 0 0 76.33-79.3z" fill="#fff"/><path d="m58.88 120.39a79.39 79.39 0 0 1 119.29-100.55" fill="none" stroke="#2e576d" stroke-linecap="round" stroke-miterlimit="10" stroke-width="4"/><path d="m201 50a79.39 79.39 0 0 1 -125.89 90.56" fill="none" stroke="#2e576d" stroke-linecap="round" stroke-miterlimit="10" stroke-width="4"/><path d="m185.28 26.4a79.8 79.8 0 0 1 6.66 7.9" fill="none" stroke="#2e576d" stroke-linecap="round" stroke-miterlimit="10" stroke-width="4"/><path d="m125.56 127.86v-8.19a48.68 48.68 0 0 1 -27.56-12.22l8.19-9.76q9.42 8.19 19.4 9.76v-21.75q-12.68-3-18.56-8t-5.92-14.6a20.46 20.46 0 0 1 6.78-15.87q6.79-6.17 17.67-6.73v-5.61h7.17v5.72a46.85 46.85 0 0 1 23.33 8.39l-7.29 10.32a36.15 36.15 0 0 0 -16-6.51v21.11h.34q12.89 3.08 18.89 8.19t6.06 15a20.37 20.37 0 0 1 -7 16q-7 6.17-18.39 6.73v8.07zm-7.91-72.39a8 8 0 0 0 -2.86 6.28 7.91 7.91 0 0 0 2.21 5.95q2.23 2.19 8.52 4.21v-19.41a13.44 13.44 0 0 0 -7.88 2.97zm23.61 49.18a8.66 8.66 0 0 0 .68-12.73q-2.48-2.3-9.2-4.32v20.19a15.7 15.7 0 0 0 8.52-3.14z" fill="#fff"/><path d="m194.33 105-66.31-17.89 17.89 66.31 13.1-22.01 19.72 19.72 13.31-13.31-19.71-19.72z" fill="#c0e6ff"/><path d="m153.05 140.74-7.46 12.52-6.97-25.8z" fill="#a9d5ed"/><path d="m186.77 109.5 7.56-4.5-66.31-17.89 1.91 7.05z" fill="#fff"/><path d="m194.33 105-66.31-17.89 17.89 66.31 13.1-22.01 19.72 19.72 13.31-13.31-19.71-19.72z" fill="none" stroke="#2e576d" stroke-linecap="round" stroke-miterlimit="10" stroke-width="4"/></svg>