<svg viewBox="0 0 1286.04 813.04" xmlns="http://www.w3.org/2000/svg" xmlns:xlink="http://www.w3.org/1999/xlink"><linearGradient id="a" gradientUnits="userSpaceOnUse" x1="1.32" x2="1254.6" y1="441.3" y2="441.3"><stop offset="0" stop-color="#c5e9fa"/><stop offset="1" stop-color="#c4f4ea"/></linearGradient><path d="m1218.18 519.57c-45.45 117.68-130.9 220.78-249.59 266.09a431.14 431.14 0 0 1 -47.21 14.95c-84.68 21.59-177.32 14.08-255.38-25.26-33.13-16.71-63.34-38.79-96.59-55.26s-71.22-27.25-107.41-19.09c-31.16 7-57.45 27.06-83.92 44.93-62.4 42.13-137.43 75.47-211.32 61-34-6.65-67.48-25.07-83.27-55.86-34.9-68.07 30.92-149 17.59-224.28-8.54-48.21-47.51-84.29-71.73-126.79-41.44-72.73-36.53-169.34 12.06-237.5s138.33-104.31 220.59-88.85c100.31 18.86 176.15 103.75 273.69 133.79 61 18.77 127.23 13.17 185.49-11.55 94.13-39.95 223.45-101.22 329.38-91.24 56.33 5.31 111.58 30.31 148.76 73 47 53.89 61.09 130.4 53.25 201.46a563.35 563.35 0 0 1 -34.39 140.46z" fill="url(#a)"/><path d="m1248.42 612.65a26.3 26.3 0 0 1 -6.2-.75 25.94 25.94 0 1 1 6.2.75zm0-40.18a14.09 14.09 0 0 0 -3.32 27.77 14.08 14.08 0 1 0 3.32-27.77z" fill="#e7f6ff"/><circle cx="1213.76" cy="637.51" fill="#e7f6ff" r="11.33" transform="matrix(.235651 -.97183775 .97183775 .235651 308.16 1666.84)"/><path d="m55.19 610.18a26.09 26.09 0 1 1 1.14 0zm0-40.17h-.59a14.09 14.09 0 1 0 .61 0z" fill="#e7f6ff"/><circle cx="36.08" cy="642.65" fill="#e7f6ff" r="11.33" transform="matrix(.99907092 -.04309628 .04309628 .99907092 -27.64 2.15)"/><path d="m709.08 188.38a26.06 26.06 0 1 1 14.92-4.72 26.07 26.07 0 0 1 -14.92 4.72zm-.08-40.17a14.14 14.14 0 1 0 2.47.22 14.17 14.17 0 0 0 -2.47-.22z" fill="#e7f6ff"/><circle cx="649.4" cy="177.7" fill="#e7f6ff" r="11.33" transform="matrix(.81875141 -.57414817 .57414817 .81875141 15.66 405.03)"/><path d="m713.36 175.25h44.48v44.48h-44.48z" fill="none"/><path d="m713.36 175.25h44.48v44.48h-44.48z" fill="none"/><path d="m1286 322.77a41.46 41.46 0 0 0 -41.46-41.46c-.92 0-1.83 0-2.73.09.06-.9.09-1.81.09-2.73a41.46 41.46 0 1 0 -81.56 10.54 41.46 41.46 0 1 0 -32.61 74.19 41.46 41.46 0 0 0 68.84 13.94 41.46 41.46 0 0 0 62.66-15.8 41.47 41.47 0 0 0 26.77-38.77z" fill="#fff"/><path d="m191.45 223.07a41.46 41.46 0 0 0 -41.45-41.46c-.92 0-1.83 0-2.73.09.06-.9.09-1.81.09-2.73a41.46 41.46 0 1 0 -81.56 10.54 41.46 41.46 0 1 0 -32.62 74.19 41.46 41.46 0 0 0 68.82 13.94 41.46 41.46 0 0 0 62.66-15.8 41.47 41.47 0 0 0 26.79-38.77z" fill="#fff"/><path d="m954.18 813h-596.5v-13h596.5a6.5 6.5 0 0 1 0 13z" fill="#426572"/><path d="m331 813h-36.47a6.5 6.5 0 0 1 0-13h36.47a6.5 6.5 0 1 1 0 13z" fill="#426572"/><path d="m270.86 813h-11.62a6.5 6.5 0 0 1 0-13h11.62a6.5 6.5 0 0 1 0 13z" fill="#426572"/><path d="m1163.34 813h-183.34v-13h183.34a6.5 6.5 0 0 1 0 13z" fill="#426572"/><path d="m226 813h-183.35v-13h183.35a6.5 6.5 0 1 1 0 13z" fill="#426572"/><path d="m291 61.85a23.12 23.12 0 1 1 23.12-23.12 23.15 23.15 0 0 1 -23.12 23.12zm0-34.25a11.12 11.12 0 1 0 11.12 11.13 11.14 11.14 0 0 0 -11.12-11.13z" fill="#e7f6ff"/><circle cx="340.16" cy="57.17" fill="#e7f6ff" r="9.66"/><rect fill="#ebf0f9" height="578.68" rx="12" width="468.45" x="429.85" y="200.93"/><path d="m480.27 561.42v21.22c-6.14 19.53-15.79 42.36-28.46 67.56-5.21 10-10.8 20.55-16.77 31.39 4.08-6.88 8-13.76 11.8-20.53-4.42 8.39-9.1 17.09-14 25.95v-33q.74-1.38 1.47-2.76c-.49.87-1 1.74-1.47 2.61v-1.22q3.31-6.24 6.43-12.25c13.76-27.36 24-51.94 30-72.52 3.68-2.05 7.36-4.22 11-6.45z" fill="#bbd2e5" opacity=".5"/><path d="m478.18 459.28h376.16v247.05h-376.16z" fill="#87d6fe"/><g fill="#37b5ff" opacity=".5"><path d="m682.27 459.29-77.43 247.04h-35.12l77.43-247.04z"/><path d="m759.55 459.29-77.44 247.04h-64.85l77.43-247.04z"/></g><path d="m900.39 222.08v209c-.24-.19-.47-.39-.7-.59a43.69 43.69 0 0 1 -4-3.94c-.24-.26-.47-.52-.7-.78v2.16a44.15 44.15 0 0 1 -13.17-20.93 43.41 43.41 0 0 1 -1.67-12 44.1 44.1 0 0 1 -44 44 43.69 43.69 0 0 1 -24.84-7.75q-1.36-1.09-2.62-2.3c.5.53 1 1 1.56 1.54a44 44 0 0 1 -18.05-35.45 44.1 44.1 0 0 1 -44 44 44.09 44.09 0 0 1 -44-44 43.48 43.48 0 0 1 -1 9.15c-.24-1-.45-2.08-.6-3.14a43.56 43.56 0 0 1 -6.53 19.33v.07a43.82 43.82 0 0 1 -55.92 13.66 44.35 44.35 0 0 1 -23-30.31 43.71 43.71 0 0 1 -.89-8.76 43.71 43.71 0 0 1 -.89 8.76 44 44 0 0 1 -78.9 16.64v-.07a43.59 43.59 0 0 1 -6.7-23.25 43.82 43.82 0 0 1 -.51 6.66 43.71 43.71 0 0 1 -.89-8.76 43.56 43.56 0 0 1 -.31 5.16 44.12 44.12 0 0 1 -43.6 38.82 43.58 43.58 0 0 1 -20.1-4.89 44.54 44.54 0 0 1 -15.72-13.66v-.07a43.48 43.48 0 0 1 -6-15.46c-.13.7-.27 1.4-.43 2.08a43.41 43.41 0 0 1 -1.67-12 43.64 43.64 0 0 1 -8.54 26l-.7.93a41.7 41.7 0 0 1 -4 4.49v-202c1.55-.57 3.12-1.09 4.72-1.56l1.53-.44c2.07-.59 4.18-1.1 6.32-1.53v-1.17h87.93v19h4.19v-18.11h-2.09v-.84h85.1v14.8h.7v-14.8h86.5v19h5.58v-18.16h-3.49v-.84h173.77v1.17l2.09.45v17.36h4.19v-16.3a84.86 84.86 0 0 1 10.66 3.74l.7.3c1.36.59 2.7 1.21 4 1.88v-.22a8.39 8.39 0 0 0 -4-7.15h-.06.06c1.57.3 3.14.66 4.69 1.08z" fill="#bbd2e5"/><path d="m886.47 783h-444.47a18 18 0 0 1 -18-18v-554.72a18 18 0 0 1 18-18h444.47a18 18 0 0 1 18 18v293h-12v-293a6 6 0 0 0 -6-6h-444.47a6 6 0 0 0 -6 6v554.72a6 6 0 0 0 6 6h444.47a6 6 0 0 0 6-6v-138.75h12v138.75a18 18 0 0 1 -18 18z" fill="#426572"/><path d="m887.83 200.37h4.89a83 83 0 0 1 83 83v97.35a41.52 41.52 0 0 1 -41.52 41.52h-4.89a41.52 41.52 0 0 1 -41.52-41.52v-180.35a0 0 0 0 1 .04 0z" fill="#fff"/><path d="m445.38 200.37h87.93a0 0 0 0 1 0 0v180.4a41.52 41.52 0 0 1 -41.52 41.52h-4.89a41.52 41.52 0 0 1 -41.52-41.52v-180.4a0 0 0 0 1 0 0z" fill="#ef4f43"/><path d="m618.45 200.37h87.93a0 0 0 0 1 0 0v180.4a41.52 41.52 0 0 1 -41.52 41.52h-4.86a41.52 41.52 0 0 1 -41.52-41.52v-180.4a0 0 0 0 1 0 0z" fill="#e8837e"/><path d="m798.5 200.37h87.93a0 0 0 0 1 0 0v180.4a41.52 41.52 0 0 1 -41.52 41.52h-4.91a41.52 41.52 0 0 1 -41.52-41.52v-180.4a0 0 0 0 1 .02 0z" fill="#e8837e"/><path d="m441.89 200.37h4.89a0 0 0 0 1 0 0v180.4a41.52 41.52 0 0 1 -41.52 41.52h-4.89a41.52 41.52 0 0 1 -41.52-41.52v-97.35a83 83 0 0 1 83.04-83.05z" fill="#fff"/><path d="m372.8 288.3v90a44.13 44.13 0 0 0 35.2 43.12 43.3 43.3 0 0 1 -8.72.88 44.1 44.1 0 0 1 -44-44v-90a87.93 87.93 0 0 1 87.93-87.93v1.73a88 88 0 0 0 -70.41 86.2z" fill="#d9e2ef" opacity=".5"/><path d="m952 288.3v90a44.13 44.13 0 0 1 -35.24 43.09 43.3 43.3 0 0 0 8.72.88 44.1 44.1 0 0 0 44-44v-90a87.93 87.93 0 0 0 -87.93-87.93v1.73a88 88 0 0 1 70.45 86.23z" fill="#d9e2ef" opacity=".5"/><path d="m464.22 219.91v178a43.47 43.47 0 0 0 4.6 19.51 44 44 0 0 1 -21.35-37.65v-178h87.93v18.14z" fill="#dd3e3a"/><path d="m640.08 219.91v178a43.47 43.47 0 0 0 4.6 19.51 44 44 0 0 1 -21.35-37.65v-178h87.93v18.14z" fill="#d66765"/><path d="m816.65 219.91v178a43.47 43.47 0 0 0 4.6 19.51 44 44 0 0 1 -21.35-37.65v-178h87.93v18.14z" fill="#d66765"/><path d="m533.31 200.37h87.93a0 0 0 0 1 0 0v180.4a41.52 41.52 0 0 1 -41.52 41.52h-4.89a41.52 41.52 0 0 1 -41.52-41.52v-180.4a0 0 0 0 1 0 0z" fill="#fff"/><path d="m548 215.72v178a43.47 43.47 0 0 0 4.6 19.51 44 44 0 0 1 -21.35-37.65v-178h87.93v18.14z" fill="#d9e2ef" opacity=".5"/><path d="m707.78 200.37h87.93a0 0 0 0 1 0 0v180.4a41.52 41.52 0 0 1 -41.52 41.52h-4.89a41.52 41.52 0 0 1 -41.52-41.52v-180.4a0 0 0 0 1 0 0z" fill="#fff"/><path d="m722.43 215.72v178a43.47 43.47 0 0 0 4.6 19.51 44 44 0 0 1 -21.35-37.65v-178h87.93v18.14z" fill="#d9e2ef" opacity=".5"/><g fill="#426572"><path d="m402.46 426.2h-4.89a47.58 47.58 0 0 1 -47.57-47.52v-97.35a89.15 89.15 0 0 1 89-89h11v186.4a47.58 47.58 0 0 1 -47.54 47.47zm35.54-221.91a77.14 77.14 0 0 0 -75.93 77v97.35a35.56 35.56 0 0 0 35.52 35.52h4.89a35.56 35.56 0 0 0 35.52-35.48z"/><path d="m490.39 426.2h-4.89a47.58 47.58 0 0 1 -47.5-47.52v-186.4h99.93v186.4a47.58 47.58 0 0 1 -47.54 47.52zm-40.39-221.92v174.4a35.56 35.56 0 0 0 35.5 35.52h4.89a35.56 35.56 0 0 0 35.52-35.52v-174.4z"/><path d="m578.32 426.2h-4.89a47.58 47.58 0 0 1 -47.52-47.52v-186.4h99.93v186.4a47.58 47.58 0 0 1 -47.52 47.52zm-40.41-221.92v174.4a35.56 35.56 0 0 0 35.52 35.52h4.89a35.56 35.56 0 0 0 35.52-35.52v-174.4z"/><path d="m666.26 426.2h-4.89a47.58 47.58 0 0 1 -47.52-47.52v-186.4h99.93v186.4a47.58 47.58 0 0 1 -47.52 47.52zm-40.41-221.92v174.4a35.56 35.56 0 0 0 35.52 35.52h4.89a35.56 35.56 0 0 0 35.52-35.52v-174.4z"/><path d="m754.19 426.2h-4.89a47.58 47.58 0 0 1 -47.52-47.52v-186.4h99.93v186.4a47.58 47.58 0 0 1 -47.52 47.52zm-40.41-221.92v174.4a35.56 35.56 0 0 0 35.52 35.52h4.89a35.56 35.56 0 0 0 35.52-35.52v-174.4z"/><path d="m842.12 426.2h-4.89a47.58 47.58 0 0 1 -47.52-47.52v-186.4h99.93v186.4a47.58 47.58 0 0 1 -47.52 47.52zm-40.41-221.92v174.4a35.56 35.56 0 0 0 35.52 35.52h4.89a35.56 35.56 0 0 0 35.52-35.52v-174.4z"/><path d="m930.05 426.2h-4.89a47.58 47.58 0 0 1 -47.52-47.52v-186.4h10.89a89.15 89.15 0 0 1 89 89v97.35a47.58 47.58 0 0 1 -47.48 47.57zm-40.4-221.91v174.39a35.56 35.56 0 0 0 35.52 35.52h4.89a35.56 35.56 0 0 0 35.52-35.52v-97.35a77.14 77.14 0 0 0 -75.93-77.04z"/></g><path d="m509.12 242.24v39.76c0 3.86 6 3.87 6 0v-39.76c0-3.86-6-3.87-6 0z" fill="#fff"/><path d="m509.12 294.59v16.05c0 3.86 6 3.87 6 0v-16.05c0-3.86-6-3.87-6 0z" fill="#fff"/><rect fill="#dee6f1" height="37.69" rx="17.8" width="514.28" x="409.09" y="764.96"/><path d="m421.45 767.75h491.87a11.2 11.2 0 0 1 11.2 11.2v.66a0 0 0 0 1 0 0h-514.28a0 0 0 0 1 0 0v-.61a11.2 11.2 0 0 1 11.2-11.2z" fill="#a7bcd5"/><path d="m907 809.34h-478.66a23.82 23.82 0 0 1 -23.8-23.8v-2.09a23.82 23.82 0 0 1 23.8-23.8h478.66a23.82 23.82 0 0 1 23.8 23.8v2.09a23.82 23.82 0 0 1 -23.8 23.8zm-478.66-37.69a11.81 11.81 0 0 0 -11.8 11.8v2.09a11.81 11.81 0 0 0 11.8 11.8h478.66a11.81 11.81 0 0 0 11.8-11.8v-2.09a11.81 11.81 0 0 0 -11.8-11.8z" fill="#426572"/><path d="m859.64 711.64h-388.16v-259h388.16zm-376.16-12h364.16v-235h-364.16z" fill="#426572"/><path d="m416.42 15.36c-162.24-.36-263.3 101.74-263.65 262.51-.11 49.68 26 127.2 71.14 220.84 20.38 39.51 45.09 83.4 71.35 127.29 32 54.13 67 108.29 102 158.05l17.48 23.44c5.86-7.31 11.72-14.61 17.59-23.36 35.2-51.07 70.38-103.61 102.64-157.61 26.42-43.8 49.89-87.58 70.43-127 47-93.44 73.45-170.84 73.56-220.52.3-156.38-104.69-263.3-262.54-263.64zm-.91 423.83c-96.51-.19-175.22-79.28-175.01-175.76s79.3-175.21 175.76-175 175.21 79.3 175 175.76-79.26 175.21-175.76 175z" fill="#070707" opacity=".1"/><path d="m570.81 252.32c-.21 96.49-79.31 175.22-175.77 175-83.54-.18-153.81-59.52-171-138.11a174.31 174.31 0 0 1 -2.62-30.58c.21-96.45 79.31-175.21 175.76-175 83.42.18 153.6 59.37 170.92 137.74a.4.4 0 0 0 0 .13 174.18 174.18 0 0 1 2.71 30.82z" fill="#fff"/><path d="m397.7 5.7c-162.23-.35-263.3 101.74-263.64 262.51-.11 49.68 26 127.2 71.14 220.84 20.37 39.52 45.12 83.41 71.34 127.32 32 54.13 67 108.29 102 158.05l17.46 23.43c5.86-7.31 11.72-14.61 17.59-23.36 35.2-51.07 70.38-103.61 102.64-157.61 26.42-43.8 49.89-87.58 70.43-127 47-93.44 73.45-170.84 73.56-220.52.33-156.36-104.67-263.36-262.52-263.66zm-.91 423.83c-96.46-.21-175.21-79.28-175-175.76s79.3-175.21 175.76-175 175.21 79.3 175 175.76-79.3 175.21-175.76 175z" fill="#e8837e"/><path d="m576.54 513.19c-18 34.21-38.16 71-60.37 107.82-32.25 54-67.44 106.53-102.63 157.6-5.86 8.76-11.72 16-17.6 23.37l-17.48-23.44c-35-49.76-69.93-103.92-102-158-26.24-43.92-51-87.81-71.35-127.32-45.11-93.68-71.21-171.22-71.11-220.89.14-66.34 17.44-122.67 49.11-166-12.53 32.67-19.18 69.87-19.27 110.88-.11 49.68 26 127.21 71.14 220.84 20.38 39.51 45.12 83.4 71.35 127.32 32 54.12 67 108.28 102 158l17.48 23.44c5.87-7.32 11.73-14.61 17.6-23.37 35.19-51.06 70.38-103.61 102.63-157.6 10.63-17.61 20.79-35.28 30.5-52.65z" fill="#d66765"/><path d="m395.75 810.59-23-30.85c-35-49.78-70.36-104.59-102.26-158.51-27.35-45.78-52.09-89.94-71.54-127.67l-.08-.17c-47.79-99.16-71.96-174.49-71.87-223.89.17-80.95 25.47-148.93 73.17-196.61s115.7-72.89 196.66-72.89h.84c39.66.08 76.73 6.76 110.19 19.83a241.6 241.6 0 0 1 140.14 141.17c12.79 33.39 19.23 70.27 19.14 109.64-.11 49.85-25.8 127.19-74.3 223.65v.09c-18.28 35.09-42.83 81.28-70.65 127.39-34.49 57.72-71.37 112.23-102.89 157.99-5.9 8.81-11.87 16.26-17.65 23.47zm-11.62-39 12 16.08c3.91-5 7.73-10 11.59-15.79 31.45-45.63 68.17-99.93 102.45-157.3 27.62-45.79 52-91.71 70.21-126.61 47.51-94.5 72.68-169.66 72.78-217.35.16-75-24-139.12-69.9-185.39-46.06-46.44-110.26-71.07-185.62-71.23h-.81c-77.17 0-141.73 23.78-186.75 68.79s-68.9 109.57-69.08 186.73c-.1 46.6 24.25 121.88 70.41 217.7 19.32 37.46 43.9 81.32 71.09 126.85 31.73 53.61 66.86 108.08 101.64 157.54zm13-333.78h-.4a182.17 182.17 0 0 1 -128.15-311.46 181.1 181.1 0 0 1 128.53-53.29h.4a182.18 182.18 0 0 1 128.15 311.48 181.09 181.09 0 0 1 -128.53 53.29zm-.37-14h.37a168.38 168.38 0 0 0 .36-336.77h-.37a168.38 168.38 0 0 0 -.36 336.77z" fill="#426572"/><path d="m552.08 94c34.91 32.41 59.08 74.3 68.73 121.05a259.15 259.15 0 0 1 5.06 52.23c0 7.72 12 7.73 12 0-.06-56.28-17.08-110.73-52.31-154.92a245.8 245.8 0 0 0 -25-26.85c-5.65-5.25-14.16 3.22-8.49 8.49z" fill="#fff"/><path d="m489.25 52 .7.29c-1.92-.77 1 .45 1.44.65 2.93 1.33 5.81 2.76 8.66 4.24a247 247 0 0 1 28.36 17.5c6.31 4.47 12.32-5.93 6.06-10.36-13.07-9.26-27.07-18-42-23.89-7.18-2.84-10.3 8.76-3.19 11.57z" fill="#fff"/><path d="m635.37 458.44h12v248.96h-12z" fill="#426572"/><path d="m538.3 576.92h315.57v12h-315.57z" fill="#426572"/><path d="m533.54 586.43h320.32v12h-320.32z" fill="#426572" opacity=".3"/><path d="m643.3 458.44h12v248.96h-12z" fill="#426572" opacity=".3"/><path d="m892.46 590.42h12v22.5h-12z" fill="#426572"/><path d="m892.46 515.25h12v60.66h-12z" fill="#426572"/></svg>