<svg viewBox="0 0 253.93 379.67" xmlns="http://www.w3.org/2000/svg"><path d="m78.58 35.28a13.81 13.81 0 1 1 13.81-13.81 13.82 13.82 0 0 1 -13.81 13.81zm0-15.62a1.81 1.81 0 1 0 1.81 1.81 1.81 1.81 0 0 0 -1.81-1.81z" fill="#e7f6ff"/><circle cx="101.01" cy="29.88" fill="#e7f6ff" r="4.4"/><path d="m164.9 259.82v9.68a213 213 0 0 1 -13 30.81c-2.37 4.56-4.92 9.37-7.65 14.31 1.86-3.14 3.66-6.27 5.38-9.36-2 3.83-4.15 7.79-6.4 11.83v-15l.67-1.26-.67 1.19v-.56q1.51-2.85 2.93-5.59c6.27-12.48 10.92-23.68 13.67-33.07 1.73-.97 3.41-1.96 5.07-2.98z" fill="#bbd2e5" opacity=".5"/><path d="m206.54 119.23a80 80 0 0 1 -158.12 16.83 80 80 0 0 1 79-93.75 80.31 80.31 0 0 1 77.94 62.81.18.18 0 0 0 0 .06 79.43 79.43 0 0 1 1.18 14.05z" fill="#fff"/><path d="m127.24 6.41c-73.98-.16-120.06 46.39-120.24 119.71 0 22.66 11.87 58 32.44 100.7 9.29 18 20.57 38 32.53 58.06 14.61 24.69 30.54 49.38 46.5 72.07l8 10.69c2.67-3.33 5.35-6.66 8-10.65 16.05-23.29 32.09-47.25 46.81-71.87 12-20 22.75-39.94 32.12-57.92 21.42-42.61 33.49-77.91 33.54-100.56.16-71.32-47.72-120.08-119.7-120.23zm-.42 193.27a80 80 0 1 1 80.18-79.81 80.21 80.21 0 0 1 -80.17 79.81z" fill="#f3aa9f"/><path d="m208.79 237.83c-8.23 15.6-17.4 32.38-27.53 49.17-14.71 24.62-30.75 48.58-46.8 71.87-2.67 4-5.35 7.32-8 10.66l-8-10.69c-15.94-22.7-31.88-47.4-46.46-72.08-12-20-23.25-40-32.54-58.06-20.59-42.7-32.51-78.05-32.46-100.7.07-30.25 8-55.94 22.39-75.68-5.72 14.89-8.75 31.84-8.79 50.54 0 22.66 11.87 58 32.44 100.71 9.29 18 20.57 38 32.54 58.06 14.6 24.68 30.54 49.38 46.49 72.07l8 10.69c2.68-3.34 5.35-6.66 8-10.66 16-23.29 32.09-47.25 46.8-71.87 4.86-8.06 9.5-16.11 13.92-24.03z" fill="#e1978f"/><path d="m126.25 379.67-13.5-18.1c-16.02-22.78-32.2-47.86-46.75-72.57-12.5-20.93-23.82-41.14-32.73-58.41l-.08-.17c-22.09-45.71-33.19-80.62-33.19-103.73.08-37.94 12-69.87 34.48-92.34s54.42-34.35 92.37-34.35h.39c37.14.08 68.91 12.35 91.86 35.5s34.9 54.78 34.83 91.74c-.06 29.47-18.68 72.65-34.29 103.69v.09c-8.36 16.05-19.6 37.19-32.33 58.3-15.77 26.39-32.63 51.32-47 72.23-2.75 4.1-5.52 7.56-8.2 10.91zm-2.11-26.23 2.42 3.24c.7-1 1.4-2 2.09-3 14.34-20.8 31-45.5 46.61-71.57 12.54-20.79 23.63-41.65 31.89-57.52 21.39-42.56 32.73-76.23 32.77-97.39.08-33.2-10.56-61.47-30.76-81.84s-48.61-31.29-81.95-31.36h-.36c-69.47 0-112.7 43.16-112.85 112.72 0 20.67 10.92 54.4 31.71 97.56 8.77 17 19.93 36.92 32.28 57.59 14.41 24.37 30.36 49.13 46.15 71.56zm2.86-146.17h-.19a87 87 0 0 1 .18-174h.19a86.88 86.88 0 0 1 61.11 148.54 86.37 86.37 0 0 1 -61.29 25.46zm0-160a73 73 0 0 0 -.16 146h.16a73 73 0 0 0 .16-146z" fill="#426572"/><path d="m223.52 80a97.92 97.92 0 0 1 5.34 17.44c.26 1.37.46 2.73.67 4s.44 2.57.51 3.81c.19 2.48.43 4.77.44 6.88s0 4-.1 5.67-.33 3.1-.51 4.26c-.4 2.33-.87 3.6-1.4 3.6s-1.07-1.27-1.58-3.52c-.27-1.13-.48-2.5-.78-4.09s-.68-3.38-1-5.36-.89-4.11-1.33-6.42c-.2-1.16-.57-2.32-.85-3.53s-.59-2.46-.93-3.73a148.62 148.62 0 0 0 -5.54-16.01 137.13 137.13 0 0 0 -7.65-15.17c-2.62-4.55-5.37-8.41-7.65-11.72-4.69-6.51-7.88-10.51-7.12-11.33s5.23 1.89 11.25 7.82a83 83 0 0 1 9.46 11.4 93.46 93.46 0 0 1 8.77 16z" fill="#fff"/><path d="m175.62 26.4c5.32 3.08 8.3 7.43 7.06 9.11s-6 .35-10.9-2.48-8.36-6.18-7.61-8.13 6.15-1.6 11.45 1.5z" fill="#fff"/><path d="m155.38 117.5a21.19 21.19 0 0 0 -7.23-3.15s3.6-2.09 5.07-4.17a15.84 15.84 0 0 0 2.33-7c.12-1.68.41-8.71-5.07-12.75-4.24-3.13-9.09-4.37-15.61-4.78v-14.17h-8.75v14h-6.66v-14h-8.75v14h-17.21v9.08h5.06c1.38 0 3.83.15 4.87 1.32s1.23 1.78 1.23 4 0 35.33 0 36.19a3.54 3.54 0 0 1 -.9 2.62c-.73.7-1.47.86-3.23.86h-5.23l-1.8 10.5h17.21v14h8.75v-14h6.66v14h8.75v-14.17c2.26-.13 4.37-.3 5.6-.46a29.09 29.09 0 0 0 13.41-4.66c5.27-3.68 6.46-9.44 6.58-15.24s-2.1-9.77-5.08-12.02zm-35.93-22.11s2.78-.24 5.52-.2a27.83 27.83 0 0 1 8.75 1.23c3.6 1.1 5.72 3.8 5.8 7a6.85 6.85 0 0 1 -3.76 6.66 21.31 21.31 0 0 1 -9 2.21c-3.19.12-7.27 0-7.27 0zm19.55 41.81c-2 1.1-6 2.08-9.89 2.37s-9.69.16-9.69.16v-18.73s5.56-.29 9.89 0a28 28 0 0 1 9.6 2.21 7.35 7.35 0 0 1 4.5 6.91c.03 4.26-2.41 5.98-4.41 7.08z" fill="#426572"/></svg>