<svg viewBox="0 0 331.35 314.96" xmlns="http://www.w3.org/2000/svg"><rect fill="#a9ea9c" height="302.96" rx="12" width="319.35" x="6" y="6"/><path d="m319.94 271.78v21.37a11 11 0 0 1 -10.83 11.15h-297.7a11 11 0 0 1 -10.82-11.14v-21.38a11 11 0 0 0 10.83 11.15h297.7a11 11 0 0 0 10.82-11.15z" fill="#91cd86"/><path d="m153.42 33.31 74.24-.08c3.86 0 3.87-6 0-6l-74.24.08c-3.86 0-3.87 6 0 6z" fill="#fff"/><path d="m247 33.57 54.87-.06c3.86 0 3.87-6 0-6l-54.87.06c-3.86 0-3.87 6 0 6z" fill="#fff"/><g fill="#1d6855"><path d="m313.35 315h-295.35a18 18 0 0 1 -18-18v-279a18 18 0 0 1 18-18h295.35a18 18 0 0 1 18 18v279a18 18 0 0 1 -18 18zm-295.35-303a6 6 0 0 0 -6 6v279a6 6 0 0 0 6 6h295.35a6 6 0 0 0 6-6v-279a6 6 0 0 0 -6-6z"/><path d="m108.16 136.42c.27-14.61-7.71-24.52-25.21-31.51-12.8-5.57-18.33-8.34-18.21-15 .09-4.87 4.91-9.65 14.8-9.45a43 43 0 0 1 20.54 5.28l5.51-18.5c-5.1-3-12.46-5.19-22.68-5.71l.33-17.78-17.24-.31-.37 19.71c-14.81 4-23.5 14.86-23.76 28.54-.28 15.06 10.29 24.57 26.94 31.1 12 4.23 16.62 8.3 16.5 14.5-.13 7.09-5.8 11.4-16.12 11.2a57.79 57.79 0 0 1 -24.82-6.7l-5.47 18.95c5 2.89 14.5 5.87 24.82 6.6l-.33 17.81 17.19.34.08-4.43.28-14.71c18.15-3.71 26.96-15.85 27.22-29.93z"/><path d="m280.33 208a27.59 27.59 0 0 0 -9.57-4.29s4.76-2.84 6.7-5.68a22 22 0 0 0 3.08-9.53c.16-2.28.54-11.87-6.71-17.38-5.61-4.27-12-6-20.66-6.51v-19.32h-11.56v19.11h-8.81v-19.11h-11.58v19.11h-22.76v12.38h6.69c1.82 0 5.07.21 6.45 1.8s1.62 2.42 1.62 5.51 0 48.16 0 49.33a4.92 4.92 0 0 1 -1.22 3.58c-1 .95-1.95 1.17-4.27 1.17h-6.92l-2.38 14.32h22.77v19.05h11.57v-19.08h8.81v19.05h11.57v-19.36c3-.18 5.78-.41 7.41-.63 3.3-.44 10.76-1.34 17.74-6.35s8.54-12.87 8.7-20.78-2.73-13.32-6.67-16.39zm-47.53-30.14s3.68-.33 7.3-.28a35.81 35.81 0 0 1 11.57 1.67c4.76 1.5 7.57 5.18 7.68 9.53a9.39 9.39 0 0 1 -5 9.08 27.53 27.53 0 0 1 -11.95 3c-4.22.17-9.63 0-9.63 0zm25.9 57c-2.65 1.5-7.95 2.84-13.09 3.23s-12.82.22-12.82.22v-25.57s7.35-.39 13.09 0a36.17 36.17 0 0 1 12.71 3 10 10 0 0 1 5.95 9.41c0 5.85-3.2 8.21-5.85 9.71z"/><path d="m254.25 125.8h-12v-34.89h-120.3v-12h132.3z"/><path d="m186.9 251.68h-121.47v-46.89h12v34.89h109.47z"/></g></svg>