<svg viewBox="0 0 343.76 294" xmlns="http://www.w3.org/2000/svg"><path d="m317 6h-103.65a20.59 20.59 0 0 0 -20.74 20.42s-2.7 18.72-20.74 20.41h-145.13c-11.45 0-20.74 8.82-20.74 20.09v200.66a20.59 20.59 0 0 0 20.74 20.42h290.26a20.59 20.59 0 0 0 20.74-20.42v-241.16a20.59 20.59 0 0 0 -20.74-20.42z" fill="#f5e48f"/><path d="m337.71 25.08a15.5 15.5 0 0 0 -1.71-.08h-103.65a20.59 20.59 0 0 0 -20.74 20.42s-2.69 18.72-20.73 20.41h-145.15c-11.44 0-20.73 8.82-20.73 20.09l-18.89 126.08v39c-10.66-.83-.11 27.29-.11 16.58v-200.66c0-11.27 9.29-20.09 20.73-20.09h145.15c18-1.69 20.73-20.41 20.73-20.41a20.59 20.59 0 0 1 20.74-20.42h103.65a20.61 20.61 0 0 1 20.71 19.08z" fill="#fff"/><path d="m337.76 242.58v21a20.59 20.59 0 0 1 -20.76 20.42h-290.27a20.59 20.59 0 0 1 -20.73-20.42v-21a20.59 20.59 0 0 0 20.73 20.42h290.27a20.59 20.59 0 0 0 20.76-20.42z" fill="#dec277"/><path d="m317 294h-290.26a26.61 26.61 0 0 1 -26.74-26.42v-200.66c0-14.38 12-26.09 26.74-26.09h144.84c12-1.28 14.64-12.76 15-14.93a26.62 26.62 0 0 1 26.77-25.9h103.65a26.61 26.61 0 0 1 26.74 26.42v241.16a26.61 26.61 0 0 1 -26.74 26.42zm-290.26-241.17c-8.27 0-14.74 6.17-14.74 14.09v200.66a14.6 14.6 0 0 0 14.74 14.42h290.26a14.6 14.6 0 0 0 14.74-14.42v-241.16a14.6 14.6 0 0 0 -14.74-14.42h-103.65a14.6 14.6 0 0 0 -14.74 14.42v.43l-.06.43c-1.17 8.09-8.12 23.84-26.11 25.53h-.56z" fill="#68291c"/><path d="m309.48 48 .09 85.31v12.19c0 3.86 6 3.87 6 0l-.09-85.31v-12.19c0-3.86-6-3.87-6 0z" fill="#fff"/><path d="m309.15 170.93.08 72.07c0 3.86 6 3.87 6 0l-.08-72.07c0-3.86-6-3.87-6 0z" fill="#fff"/><path d="m212.17 164.57c-4.48-3.37-10.85-4.72-10.85-4.72s5.4-3.13 7.6-6.25a23.77 23.77 0 0 0 3.5-10.49c.18-2.51.61-13.06-7.6-19.13-6.36-4.7-13.64-6.56-23.42-7.17v-21.28h-13.14v21h-10v-21h-13.11v21h-25.81v13.63h7.59c2.07 0 5.75.23 7.31 2s1.84 2.67 1.84 6.07 0 53 0 54.29a5.31 5.31 0 0 1 -1.35 3.92c-1.1 1-2.21 1.29-4.84 1.29h-7.89l-2.7 15.76h25.81v21h13.12v-21h10v21h13.12v-21.34c3.39-.2 6.55-.46 8.4-.7 3.74-.49 12.2-1.47 20.11-7s9.69-14.17 9.87-22.87-3.09-14.64-7.56-18.01zm-53.9-33.17s4.17-.37 8.28-.31a41.75 41.75 0 0 1 13.12 1.84c5.39 1.66 8.58 5.7 8.71 10.49a10.28 10.28 0 0 1 -5.64 10 32 32 0 0 1 -13.55 3.31c-4.78.18-10.91 0-10.91 0zm29.37 62.72c-3 1.66-9 3.13-14.84 3.56s-14.53.25-14.53.25v-28.15s8.34-.43 14.84 0a42 42 0 0 1 14.41 3.31c2.45 1.23 6.75 3.92 6.75 10.36s-3.63 9.02-6.63 10.67z" fill="#68291c"/></svg>