<svg viewBox="0 0 416.68 282.8" xmlns="http://www.w3.org/2000/svg"><path d="m9.76 6.95h402v243h-402z" fill="#fff"/><path d="m254.07 282.8h-91.46v-107.27h91.46zm-79.46-12h67.46v-83.27h-67.46z" fill="#385868"/><rect fill="#fff" height="247.62" rx="12" width="404.68" x="6" y="6"/><path d="m407.91 17.09v225.44a11.12 11.12 0 0 1 -11.09 11.09h-4.62v-218a11.12 11.12 0 0 0 -11.09-11.09h-377.88v-7.44a11.12 11.12 0 0 1 11.09-11.09h382.51a11.12 11.12 0 0 1 11.08 11.09z" fill="#d1d6d8"/><g fill="#385868"><path d="m255.28 116.37c-4.77-3.6-11.57-5-11.57-5s5.75-3.34 8.11-6.67 3.53-8.5 3.73-11.18.65-13.93-8.11-20.4c-6.78-5-14.55-7-25-7.64v-22.73h-14v22.42h-10.63v-22.42h-14v22.42h-27.52v14.53h8.09c2.21 0 6.13.25 7.8 2.11s2 2.84 2 6.47 0 56.53 0 57.9a5.67 5.67 0 0 1 -1.44 4.18c-1.18 1.11-2.35 1.37-5.17 1.37h-8.37l-2.88 16.81h27.53v22.36h14v-22.35h10.66v22.36h14v-22.73c3.62-.21 7-.49 9-.74 4-.52 13-1.57 21.45-7.45s10.33-15.11 10.53-24.39-3.49-15.6-8.21-19.23zm-57.47-35.37s4.45-.39 8.83-.33a44.52 44.52 0 0 1 14 2c5.75 1.77 9.15 6.08 9.28 11.18a11 11 0 0 1 -6 10.66c-3.92 2.16-9.35 3.33-14.45 3.53s-11.64 0-11.64 0zm31.32 66.89c-3.2 1.77-9.61 3.34-15.82 3.79s-15.5.26-15.5.26v-30s8.89-.46 15.82 0 12.75 2.22 15.36 3.53 7.19 4.18 7.19 11-3.85 9.65-7.06 11.41z"/><path d="m49.74 148.67h-43.44v-12h31.44v-24.06h12z"/><path d="m43.46 119.74a17.51 17.51 0 1 1 17.54-17.51 17.53 17.53 0 0 1 -17.54 17.51zm0-23a5.51 5.51 0 1 0 5.54 5.49 5.52 5.52 0 0 0 -5.54-5.51z"/><path d="m384.79 57.95h-12v-36.06h43.44v12h-31.44z"/><path d="m379.07 85.84a17.51 17.51 0 1 1 17.51-17.51 17.53 17.53 0 0 1 -17.51 17.51zm0-23a5.51 5.51 0 1 0 5.51 5.51 5.52 5.52 0 0 0 -5.51-5.53z"/><path d="m76.29 48.95h-36.06v-43.44h12v31.44h24.06z"/><path d="m86.68 60.18a17.51 17.51 0 1 1 17.51-17.51 17.53 17.53 0 0 1 -17.51 17.51zm0-23a5.51 5.51 0 1 0 5.51 5.51 5.52 5.52 0 0 0 -5.51-5.53z"/><path d="m361.18 215.87h-12v-31.44h-24.05v-12h36.05z"/><path d="m314.74 196.22a17.51 17.51 0 1 1 17.51-17.51 17.53 17.53 0 0 1 -17.51 17.51zm0-23a5.51 5.51 0 1 0 5.51 5.51 5.52 5.52 0 0 0 -5.51-5.53z"/></g><path d="m410.68 213v29.57a11.12 11.12 0 0 1 -11.09 11.09h-382.5a11.12 11.12 0 0 1 -11.09-11.13v-29.53z" fill="#b0dfea"/><path d="m407.91 213v29.57a11.12 11.12 0 0 1 -11.09 11.09h-4.62v-40.66z" fill="#95bcc9"/><path d="m6 206.96h402.84v12h-402.84z" fill="#385868"/><path d="m398.68 259.62h-380.68a18 18 0 0 1 -18-18v-223.62a18 18 0 0 1 18-18h380.68a18 18 0 0 1 18 18v223.62a18 18 0 0 1 -18 18zm-380.68-247.62a6 6 0 0 0 -6 6v223.62a6 6 0 0 0 6 6h380.68a6 6 0 0 0 6-6v-223.62a6 6 0 0 0 -6-6z" fill="#385868"/></svg>