<svg viewBox="0 0 411.59 331.76" xmlns="http://www.w3.org/2000/svg"><circle cx="169.14" cy="83.49" fill="#f5e48f" r="80.7"/><path d="m247.82 83.47a80.71 80.71 0 0 1 -155.28 30.88 42.67 42.67 0 0 1 35.25-3c8.53 3.11 15.89 8.93 24.48 11.89 18.59 6.41 41-3.09 50.17-20.48s5-40.52-9.11-54.28c-7.19-7-16.38-11.66-25.79-15.18a143.55 143.55 0 0 0 -55.46-8.86 80.7 80.7 0 0 1 135.74 59z" fill="#dec378" opacity=".6"/><path d="m167.16 11.23a80.7 80.7 0 0 1 80.58 76.23c.08-1.48.13-3 .13-4.47a80.7 80.7 0 0 0 -161.4 0c0 1.5 0 3 .13 4.47a80.7 80.7 0 0 1 80.56-76.23z" fill="#e1d2d5" opacity=".5"/><path d="m167.16 153a80.7 80.7 0 0 1 -80.58-76.21c-.08 1.48-.13 3-.13 4.47a80.7 80.7 0 0 0 161.4 0c0-1.5 0-3-.13-4.47a80.7 80.7 0 0 1 -80.56 76.21z" fill="#fff" opacity=".3"/><g fill="#426572"><path d="m112.17 94.61h-23.11v-5.96h17.15v-13.18h5.96z"/><path d="m109 79.06a9.17 9.17 0 1 1 9.17-9.17 9.18 9.18 0 0 1 -9.17 9.17zm0-12.37a3.21 3.21 0 1 0 3.21 3.21 3.21 3.21 0 0 0 -3.21-3.22z"/><path d="m180.64 28.55h-21.71v-26.31h5.96v20.35h15.75z"/><path d="m187.11 35.55a10.15 10.15 0 1 1 10.16-10.15 10.16 10.16 0 0 1 -10.16 10.15zm0-14.35a4.19 4.19 0 1 0 4.19 4.19 4.2 4.2 0 0 0 -4.19-4.19z"/><path d="m227.78 103.99h-5.96v-19.47h23.52v5.96h-17.56z"/><path d="m225 119a9.29 9.29 0 1 1 9.29-9.29 9.3 9.3 0 0 1 -9.29 9.29zm0-12.63a3.33 3.33 0 1 0 3.34 3.33 3.34 3.34 0 0 0 -3.34-3.35z"/><path d="m173.24 164.23h-5.96v-16.93h-13v-5.96h18.96z"/><path d="m148.75 153.57a9.1 9.1 0 1 1 9.1-9.1 9.11 9.11 0 0 1 -9.1 9.1zm0-12.24a3.14 3.14 0 1 0 3.14 3.14 3.14 3.14 0 0 0 -3.14-3.14z"/><path d="m193.76 83a19.1 19.1 0 0 0 -6.52-2.84 17.79 17.79 0 0 0 4.57-3.76 14.28 14.28 0 0 0 2.1-6.3c.11-1.51.37-7.85-4.57-11.5-3.82-2.82-8.2-3.94-14.07-4.31v-12.8h-7.89v12.64h-6v-12.64h-7.88v12.64h-15.5v8.19h4.56c1.24 0 3.45.14 4.39 1.19s1.11 1.6 1.11 3.65 0 31.85 0 32.63a3.19 3.19 0 0 1 -.81 2.36c-.66.63-1.33.77-2.91.77h-4.72l-1.62 9.47h15.51v12.61h7.88v-12.6h6v12.6h7.89v-12.82c2-.12 3.94-.27 5-.42a26.22 26.22 0 0 0 12.09-4.2c4.75-3.32 5.82-8.51 5.93-13.74s-1.86-8.82-4.54-10.82zm-32.39-20s2.51-.22 5-.18a25.09 25.09 0 0 1 7.86 1.18c3.24 1 5.16 3.43 5.23 6.3a6.18 6.18 0 0 1 -3.39 6 19.21 19.21 0 0 1 -8.14 2c-2.87.11-6.56 0-6.56 0zm17.63 37.74a25 25 0 0 1 -8.92 2.14c-3.5.26-8.73.15-8.73.15v-16.92s5-.26 8.92 0a25.25 25.25 0 0 1 8.66 2 7 7 0 0 1 .07 12.64z"/></g><path d="m220.34 41.83a69 69 0 0 1 13.66 29.87c.34 1.88 3.22 1.09 2.87-.79a72 72 0 0 0 -14.4-31.19c-1.17-1.51-3.27.61-2.11 2.11z" fill="#fff"/><path d="m206.62 28.17a61.83 61.83 0 0 1 9.12 8.42c1.32 1.4 3.42-.71 2.11-2.11a65.47 65.47 0 0 0 -9.72-8.88c-1.57-1.11-3.06 1.48-1.5 2.57z" fill="#fff"/><path d="m166.35 169.21a84.61 84.61 0 1 1 84.65-84.6 84.7 84.7 0 0 1 -84.65 84.6zm0-161.4a76.8 76.8 0 1 0 76.8 76.8 76.88 76.88 0 0 0 -76.8-76.8z" fill="#426572"/><circle cx="229.93" cy="84.6" fill="#f5e48f" r="80.7"/><path d="m308.61 84.59a80.71 80.71 0 0 1 -155.28 30.88 42.67 42.67 0 0 1 35.25-3c8.53 3.11 15.89 8.93 24.48 11.89 18.59 6.41 41-3.09 50.17-20.48s5-40.52-9.11-54.28c-7.19-7-16.38-11.66-25.79-15.18a143.55 143.55 0 0 0 -55.46-8.86 80.7 80.7 0 0 1 135.74 59z" fill="#dec378" opacity=".6"/><path d="m227.95 12.35a80.7 80.7 0 0 1 80.58 76.23c.08-1.48.13-3 .13-4.47a80.7 80.7 0 1 0 -161.4 0c0 1.5 0 3 .13 4.47a80.7 80.7 0 0 1 80.56-76.23z" fill="#e1d2d5" opacity=".5"/><path d="m227.95 154.13a80.7 80.7 0 0 1 -80.58-76.23c-.08 1.48-.13 3-.13 4.47a80.7 80.7 0 1 0 161.4 0c0-1.5 0-3-.13-4.47a80.7 80.7 0 0 1 -80.56 76.23z" fill="#fff" opacity=".3"/><path d="m172.95 95.72h-23.1v-5.95h17.15v-13.18h5.95z" fill="#426572"/><path d="m169.82 80.17a9.17 9.17 0 1 1 9.18-9.17 9.18 9.18 0 0 1 -9.18 9.17zm0-12.37a3.21 3.21 0 1 0 3.18 3.2 3.21 3.21 0 0 0 -3.18-3.2z" fill="#426572"/><path d="m241.43 29.67h-21.71v-26.31h5.96v20.35h15.75z" fill="#426572"/><path d="m247.9 36.67a10.15 10.15 0 1 1 10.15-10.15 10.16 10.16 0 0 1 -10.15 10.15zm0-14.35a4.19 4.19 0 1 0 4.19 4.19 4.2 4.2 0 0 0 -4.19-4.19z" fill="#426572"/><path d="m288.57 105.11h-5.96v-19.47h23.52v5.96h-17.56z" fill="#426572"/><path d="m285.74 120.1a9.29 9.29 0 1 1 9.26-9.3 9.3 9.3 0 0 1 -9.26 9.3zm0-12.63a3.33 3.33 0 1 0 3.34 3.33 3.34 3.34 0 0 0 -3.34-3.33z" fill="#426572"/><path d="m234.03 165.34h-5.96v-16.92h-13v-5.96h18.96z" fill="#426572"/><path d="m209.54 154.69a9.1 9.1 0 1 1 9.1-9.1 9.11 9.11 0 0 1 -9.1 9.1zm0-12.24a3.14 3.14 0 1 0 3.14 3.14 3.14 3.14 0 0 0 -3.14-3.14z" fill="#426572"/><path d="m254.55 84.1a19.1 19.1 0 0 0 -6.55-2.84 17.79 17.79 0 0 0 4.57-3.76 14.28 14.28 0 0 0 2.1-6.3c.11-1.51.37-7.85-4.57-11.5-3.82-2.82-8.2-3.94-14.07-4.31v-12.78h-7.89v12.64h-6v-12.64h-7.88v12.64h-15.5v8.19h4.56c1.24 0 3.45.14 4.39 1.19s1.11 1.6 1.11 3.65 0 31.85 0 32.63a3.19 3.19 0 0 1 -.81 2.36c-.66.63-1.33.77-2.91.77h-4.72l-1.62 9.47h15.51v12.6h7.88v-12.61h6v12.6h7.85v-12.81c2-.12 3.94-.27 5-.42a26.22 26.22 0 0 0 12.09-4.2c4.75-3.32 5.82-8.51 5.93-13.74s-1.79-8.81-4.47-10.83zm-32.39-19.94s2.51-.22 5-.18a25.09 25.09 0 0 1 7.84 1.11c3.24 1 5.16 3.43 5.23 6.3a6.18 6.18 0 0 1 -3.39 6 19.21 19.21 0 0 1 -8.14 2c-2.87.11-6.56 0-6.56 0zm17.65 37.69a25 25 0 0 1 -8.92 2.14c-3.5.26-8.73.15-8.73.15v-16.91s5-.26 8.92 0a25.25 25.25 0 0 1 8.66 2 7 7 0 0 1 .07 12.64z" fill="#426572"/><path d="m281.13 42.94a69 69 0 0 1 13.63 29.88c.34 1.88 3.22 1.09 2.87-.79a72 72 0 0 0 -14.4-31.19c-1.17-1.51-3.27.61-2.11 2.11z" fill="#fff"/><path d="m267.41 29.29a61.83 61.83 0 0 1 9.12 8.42c1.32 1.4 3.42-.71 2.11-2.11a65.47 65.47 0 0 0 -9.72-8.88c-1.57-1.11-3.06 1.48-1.5 2.57z" fill="#fff"/><path d="m227.14 170.33a84.61 84.61 0 1 1 84.6-84.61 84.7 84.7 0 0 1 -84.6 84.61zm0-161.4a76.8 76.8 0 1 0 76.8 76.8 76.88 76.88 0 0 0 -76.8-76.81z" fill="#426572"/><rect fill="#b0dfea" height="245.76" rx="44.83" width="360.45" x="6" y="76.44"/><path d="m366.45 256.82v27.31a40.8 40.8 0 0 1 -40.81 40.81h-278.83a40.8 40.8 0 0 1 -40.81-40.82v-27.3a40.8 40.8 0 0 0 40.81 40.81h278.84a40.8 40.8 0 0 0 40.8-40.81z" fill="#95bcc9"/><path d="m321.62 331.76h-270.79a50.89 50.89 0 0 1 -50.83-50.83v-156.1a50.89 50.89 0 0 1 50.83-50.83h270.79a50.89 50.89 0 0 1 50.83 50.83v156.1a50.89 50.89 0 0 1 -50.83 50.83zm-270.79-245.76a38.87 38.87 0 0 0 -38.83 38.83v156.1a38.87 38.87 0 0 0 38.83 38.83h270.79a38.87 38.87 0 0 0 38.83-38.83v-156.1a38.87 38.87 0 0 0 -38.83-38.83z" fill="#426572"/><path d="m320.21 306.2h-12v-7h12zm-23.86 0h-11.87v-7h11.87zm-23.74 0h-11.87v-7h11.87zm-23.74 0h-11.87v-7h11.87zm-23.74 0h-11.87v-7h11.87zm-23.74 0h-11.86v-7h11.87zm-23.74 0h-11.86v-7h11.87zm-23.74 0h-11.91v-7h11.87zm-23.74 0h-11.86v-7h11.87zm-23.74 0h-11.86v-7h11.87zm-23.74 0h-11.86v-7h11.87zm-23.69 0h-3.9a30.5 30.5 0 0 1 -8.91-1.32l2-6.7a23.52 23.52 0 0 0 6.87 1h3.94zm274.22-2.95-3-6.32a23.77 23.77 0 0 0 8.08-6.31l5.4 4.45a30.82 30.82 0 0 1 -10.51 8.18zm-298.59-4.94a30.77 30.77 0 0 1 -7.68-10.85l6.46-2.71a23.72 23.72 0 0 0 5.92 8.36zm315-15.11-6.79-1.72a23.64 23.64 0 0 0 .72-5.8v-5.14h7v5.14a30.63 30.63 0 0 1 -.89 7.52zm-318.05-8.68h-7v-11.87h7zm319-15.85h-7v-11.87h7zm-319-7.89h-7v-11.87h7zm319-15.85h-7v-11.87h7zm-319-7.93h-7v-11.82h7zm319-15.85h-7v-11.83h7zm-319-7.89h-7v-11.82h7zm319-15.85h-7v-11.82h7zm-319-7.89h-7v-11.82h7zm319-15.85h-7v-11.82h7zm-319-7.89h-7v-11.78h7zm319-15.85h-7v-11.82h7zm-319-7.89h-7v-5.04a30.65 30.65 0 0 1 1-7.59l6.78 1.74a23.62 23.62 0 0 0 -.73 5.85zm310.19-14.21a23.74 23.74 0 0 0 -5.94-8.35l4.69-5.2a30.77 30.77 0 0 1 7.71 10.83zm-304.77-5.83-5.39-4.46a30.79 30.79 0 0 1 10.49-8.16l3 6.33a23.75 23.75 0 0 0 -8.1 6.29zm289.94-7.54a23.53 23.53 0 0 0 -6.82-1h-3.92v-7h3.92a30.54 30.54 0 0 1 8.85 1.3zm-22.61-1h-11.9v-7h11.87zm-23.74 0h-11.9v-7h11.87zm-23.74 0h-11.85v-7h11.87zm-23.74 0h-11.9v-7h11.87zm-23.74 0h-11.9v-7h11.87zm-23.74 0h-11.89v-7h11.87zm-23.74 0h-11.89v-7h11.87zm-23.74 0h-11.89v-7h11.87zm-23.74 0h-11.89v-7h11.87zm-23.74 0h-11.89v-7h11.87zm-23.74 0h-11.83l-.06-7h11.87z" fill="#426572"/><path d="m360.24 250.06-66 4.38a40.37 40.37 0 0 1 -7.56-.13 40.81 40.81 0 0 1 -35.81-40.5 40.81 40.81 0 0 1 40.79-40.81h56.74a40.81 40.81 0 0 1 40.81 40.81c0 22.53-6.44 36.25-28.97 36.25z" fill="#95bcc9"/><rect fill="#d9f4f9" height="81.61" rx="40.81" width="138.36" x="262.69" y="158.44"/><path d="m364.79 249.69h-56.79a46.81 46.81 0 1 1 0-93.61h56.75a46.81 46.81 0 1 1 0 93.61zm-56.79-81.61a34.81 34.81 0 1 0 0 69.61h56.75a34.81 34.81 0 1 0 0-69.61z" fill="#426572"/><path d="m48.13 120.56a3.76 3.76 0 0 0 -3.13 3.07v.4.75l-.07 1.48c-.19 3.89-.47 7.4-.82 10.34-.69 5.89-1.65 9.53-2.71 9.53s-2-3.64-2.71-9.53c-.35-2.94-.63-6.45-.82-10.34l-.07-1.48v-.75c0-.34 0-.75 0-1.12a10.72 10.72 0 0 1 1.35-4.47 10.91 10.91 0 0 1 7.85-5.44 9.3 9.3 0 0 1 1.27-.11h2.63l3.23.06c2.12.05 4.16.13 6.11.22 3.89.19 7.4.47 10.34.82 5.89.69 9.53 1.65 9.53 2.71s-3.64 2-9.53 2.71c-2.94.35-6.45.63-10.34.82-1.95.1-4 .17-6.11.22l-3.23.06h-2.37a2.3 2.3 0 0 0 -.4.05z" fill="#fff"/><ellipse cx="103.91" cy="116.68" fill="#fff" rx="11.04" ry="3.83"/><path d="m97 240.67a15.7 15.7 0 0 0 -5.75 1 14.62 14.62 0 0 0 1.4-4.66 11.74 11.74 0 0 0 -1.44-5.27c-.62-1.08-3.33-5.53-8.37-5.77-3.9-.18-7.4 1.05-11.59 3.49l-5.84-8.74-5.41 3.65 5.8 8.63-4.1 2.74-5.77-8.64-5.39 3.6 5.77 8.64-10.6 7.09 3.74 5.6 3.11-2.03c.85-.57 2.42-1.48 3.55-1.19s1.49.59 2.42 2l14.91 22.19a2.63 2.63 0 0 1 .52 2c-.17.73-.55 1.13-1.64 1.86l-3.22 2.14 3.22 7.21 10.6-7.09 5.76 8.61 5.39-3.6-5.76-8.61 4.1-2.74 5.76 8.61 5.39-3.6-5.85-8.75c1.34-1 2.57-2 3.26-2.59a21.56 21.56 0 0 0 6.34-8.39c1.73-4.44.09-8.48-2.23-12.1s-5.3-5.13-8.08-5.29zm-31.24 1.18s1.61-1.3 3.31-2.4a20.62 20.62 0 0 1 5.93-2.85 5.6 5.6 0 0 1 6.45 1.92 5.08 5.08 0 0 1 .43 5.65 15.79 15.79 0 0 1 -4.66 5.08c-1.91 1.39-4.48 3-4.48 3zm29.28 17.7a20.58 20.58 0 0 1 -5.12 5.53c-2.27 1.78-5.9 4.09-5.9 4.09l-7.73-11.56s3.31-2.47 6.09-4.07a20.75 20.75 0 0 1 6.83-2.59 5.74 5.74 0 0 1 5.82 8.6z" fill="#426572"/></svg>