<svg viewBox="0 0 142.85 103.36" xmlns="http://www.w3.org/2000/svg"><rect fill="#abbcd3" height="79.97" rx="8.99" width="124.75" x="18.1" y="16.88"/><rect fill="#4c5389" height="89.17" rx="5.09" width="121.37" x="14.11" y="1.21"/><path d="m14.11 49.12h121.36v37.8a3.46 3.46 0 0 1 -3.47 3.46h-114.43a3.46 3.46 0 0 1 -3.46-3.46z" fill="#2e3a6d"/><path d="m75.58 1.18-17.39 89.23h-7.13l17.4-89.23z" fill="#3b447a"/><path d="m108.67 1.12-17.3 89.23h-16.58l17.4-89.23z" fill="#3b447a"/><path d="m121.08 1.12-17.4 89.23h-7.12l17.4-89.23z" fill="#3b447a"/><path d="m23.8 76a1.27 1.27 0 0 1 -1.27-1.27v-47.67a1.27 1.27 0 0 1 2.54 0v47.64a1.27 1.27 0 0 1 -1.27 1.3z" fill="#6773ba"/><path d="m70.84 26.12h-40.93a1.21 1.21 0 0 1 0-2.42h40.93a1.21 1.21 0 0 1 0 2.42z" fill="#61fc54"/><path d="m56.12 31.33h-26.21a1.21 1.21 0 0 1 0-2.42h26.21a1.21 1.21 0 0 1 0 2.42z" fill="#f70d67"/><path d="m45.71 36.8h-15.8a1.21 1.21 0 0 1 0-2.42h15.8a1.21 1.21 0 1 1 0 2.42z" fill="#859cff"/><path d="m54.5 36.8h-4.13a1.21 1.21 0 0 1 0-2.42h4.13a1.21 1.21 0 0 1 0 2.42z" fill="#859cff"/><path d="m65.93 36.8h-5.62a1.21 1.21 0 0 1 0-2.42h5.62a1.21 1.21 0 0 1 0 2.42z" fill="#859cff"/><path d="m70.84 46.94h-40.93a1.21 1.21 0 1 1 0-2.42h40.93a1.21 1.21 0 1 1 0 2.42z" fill="#61fc54"/><path d="m56.12 52.15h-26.21a1.21 1.21 0 0 1 0-2.42h26.21a1.21 1.21 0 0 1 0 2.42z" fill="#f70d67"/><path d="m45.71 57.63h-15.8a1.21 1.21 0 0 1 0-2.42h15.8a1.21 1.21 0 0 1 0 2.42z" fill="#859cff"/><path d="m54.5 57.63h-4.13a1.21 1.21 0 0 1 0-2.42h4.13a1.21 1.21 0 0 1 0 2.42z" fill="#859cff"/><path d="m65.93 57.63h-5.62a1.21 1.21 0 0 1 0-2.42h5.62a1.21 1.21 0 0 1 0 2.42z" fill="#859cff"/><path d="m70.84 41.93h-40.93a1.27 1.27 0 1 1 0-2.54h40.93a1.27 1.27 0 1 1 0 2.54z" fill="#6773ba"/><path d="m70.84 62.76h-40.93a1.27 1.27 0 1 1 0-2.54h40.93a1.27 1.27 0 0 1 0 2.54z" fill="#6773ba"/><path d="m70.84 67.77h-40.93a1.21 1.21 0 0 1 0-2.42h40.93a1.21 1.21 0 0 1 0 2.42z" fill="#61fc54"/><path d="m56.12 73h-26.21a1.21 1.21 0 1 1 0-2.42h26.21a1.21 1.21 0 1 1 0 2.42z" fill="#f70d67"/><path d="m45.71 78.45h-15.8a1.21 1.21 0 1 1 0-2.42h15.8a1.21 1.21 0 1 1 0 2.42z" fill="#859cff"/><path d="m54.5 78.45h-4.13a1.21 1.21 0 1 1 0-2.42h4.13a1.21 1.21 0 1 1 0 2.42z" fill="#859cff"/><path d="m65.93 78.45h-5.62a1.21 1.21 0 1 1 0-2.42h5.62a1.21 1.21 0 1 1 0 2.42z" fill="#859cff"/><g fill="#60fc54"><path d="m125.51 72.42h-21a.65.65 0 0 1 0-1.3h21a.65.65 0 1 1 0 1.3z"/><path d="m118 75.09h-13.47a.65.65 0 0 1 -.65-.65.66.66 0 0 1 .65-.66h13.47a.66.66 0 0 1 .65.66.65.65 0 0 1 -.65.65z"/><path d="m112.63 77.9h-8.1a.66.66 0 0 1 -.65-.66.65.65 0 0 1 .65-.65h8.1a.65.65 0 0 1 .65.65.66.66 0 0 1 -.65.66z"/><path d="m117.14 77.9h-2.14a.66.66 0 0 1 -.65-.66.65.65 0 0 1 .65-.65h2.12a.65.65 0 0 1 .65.65.66.66 0 0 1 -.63.66z"/><path d="m123 77.9h-2.88a.66.66 0 0 1 -.66-.66.65.65 0 0 1 .66-.65h2.88a.65.65 0 0 1 .65.65.66.66 0 0 1 -.65.66z"/><path d="m125.51 60.55h-21a.65.65 0 0 1 0-1.3h21a.65.65 0 1 1 0 1.3z"/><path d="m118 63.22h-13.47a.65.65 0 0 1 0-1.3h13.47a.65.65 0 1 1 0 1.3z"/><path d="m112.63 66h-8.1a.65.65 0 0 1 -.65-.65.66.66 0 0 1 .65-.66h8.1a.66.66 0 0 1 .65.66.65.65 0 0 1 -.65.65z"/><path d="m117.14 66h-2.14a.65.65 0 0 1 -.65-.65.66.66 0 0 1 .65-.66h2.12a.66.66 0 0 1 .65.66.65.65 0 0 1 -.63.65z"/><path d="m123 66h-2.88a.65.65 0 0 1 -.66-.65.66.66 0 0 1 .66-.66h2.88a.66.66 0 0 1 .65.66.65.65 0 0 1 -.65.65z"/><path d="m125.51 36.82h-21a.65.65 0 0 1 0-1.3h21a.65.65 0 1 1 0 1.3z"/><path d="m118 39.49h-13.47a.65.65 0 0 1 0-1.3h13.47a.65.65 0 0 1 0 1.3z"/><path d="m112.63 42.3h-8.1a.66.66 0 0 1 -.65-.66.65.65 0 0 1 .65-.65h8.1a.65.65 0 0 1 .65.65.66.66 0 0 1 -.65.66z"/><path d="m117.14 42.3h-2.14a.66.66 0 0 1 -.65-.66.65.65 0 0 1 .65-.64h2.12a.65.65 0 0 1 .65.65.66.66 0 0 1 -.63.65z"/><path d="m123 42.3h-2.88a.66.66 0 0 1 -.66-.66.65.65 0 0 1 .66-.65h2.88a.65.65 0 0 1 .65.65.66.66 0 0 1 -.65.66z"/><path d="m125.51 48.69h-21a.66.66 0 0 1 0-1.31h21a.66.66 0 1 1 0 1.31z"/><path d="m118 51.36h-13.47a.66.66 0 0 1 -.65-.66.65.65 0 0 1 .65-.65h13.47a.65.65 0 0 1 .65.65.66.66 0 0 1 -.65.66z"/><path d="m112.63 54.16h-8.1a.65.65 0 0 1 0-1.3h8.1a.65.65 0 1 1 0 1.3z"/><path d="m117.14 54.16h-2.14a.65.65 0 1 1 0-1.3h2.12a.65.65 0 1 1 0 1.3z"/><path d="m123 54.16h-2.88a.65.65 0 1 1 0-1.3h2.88a.65.65 0 1 1 0 1.3z"/><path d="m125.51 25h-21a.66.66 0 0 1 -.65-.66.65.65 0 0 1 .65-.65h21a.65.65 0 0 1 .66.65.66.66 0 0 1 -.66.66z"/><path d="m118 27.62h-13.47a.65.65 0 0 1 0-1.3h13.47a.65.65 0 1 1 0 1.3z"/><path d="m112.63 30.43h-8.1a.65.65 0 0 1 0-1.3h8.1a.65.65 0 1 1 0 1.3z"/><path d="m117.14 30.43h-2.14a.65.65 0 1 1 0-1.3h2.12a.65.65 0 1 1 0 1.3z"/><path d="m123 30.43h-2.88a.65.65 0 1 1 0-1.3h2.88a.65.65 0 1 1 0 1.3z"/></g><circle cx="23.8" cy="7.07" fill="#ff5f57" r="2.03"/><circle cx="30.15" cy="7.07" fill="#febc2e" r="2.03"/><circle cx="36.49" cy="7.07" fill="#29c940" r="2.03"/><path d="m130.39 91.59h-111.2a6.3 6.3 0 0 1 -6.29-6.3v-78.99a6.3 6.3 0 0 1 6.29-6.3h111.2a6.3 6.3 0 0 1 6.29 6.3v79a6.3 6.3 0 0 1 -6.29 6.29zm-111.2-89.17a3.88 3.88 0 0 0 -3.87 3.88v79a3.88 3.88 0 0 0 3.87 3.88h111.2a3.88 3.88 0 0 0 3.87-3.88v-79a3.88 3.88 0 0 0 -3.87-3.88z" fill="#000201"/><path d="m41.75 14.17h-26.93a.75.75 0 0 1 0-1.5h26.93a.75.75 0 1 1 0 1.5z" fill="#000201"/><path d="m134.55 14.17h-85.85a.75.75 0 0 1 0-1.5h85.85a.75.75 0 0 1 0 1.5z" fill="#000201"/><rect fill="#fff" height="39.38" opacity=".45" rx="2.25" width="53.6" x=".91" y="63.07"/><path d="m54.09 71.8h-39.71a.91.91 0 0 1 0-1.81h39.71a.91.91 0 1 1 0 1.81z" fill="#000201"/><circle cx="5.19" cy="67.01" fill="#ff5f57" r=".9"/><circle cx="7.99" cy="67.01" fill="#febc2e" r=".9"/><circle cx="10.79" cy="67.01" fill="#29c940" r=".9"/><path d="m44.45 63.08-7.64 39.37h-7.31l7.67-39.37z" fill="#fff"/><path d="m49.92 63.08-7.67 39.37h-3.15l7.68-39.37z" fill="#fff"/><path d="m9 71.8h-7.78a.91.91 0 0 1 0-1.81h7.78a.91.91 0 1 1 0 1.81z" fill="#000201"/><path d="m52.26 103.36h-49.11a3.16 3.16 0 0 1 -3.15-3.15v-34.89a3.15 3.15 0 0 1 3.15-3.15h49.11a3.16 3.16 0 0 1 3.15 3.15v34.89a3.16 3.16 0 0 1 -3.15 3.15zm-49.11-39.36a1.34 1.34 0 0 0 -1.34 1.34v34.89a1.34 1.34 0 0 0 1.34 1.34h49.11a1.34 1.34 0 0 0 1.34-1.34v-34.91a1.34 1.34 0 0 0 -1.34-1.32z" fill="#000201"/></svg>