<svg viewBox="0 0 128.8 140.67" xmlns="http://www.w3.org/2000/svg"><path d="m42.32 1.21h50.81v66.08h-50.81z" fill="#fff"/><path d="m42.32 39.64h50.81v27.65h-50.81z" fill="#abbcd3"/><path d="m73.79 7.88h-25.35a.56.56 0 1 1 0-1.12h25.35a.56.56 0 0 1 0 1.12z" fill="#000201"/><path d="m64.67 11.1h-16.23a.56.56 0 1 1 0-1.12h16.23a.56.56 0 1 1 0 1.12z" fill="#000201"/><path d="m58.22 14.49h-9.78a.56.56 0 1 1 0-1.12h9.78a.56.56 0 1 1 0 1.12z" fill="#000201"/><path d="m63.67 14.49h-2.56a.56.56 0 0 1 0-1.12h2.56a.56.56 0 1 1 0 1.12z" fill="#000201"/><path d="m70.75 14.49h-3.48a.56.56 0 1 1 0-1.12h3.48a.56.56 0 1 1 0 1.12z" fill="#000201"/><path d="m61.11 17.63h-12.67a.56.56 0 1 1 0-1.12h12.67a.56.56 0 1 1 0 1.12z" fill="#000201"/><path d="m73.79 22.51h-25.35a.56.56 0 0 1 0-1.12h25.35a.56.56 0 0 1 0 1.12z" fill="#000201"/><path d="m64.67 25.74h-16.23a.57.57 0 0 1 0-1.13h16.23a.57.57 0 0 1 0 1.13z" fill="#000201"/><path d="m58.22 29.13h-9.78a.56.56 0 0 1 -.56-.56.57.57 0 0 1 .56-.57h9.78a.57.57 0 0 1 .56.57.56.56 0 0 1 -.56.56z" fill="#000201"/><path d="m63.67 29.13h-2.56a.56.56 0 0 1 -.56-.56.57.57 0 0 1 .56-.57h2.56a.57.57 0 0 1 .56.57.56.56 0 0 1 -.56.56z" fill="#000201"/><path d="m70.75 29.13h-3.48a.57.57 0 0 1 -.57-.56.58.58 0 0 1 .57-.57h3.48a.57.57 0 0 1 .56.57.56.56 0 0 1 -.56.56z" fill="#000201"/><path d="m73.79 32.27h-25.35a.56.56 0 0 1 0-1.12h25.35a.56.56 0 1 1 0 1.12z" fill="#000201"/><path d="m73.79 37h-25.35a.56.56 0 1 1 0-1.12h25.35a.56.56 0 1 1 0 1.12z" fill="#000201"/><path d="m64.67 40.2h-16.23a.56.56 0 0 1 0-1.12h16.23a.56.56 0 0 1 0 1.12z" fill="#000201"/><path d="m93.13 68.5h-50.81a1.21 1.21 0 0 1 -1.21-1.21v-66.08a1.21 1.21 0 0 1 1.21-1.21h50.81a1.21 1.21 0 0 1 1.21 1.21v66.08a1.21 1.21 0 0 1 -1.21 1.21zm-49.6-2.42h48.39v-63.66h-48.39z" fill="#000201"/><rect fill="#abbcd3" height="79.97" rx="8.99" width="124.75" x="4.05" y="60.7"/><rect fill="#eaedef" height="89.17" rx="5.09" width="121.37" x="1.21" y="45.47"/><path d="m1.93 57.68h119.72v3.02h-119.72z" fill="#ccd7dd"/><path d="m2.03 128.59h119.72v5.12h-119.72z" fill="#ccd7dd"/><path d="m62 45.45-17.4 89.22h-7.12l17.39-89.22z" fill="#fff"/><path d="m95.08 45.39-17.3 89.22h-16.58l17.4-89.22z" fill="#fff"/><path d="m107.49 45.39-17.39 89.22h-7.13l17.4-89.22z" fill="#fff"/><path d="m10.9 120.24a1.27 1.27 0 0 1 -1.27-1.24v-47.67a1.28 1.28 0 0 1 2.55 0v47.67a1.28 1.28 0 0 1 -1.28 1.24z" fill="#ccd7dd"/><path d="m57.94 70.38h-40.94a1.21 1.21 0 0 1 0-2.38h40.94a1.21 1.21 0 0 1 0 2.42z" fill="#9ccfce"/><path d="m43.22 75.59h-26.22a1.21 1.21 0 1 1 0-2.42h26.22a1.21 1.21 0 1 1 0 2.42z" fill="#9ccfce"/><path d="m32.81 81.07h-15.81a1.21 1.21 0 0 1 0-2.42h15.8a1.21 1.21 0 1 1 0 2.42z" fill="#9ccfce"/><path d="m41.61 81.07h-4.13a1.21 1.21 0 0 1 0-2.42h4.13a1.21 1.21 0 1 1 0 2.42z" fill="#9ccfce"/><path d="m53 81.07h-5.59a1.21 1.21 0 0 1 0-2.42h5.59a1.21 1.21 0 1 1 0 2.42z" fill="#9ccfce"/><path d="m57.94 91.21h-40.94a1.21 1.21 0 0 1 0-2.42h40.94a1.21 1.21 0 1 1 0 2.42z" fill="#9ccfce"/><path d="m43.22 96.42h-26.22a1.21 1.21 0 0 1 0-2.42h26.22a1.21 1.21 0 1 1 0 2.42z" fill="#9ccfce"/><path d="m32.81 101.89h-15.81a1.21 1.21 0 1 1 0-2.42h15.8a1.21 1.21 0 0 1 0 2.42z" fill="#9ccfce"/><path d="m41.61 101.89h-4.13a1.21 1.21 0 1 1 0-2.42h4.13a1.21 1.21 0 0 1 0 2.42z" fill="#9ccfce"/><path d="m53 101.89h-5.59a1.21 1.21 0 0 1 0-2.42h5.59a1.21 1.21 0 0 1 0 2.42z" fill="#9ccfce"/><path d="m37.48 86.2h-20.48a1.27 1.27 0 1 1 0-2.54h20.48a1.27 1.27 0 0 1 0 2.54z" fill="#ccd7dd"/><path d="m57.94 107h-40.94a1.28 1.28 0 0 1 0-2.55h40.94a1.28 1.28 0 0 1 0 2.55z" fill="#febc2e"/><g fill="#9ccfce"><path d="m57.94 112h-40.94a1.21 1.21 0 0 1 0-2.42h40.94a1.21 1.21 0 1 1 0 2.42z"/><path d="m43.22 117.24h-26.22a1.21 1.21 0 1 1 0-2.42h26.22a1.21 1.21 0 1 1 0 2.42z"/><path d="m32.81 122.72h-15.81a1.21 1.21 0 1 1 0-2.42h15.8a1.21 1.21 0 0 1 0 2.42z"/><path d="m41.61 122.72h-4.13a1.21 1.21 0 0 1 0-2.42h4.13a1.21 1.21 0 0 1 0 2.42z"/><path d="m53 122.72h-5.59a1.21 1.21 0 0 1 0-2.42h5.59a1.21 1.21 0 0 1 0 2.42z"/><path d="m112.62 116.68h-21a.65.65 0 0 1 0-1.3h21a.65.65 0 1 1 0 1.3z"/><path d="m105.07 119.35h-13.44a.65.65 0 1 1 0-1.3h13.44a.65.65 0 1 1 0 1.3z"/><path d="m99.73 122.16h-8.1a.65.65 0 1 1 0-1.3h8.1a.65.65 0 1 1 0 1.3z"/><path d="m104.24 122.16h-2.11a.65.65 0 1 1 0-1.3h2.11a.65.65 0 1 1 0 1.3z"/><path d="m110.1 122.16h-2.88a.65.65 0 1 1 0-1.3h2.88a.65.65 0 1 1 0 1.3z"/><path d="m112.62 104.82h-21a.65.65 0 0 1 -.65-.65.66.66 0 0 1 .65-.66h21a.66.66 0 0 1 .65.66.65.65 0 0 1 -.65.65z"/><path d="m105.07 107.49h-13.44a.66.66 0 0 1 0-1.31h13.44a.66.66 0 0 1 0 1.31z"/><path d="m99.73 110.29h-8.1a.65.65 0 0 1 0-1.3h8.1a.65.65 0 1 1 0 1.3z"/><path d="m104.24 110.29h-2.11a.65.65 0 1 1 0-1.3h2.11a.65.65 0 1 1 0 1.3z"/><path d="m110.1 110.29h-2.88a.65.65 0 0 1 0-1.3h2.88a.65.65 0 0 1 0 1.3z"/><path d="m112.62 81.09h-21a.66.66 0 0 1 -.65-.66.65.65 0 0 1 .65-.65h21a.65.65 0 0 1 .65.65.66.66 0 0 1 -.65.66z"/><path d="m105.07 83.75h-13.44a.65.65 0 0 1 0-1.3h13.44a.65.65 0 0 1 0 1.3z"/><path d="m99.73 86.56h-8.1a.65.65 0 0 1 0-1.3h8.1a.65.65 0 1 1 0 1.3z"/><path d="m104.24 86.56h-2.11a.65.65 0 1 1 0-1.3h2.11a.65.65 0 1 1 0 1.3z"/><path d="m110.1 86.56h-2.88a.65.65 0 0 1 0-1.3h2.88a.65.65 0 0 1 0 1.3z"/><path d="m112.62 93h-21a.65.65 0 0 1 0-1.3h21a.65.65 0 0 1 0 1.3z"/><path d="m105.07 95.62h-13.44a.65.65 0 0 1 0-1.3h13.44a.65.65 0 0 1 0 1.3z"/><path d="m99.73 98.43h-8.1a.65.65 0 0 1 -.65-.65.66.66 0 0 1 .65-.66h8.1a.67.67 0 0 1 .66.66.66.66 0 0 1 -.66.65z"/><path d="m104.24 98.43h-2.11a.66.66 0 0 1 -.66-.65.67.67 0 0 1 .66-.66h2.11a.67.67 0 0 1 .66.66.66.66 0 0 1 -.66.65z"/><path d="m110.1 98.43h-2.88a.65.65 0 0 1 -.65-.65.66.66 0 0 1 .65-.66h2.88a.66.66 0 0 1 .65.66.65.65 0 0 1 -.65.65z"/><path d="m112.62 69.22h-21a.65.65 0 0 1 0-1.3h21a.65.65 0 0 1 0 1.3z"/><path d="m105.07 71.89h-13.44a.65.65 0 0 1 -.65-.65.66.66 0 0 1 .65-.66h13.44a.66.66 0 0 1 .65.66.65.65 0 0 1 -.65.65z"/><path d="m99.73 74.7h-8.1a.66.66 0 0 1 -.63-.7.65.65 0 0 1 .65-.65h8.1a.66.66 0 0 1 .66.65.67.67 0 0 1 -.68.7z"/><path d="m104.24 74.7h-2.11a.67.67 0 0 1 -.66-.66.66.66 0 0 1 .66-.65h2.11a.66.66 0 0 1 .66.65.67.67 0 0 1 -.66.66z"/><path d="m110.1 74.7h-2.88a.66.66 0 0 1 -.65-.66.65.65 0 0 1 .65-.65h2.88a.65.65 0 0 1 .65.65.66.66 0 0 1 -.65.66z"/></g><circle cx="10.9" cy="51.34" fill="#ff5f57" r="2.03"/><circle cx="17.25" cy="51.34" fill="#febc2e" r="2.03"/><circle cx="23.59" cy="51.34" fill="#29c940" r="2.03"/><path d="m117.49 135.85h-111.19a6.3 6.3 0 0 1 -6.3-6.29v-79a6.31 6.31 0 0 1 6.3-6.3h14.23a1.21 1.21 0 0 1 0 2.42h-14.23a3.88 3.88 0 0 0 -3.88 3.88v79a3.88 3.88 0 0 0 3.88 3.87h111.19a3.88 3.88 0 0 0 3.88-3.87v-79a3.88 3.88 0 0 0 -3.88-3.88h-89.06a1.21 1.21 0 0 1 0-2.42h89.06a6.31 6.31 0 0 1 6.3 6.3v79a6.3 6.3 0 0 1 -6.3 6.29z" fill="#000201"/><path d="m28.86 58.43h-26.93a.75.75 0 0 1 0-1.5h26.93a.75.75 0 0 1 0 1.5z" fill="#000201"/><path d="m121.65 58.43h-85.85a.75.75 0 0 1 0-1.5h85.85a.75.75 0 0 1 0 1.5z" fill="#000201"/></svg>