<svg viewBox="0 0 434.04 329.64" xmlns="http://www.w3.org/2000/svg"><path d="m323.92 166.17h47.78c3.85 0 7.4 3.2 9.3 8.37l45.64 124.46c4 11-1.11 24.63-9.3 24.63h-186.84c-8.18 0-13.33-13.63-9.3-24.63l45.64-124.47c1.9-5.17 5.45-8.37 9.3-8.37h47.78" fill="#f5e48f"/><path d="m417.35 323.64h-186.85c-8.19 0-13.33-13.63-9.3-24.63l45.64-124.47c1.9-5.17 5.45-8.37 9.3-8.37h13.12l-41.72 113.83c-4 11 1.11 24.63 9.3 24.63h171.08c.98 9.5-3.74 19.01-10.57 19.01z" fill="#fff" opacity=".3"/><path d="m307.67 183.71h32.5v12h-32.5z" fill="#893c21"/><path d="m412.22 252.35a302.69 302.69 0 0 1 -54.57-82.82h18c3.85 0 7.4 3.19 9.3 8.37z" fill="#dec378" opacity=".6"/><path d="m417.35 329.64h-186.85c-4.73 0-9-2.45-12.16-6.91-4.8-6.87-5.91-17.23-2.77-25.78l45.64-124.47c2.78-7.59 8.5-12.3 14.93-12.3h95.57c6.43 0 12.15 4.71 14.93 12.3l45.64 124.47c3.14 8.56 2 18.92-2.77 25.78-3.12 4.45-7.44 6.91-12.16 6.91zm-141.21-157.47c-.85 0-2.54 1.38-3.66 4.43l-45.64 124.48c-2 5.53-.86 11.63 1.35 14.78.37.54 1.35 1.78 2.32 1.78h186.84c1 0 1.94-1.25 2.32-1.78 2.2-3.16 3.37-9.25 1.34-14.78l-45.64-124.47c-1.12-3.06-2.82-4.43-3.66-4.43z" fill="#893c21"/><path d="m252.73 207.38h142.38v12h-142.38z" fill="#893c21"/><path d="m348.7 266.54a16.54 16.54 0 0 0 -5.65-2.46 15.4 15.4 0 0 0 4-3.25 12.37 12.37 0 0 0 1.82-5.46c.1-1.31.32-6.79-4-10-3.31-2.44-7.1-3.41-12.19-3.73v-11.02h-6.83v10.94h-5.2v-10.94h-6.83v10.94h-13.42v7.09h3.95c1.08 0 3 .12 3.8 1s1 1.39 1 3.16 0 27.58 0 28.25a2.77 2.77 0 0 1 -.7 2c-.57.54-1.15.67-2.52.67h-4.08l-1.4 8.2h13.43v10.91h6.83v-10.84h5.2v10.91h6.83v-11.09c1.76-.1 3.41-.24 4.37-.36a22.7 22.7 0 0 0 10.46-3.64c4.11-2.87 5-7.37 5.14-11.9s-1.71-7.63-4.01-9.38zm-28-17.26s2.17-.19 4.31-.16a21.72 21.72 0 0 1 6.83 1 5.9 5.9 0 0 1 4.53 5.46 5.35 5.35 0 0 1 -2.94 5.2 16.63 16.63 0 0 1 -7 1.72c-2.49.1-5.68 0-5.68 0zm15.28 32.63a21.67 21.67 0 0 1 -7.72 1.85c-3 .22-7.56.13-7.56.13v-14.64s4.34-.22 7.72 0a21.86 21.86 0 0 1 7.5 1.72 6 6 0 0 1 .06 10.94z" fill="#893c21"/><path d="m110.12 166.17h47.78c3.85 0 7.4 3.2 9.3 8.37l45.64 124.46c4 11-1.11 24.63-9.3 24.63h-186.84c-8.19.01-13.33-13.63-9.3-24.63l45.6-124.46c1.9-5.17 5.45-8.37 9.3-8.37h47.78" fill="#f5e48f"/><path d="m203.54 323.64h-186.84c-8.19 0-13.33-13.64-9.3-24.64l45.6-124.46c1.9-5.17 5.45-8.37 9.3-8.37h13.16l-41.72 113.83c-4 11 1.11 24.63 9.3 24.63h171.07c.99 9.5-3.73 19.01-10.57 19.01z" fill="#fff" opacity=".3"/><path d="m93.87 183.71h32.5v12h-32.5z" fill="#893c21"/><path d="m198.42 252.35a302.69 302.69 0 0 1 -54.57-82.82h18c3.85 0 7.4 3.19 9.3 8.37z" fill="#dec378" opacity=".6"/><path d="m203.54 329.64h-186.84c-4.73 0-9-2.45-12.16-6.91-4.8-6.87-5.91-17.23-2.77-25.78l45.64-124.47c2.78-7.59 8.5-12.3 14.93-12.3h95.56c6.43 0 12.15 4.71 14.93 12.3l45.64 124.47c3.14 8.56 2 18.92-2.77 25.78-3.11 4.45-7.43 6.91-12.16 6.91zm-141.2-157.47c-.85 0-2.54 1.38-3.67 4.43l-45.67 124.48c-2 5.53-.86 11.62 1.34 14.78.29.42 1.32 1.78 2.32 1.78h186.88c1 0 1.95-1.25 2.32-1.78 2.2-3.16 3.37-9.25 1.34-14.78l-45.63-124.47c-1.12-3.06-2.82-4.43-3.66-4.43z" fill="#893c21"/><path d="m38.93 207.38h142.38v12h-142.38z" fill="#893c21"/><path d="m134.9 266.54a16.54 16.54 0 0 0 -5.65-2.46 15.4 15.4 0 0 0 4-3.25 12.37 12.37 0 0 0 1.82-5.46c.1-1.31.32-6.79-4-10-3.31-2.44-7.1-3.41-12.19-3.73v-11.02h-6.83v10.94h-5.2v-10.94h-6.85v10.94h-13.4v7.09h3.95c1.08 0 3 .12 3.8 1s1 1.39 1 3.16 0 27.58 0 28.25a2.77 2.77 0 0 1 -.7 2c-.57.54-1.15.67-2.52.67h-4.13l-1.4 8.27h13.4v10.91h6.83v-10.91h5.2v10.91h6.83v-11.09c1.76-.1 3.41-.24 4.37-.36a22.7 22.7 0 0 0 10.46-3.64c4.11-2.87 5-7.37 5.14-11.9s-1.61-7.63-3.93-9.38zm-28-17.26s2.17-.19 4.31-.16a21.72 21.72 0 0 1 6.83 1 5.9 5.9 0 0 1 4.53 5.46 5.35 5.35 0 0 1 -2.94 5.2 16.63 16.63 0 0 1 -7 1.72c-2.49.1-5.68 0-5.68 0zm15.28 32.63a21.67 21.67 0 0 1 -7.72 1.85c-3 .22-7.56.13-7.56.13v-14.64s4.34-.22 7.72 0a21.86 21.86 0 0 1 7.5 1.72 6 6 0 0 1 .06 10.94z" fill="#893c21"/><ellipse cx="259.51" cy="241.35" fill="#fff" rx="14.17" ry="3.83" transform="matrix(.24175254 -.97033793 .97033793 .24175254 -37.4 434.84)"/><ellipse cx="252.73" cy="268.24" fill="#fff" rx="7.08" ry="3.83" transform="matrix(.24175254 -.97033793 .97033793 .24175254 -68.63 448.65)"/><path d="m213.09 6h47.78c3.85 0 7.4 3.2 9.3 8.37l45.64 124.47c4 11-1.11 24.63-9.3 24.63h-186.84c-8.18 0-13.33-13.63-9.3-24.63l45.63-124.47c1.9-5.17 5.46-8.37 9.3-8.37h47.78" fill="#f5e48f"/><path d="m306.51 163.47h-186.84c-8.19 0-13.33-13.63-9.3-24.63l45.63-124.47c1.9-5.17 5.45-8.37 9.3-8.37h13.12l-41.71 113.78c-4 11 1.11 24.63 9.3 24.63h171.07c.99 9.59-3.73 19.06-10.57 19.06z" fill="#fff" opacity=".3"/><path d="m196.84 23.54h32.5v12h-32.5z" fill="#893c21"/><path d="m301.39 92.18a302.69 302.69 0 0 1 -54.57-82.82h18c3.85 0 7.4 3.19 9.3 8.37z" fill="#dec378" opacity=".6"/><path d="m306.51 169.46h-186.84c-4.73 0-9-2.45-12.16-6.91-4.8-6.87-5.91-17.23-2.77-25.78l45.63-124.47c2.79-7.59 8.51-12.3 14.93-12.3h95.57c6.43 0 12.13 4.71 14.93 12.3l45.64 124.47c3.14 8.55 2 18.92-2.77 25.78-3.11 4.45-7.43 6.91-12.16 6.91zm-141.21-157.46c-.85 0-2.54 1.38-3.66 4.43l-45.64 124.47c-2 5.53-.86 11.62 1.35 14.78.37.54 1.35 1.78 2.32 1.78h186.84c1 0 2-1.36 2.32-1.78 2.2-3.16 3.37-9.25 1.34-14.78l-45.63-124.47c-1.12-3.06-2.82-4.43-3.67-4.43z" fill="#893c21"/><path d="m141.9 47.2h142.38v12h-142.38z" fill="#893c21"/><path d="m237.87 106.36a16.54 16.54 0 0 0 -5.65-2.46 15.4 15.4 0 0 0 4-3.25 12.37 12.37 0 0 0 1.78-5.45c.1-1.31.32-6.79-4-10-3.31-2.44-7.1-3.41-12.19-3.73v-11.03h-6.81v10.94h-5.2v-10.94h-6.8v10.94h-13.43v7.09h3.95c1.08 0 3 .12 3.8 1s1 1.39 1 3.16 0 27.58 0 28.25a2.77 2.77 0 0 1 -.7 2c-.57.54-1.15.67-2.52.67h-4.1l-1.4 8.2h13.4v10.91h6.83v-10.84h5.17v10.91h6.83v-11.09c1.76-.1 3.41-.24 4.37-.36a22.7 22.7 0 0 0 10.46-3.64c4.11-2.87 5-7.37 5.14-11.9s-1.61-7.62-3.93-9.38zm-28-17.26s2.17-.19 4.31-.16a21.72 21.72 0 0 1 6.83 1 5.9 5.9 0 0 1 4.53 5.46 5.35 5.35 0 0 1 -2.94 5.2 16.63 16.63 0 0 1 -7 1.72c-2.49.1-5.68 0-5.68 0zm15.28 32.63a21.67 21.67 0 0 1 -7.72 1.85c-3 .22-7.56.13-7.56.13v-14.64s4.34-.22 7.72 0a21.86 21.86 0 0 1 7.5 1.72 6 6 0 0 1 .06 10.94z" fill="#893c21"/><g fill="#fff"><ellipse cx="146.53" cy="90.47" rx="14.17" ry="3.83" transform="matrix(.24175254 -.97033793 .97033793 .24175254 23.33 210.79)"/><ellipse cx="139.75" cy="117.36" rx="7.08" ry="3.83" transform="matrix(.24175254 -.97033793 .97033793 .24175254 -7.9 224.6)"/><ellipse cx="38.59" cy="264.95" rx="14.17" ry="3.83" transform="matrix(.24446129 -.96965905 .96965905 .24446129 -227.76 237.62)"/><ellipse cx="31.73" cy="291.82" rx="7.08" ry="3.83" transform="matrix(.24446129 -.96965905 .96965905 .24446129 -259 251.27)"/></g></svg>