<svg viewBox="0 0 454.41 552.27" xmlns="http://www.w3.org/2000/svg"><rect fill="#4b2e4c" height="276.34" opacity=".08" rx="11.82" width="442.26" x="12.15" y="82.52"/><rect fill="#584e60" height="100.1" rx="15.9" width="31.8" x="270.07" y="450.83"/><rect fill="#584e60" height="136.55" rx="17.82" width="35.64" x="268.54" y="357.9"/><circle cx="263.92" cy="13.39" fill="#ac8067" r="13.39"/><path d="m254.56 22.06a1.49 1.49 0 0 1 -1.05-.43c-2.32-2.27-3.06-5.95-3-8.63a12 12 0 0 1 1.2-5 1.5 1.5 0 0 1 2.68 1.35 8.91 8.91 0 0 0 -.88 3.77c-.07 2.11.55 4.9 2.07 6.4a1.5 1.5 0 0 1 -1.05 2.57z" fill="#c69a83" opacity=".8"/><circle cx="253.83" cy="11.26" fill="#c69a83" r="1.29"/><circle cx="255.99" cy="9.78" fill="#c69a83" r=".5"/><circle cx="257.2" cy="11.84" fill="#c69a83" r=".71"/><circle cx="255.57" cy="14.11" fill="#c69a83" r="1.01"/><circle cx="259.01" cy="9.92" fill="#c69a83" r=".47"/><circle cx="257.24" cy="9.33" fill="#c69a83" r=".34"/><circle cx="259.23" cy="12.02" fill="#c69a83" r=".53"/><circle cx="255.96" cy="8.15" fill="#c69a83" r=".13"/><rect fill="#4b2e4c" height="276.34" rx="11.82" width="442.26" y="70.18"/><path d="m23.2 90.79h149.86v22.79h-149.86z" fill="#67ffca"/><path d="m23.2 140.52h149.86v9.69h-149.86z" fill="#fff"/><path d="m23.2 163.45h149.86v9.69h-149.86z" fill="#fff"/><path d="m23.2 186.41h68.23v9.63h-68.23z" fill="#fff"/><path d="m31.84 319.65a11.15 11.15 0 1 1 11.16-11.15 11.16 11.16 0 0 1 -11.16 11.15zm0-17.29a6.15 6.15 0 1 0 6.16 6.14 6.14 6.14 0 0 0 -6.16-6.14z" fill="#67ffca"/><path d="m44.5 296.64a2 2 0 0 1 -1.17-.38 2 2 0 0 1 -.45-2.79l7.63-10.47a2 2 0 1 1 3.24 2.34l-7.63 10.53a2 2 0 0 1 -1.62.77zm73.62-16.06a2 2 0 0 1 -1.43-.59l-5.18-5.25a2 2 0 1 1 2.84-2.81l3.57 3.61 2-2.64a2 2 0 0 1 3.18 2.43l-3.42 4.47a2 2 0 0 1 -1.46.78zm-57.77-5.79a2 2 0 0 1 -1.62-3.18l7.64-10.52a2 2 0 1 1 3.23 2.35l-7.6 10.56a2 2 0 0 1 -1.65.79zm42.74-9.42a2 2 0 0 1 -1.42-.59l-9.13-9.25a2 2 0 1 1 2.84-2.81l9.14 9.25a2 2 0 0 1 -1.43 3.4zm26.91-.37a2 2 0 0 1 -1.21-.41 2 2 0 0 1 -.38-2.8l7.9-10.33a2 2 0 0 1 3.18 2.43l-7.9 10.33a2 2 0 0 1 -1.59.78zm-53.8-12.07a2 2 0 0 1 -1.61-3.17l6.18-8.53a2 2 0 0 1 1.47-.82 2 2 0 0 1 1.57.59l1.73 1.76a2 2 0 1 1 -2.84 2.81l-.08-.08-4.8 6.61a2 2 0 0 1 -1.62.83zm147.16-7.1a2 2 0 0 1 -1.5-.68l-8.6-9.75a2 2 0 0 1 3-2.64l8.6 9.75a2 2 0 0 1 -.18 2.82 2 2 0 0 1 -1.32.5zm-76.93-2.29a2 2 0 0 1 -1.59-3.21l7.89-10.33a2 2 0 0 1 3.18 2.43l-7.91 10.33a2 2 0 0 1 -1.57.78zm86-4.58a2 2 0 0 1 -1.53-3.29l8.37-9.95a2 2 0 0 1 3.06 2.58l-8.37 9.95a2 2 0 0 1 -1.55.75zm82-5.59a2 2 0 0 1 -1.4-.57l-9.26-9.13a2 2 0 0 1 2.8-2.85l9.26 9.13a2 2 0 0 1 -1.4 3.42zm9.65-.19a2 2 0 0 1 -1.49-3.34l8.67-9.69a2 2 0 0 1 2.74-.15 2 2 0 0 1 .16 2.83l-8.67 9.69a2 2 0 0 1 -1.49.66zm-118.53-7.6a2 2 0 0 1 -1.5-.68l-8.6-9.75a2 2 0 0 1 3-2.64l8.6 9.75a2 2 0 0 1 -1.5 3.32zm-42.68-3.49a2 2 0 0 1 -1.21-.41 2 2 0 0 1 -.37-2.8l7.89-10.33a2 2 0 1 1 3.18 2.43l-7.9 10.33a2 2 0 0 1 -1.64.78zm87-3.79a2 2 0 0 1 -1.53-3.29l8.37-9.95a2 2 0 0 1 3.06 2.58l-8.37 10a2 2 0 0 1 -1.6.66zm45.35-3.88a2 2 0 0 1 -1.41-.58l-9.26-9.12a2 2 0 1 1 2.81-2.85l9.26 9.12a2 2 0 0 1 -1.4 3.43zm46.78-1.42a2 2 0 0 1 -1.33-.51 2 2 0 0 1 -.16-2.82l8.69-9.67a2 2 0 1 1 3 2.66l-8.66 9.7a2 2 0 0 1 -1.54.64zm-154.38-7.71a2 2 0 0 1 -1.5-.68l-4.82-5.46-.51.67a2 2 0 0 1 -3.18-2.43l2-2.61a2 2 0 0 1 1.52-.78 2 2 0 0 1 1.57.67l6.43 7.3a2 2 0 0 1 -1.5 3.32zm79.54-7.69a2 2 0 0 1 -1.53-3.29l5-5.89a2 2 0 0 1 2.93-.14l3.78 3.72a2 2 0 0 1 -2.81 2.85l-2.23-2.2-3.57 4.24a2 2 0 0 1 -1.55.75zm92.84-4.69a2 2 0 0 1 -1.34-.51 2 2 0 0 1 -.15-2.82l8.66-9.69a2 2 0 1 1 3 2.66l-8.66 9.69a2 2 0 0 1 -1.51.67zm18-20.13a2 2 0 0 1 -1.49-3.33l8.66-9.7a2 2 0 1 1 3 2.67l-8.66 9.69a2 2 0 0 1 -1.51.67zm18-20.13a2 2 0 0 1 -1.49-3.34l6.07-6.79a2 2 0 1 1 3 2.67l-6.09 6.81a2 2 0 0 1 -1.49.65z" fill="#fff"/><rect fill="#665c6d" height="100.1" rx="15.9" width="31.8" x="228.4" y="450.83"/><rect fill="#665c6d" height="136.55" rx="17.82" width="35.64" x="226.48" y="357.9"/><path d="m286.83 535.62h14.6a16.65 16.65 0 0 1 16.65 16.65 0 0 0 0 1 0 0h-47.9a0 0 0 0 1 0 0 16.65 16.65 0 0 1 16.65-16.65z" fill="#4b2e4c"/><path d="m229.16 535.62h14.6a16.65 16.65 0 0 1 16.65 16.65 0 0 0 0 1 0 0h-47.9a0 0 0 0 1 0 0 16.65 16.65 0 0 1 16.65-16.65z" fill="#4b2e4c"/><g fill="#fff" opacity=".27"><rect height="15.03" rx="2.21" width="4.42" x="234.05" y="423.99"/><rect height="8.03" rx="2.21" width="4.42" x="234.05" y="443.22"/></g><circle cx="264.18" cy="381.83" fill="#665c6d" r="38.39"/><path d="m345.08 303.41-9.35 74.78-17.53-.58-7.59-82.97" fill="#f9c9ab"/><path d="m188.26 303.41 9.34 74.78 17.53-.58 7.6-82.97" fill="#f9c9ab"/><path d="m188.26 303.41 4.51 2.48a43.22 43.22 0 0 1 22.36 37.85v33.86l7.6-83" fill="#e19f7f" opacity=".46"/><path d="m344.94 303.41-4.51 2.48a43.2 43.2 0 0 0 -22.36 37.85v33.86l-7.6-83" fill="#e19f7f" opacity=".46"/><path d="m352 310.48a628.38 628.38 0 0 1 -8.4-64.38c-.8-10.18-1.67-21.19-8.4-28.86-5.58-6.37-14.12-9.13-22.22-11.62l-18.2-5.62-26.15-20.78c0-1.65 0-3.29-.05-4.94l-3.09 2.45-3.08-2.45c0 1.65 0 3.29-.05 4.94l-26.15 20.78-18.21 5.62c-8.1 2.49-16.64 5.25-22.23 11.62-6.72 7.67-7.6 18.68-8.39 28.86a631.18 631.18 0 0 1 -8.4 64.38c-.22 1.2-.33 2.69.67 3.38a3.21 3.21 0 0 0 1.59.4q17.81 1.32 35.67 1.34l.28.49c8.72 18.47 2.13 41.2 10 60.06 1 2.35 2.26 4.71 4.4 6.08a14.28 14.28 0 0 0 6.15 1.7 269.06 269.06 0 0 0 47.24.76c4.71-.29 10.24-.05 14.45-2.46 2.14-1.37 3.43-3.73 4.41-6.08 7.85-18.86 1.26-41.59 10-60.06l.29-.49q17.85 0 35.66-1.34a3.16 3.16 0 0 0 1.59-.4c.97-.69.86-2.18.62-3.38z" fill="#4f3e52"/><path d="m317.41 207a47.71 47.71 0 0 1 -70.81 4.39 47.74 47.74 0 0 0 50.62-10.64l15.1 4.63c1.68.56 3.4 1.09 5.09 1.62z" fill="#443547"/><path d="m300.09 196.63a.15.15 0 0 0 0-.3.15.15 0 1 0 0 .3z" fill="#f0cae7" opacity=".21"/><path d="m264.08 24a51.12 51.12 0 0 0 -51.08 51.15 16.47 16.47 0 0 0 16.47 16.47h69.29a16.46 16.46 0 0 0 16.46-16.47 51.11 51.11 0 0 0 -51.14-51.15z" fill="#ac8067"/><path d="m216.61 125.64h95.48a0 0 0 0 1 0 0v41.36a47.74 47.74 0 0 1 -47.74 47.74 47.74 47.74 0 0 1 -47.74-47.74v-41.4a0 0 0 0 1 0 .04z" fill="#ac8067"/><path d="m264.31 204.72a47.73 47.73 0 0 1 -47.74-47.72v10a47.74 47.74 0 0 0 47.74 47.74 47.74 47.74 0 0 0 47.69-47.74v-10a47.73 47.73 0 0 1 -47.69 47.72z" fill="#a0725c"/><circle cx="218.39" cy="112.42" fill="#f9c9ab" r="14.54"/><path d="m231.2 119.27a14.54 14.54 0 1 1 -21.2-18.71 14.21 14.21 0 0 0 -1.73 6.87 14.54 14.54 0 0 0 14.51 14.57 14.37 14.37 0 0 0 8.42-2.73z" fill="#e19f7f" opacity=".31"/><circle cx="218.39" cy="112.42" fill="#dc8c72" r="7.91"/><circle cx="311.51" cy="112.42" fill="#f9c9ab" r="14.54"/><path d="m324.32 119.27a14.54 14.54 0 1 1 -21.24-18.71 14.21 14.21 0 0 0 -1.73 6.87 14.54 14.54 0 0 0 14.55 14.57 14.37 14.37 0 0 0 8.42-2.73z" fill="#e19f7f" opacity=".31"/><circle cx="311.51" cy="112.42" fill="#dc8c72" r="7.91"/><path d="m297.59 44.91a47.5 47.5 0 0 0 -81.09 33.59v56.55a47.51 47.51 0 0 0 95 0v-56.55a47.29 47.29 0 0 0 -13.91-33.59zm-53.11 95.54.16.07" fill="#f9c9ab"/><path d="m307.94 78.14v5.29c0-12.07-4.85-18-12.72-25.86a43.07 43.07 0 0 0 -30.69-12.79c-24 0-43.4 18.55-43.4 42.65v-5.29c0-24.1 19.43-42.65 43.4-42.65a43.07 43.07 0 0 1 30.69 12.79c7.87 7.9 12.72 13.8 12.72 25.86z" fill="#e19f7f" opacity=".69"/><path d="m297.89 44.16a47.15 47.15 0 0 0 -33.59-14c-26.23 0-48.5 21.39-48.5 47.77l1 56.86a47.51 47.51 0 1 0 95 0l1-56.86c.01-13.2-6.3-25.13-14.91-33.77zm9.82 88.18a43.41 43.41 0 1 1 -86.81 0v-48c0-24.1 19.43-42.64 43.4-42.64a43 43 0 0 1 30.7 12.83c7.87 7.89 12.72 13.79 12.72 25.85z" fill="#ac8067"/><path d="m307.71 74.5v5.86c0-12.07-4.85-18-12.72-25.86a43 43 0 0 0 -30.69-12.79c-24 0-43.4 18.54-43.4 42.65v-5.86c0-24.1 19.43-42.64 43.4-42.64a43 43 0 0 1 30.7 12.79c7.86 7.89 12.71 13.79 12.71 25.85z" fill="#a0725c"/><rect fill="#d6836f" height="16.23" opacity=".42" rx="3.12" width="6.24" x="261.59" y="115.36"/><circle cx="282.59" cy="105.37" fill="#fff" r="13.15"/><circle cx="263.16" cy="169.58" fill="#ac8067" r="19.06"/><circle cx="246.73" cy="162.92" fill="#ac8067" r="19.06"/><circle cx="282.23" cy="162.47" fill="#ac8067" r="19.06"/><circle cx="264.51" cy="154.1" fill="#ac8067" r="19.06"/><path d="m311.81 140.28a51.43 51.43 0 0 0 .06-9.95h-.06v-32.33a5.89 5.89 0 0 0 -5.88 5.89v22.41a25 25 0 0 1 -4.46 14.51 19.08 19.08 0 0 1 -16.24 8.35l14.88 18.55a49.62 49.62 0 0 0 11.68-27.18z" fill="#ac8067"/><ellipse cx="282.59" cy="105.77" fill="#4f3e52" rx="4.54" ry="7.38"/><circle cx="246.36" cy="105.37" fill="#fff" r="13.15"/><ellipse cx="246.65" cy="105.77" fill="#4f3e52" rx="4.54" ry="7.38"/><rect fill="#ac8067" height="7.5" rx="3.75" width="29.14" x="232.08" y="75.02"/><rect fill="#ac8067" height="7.5" rx="3.75" width="29.14" x="268.11" y="73.66"/><circle cx="250.43" cy="103.57" fill="#fff" r="2.2"/><circle cx="286.65" cy="103.57" fill="#fff" r="2.2"/><path d="m243.45 149.15a19.27 19.27 0 0 1 -17-9.41 25.2 25.2 0 0 1 -3.81-13.56v-22.3a5.89 5.89 0 0 0 -5.84-5.88l-.3 23v9.3c.06 3.53-.06 6.46.2 9.36l.1.9v.51c.31 2.9.23 5.42.92 7.91a41.93 41.93 0 0 0 10.89 18.76z" fill="#ac8067"/><circle cx="278.9" cy="109.1" fill="#fff" opacity=".15" r="3.33"/><circle cx="242.35" cy="109.1" fill="#fff" opacity=".15" r="3.33"/><rect fill="#4f3e52" height="12.68" rx="6.34" width="38.42" x="245.1" y="18.72"/><path d="m283.51 25.06a6.33 6.33 0 0 1 -6.34 6.34h-25.73a6.34 6.34 0 0 1 -6.34-6.34 5.69 5.69 0 0 1 .22-1.61 6.31 6.31 0 0 0 6.12 4.72h25.73a6.33 6.33 0 0 0 6.13-4.72 6.07 6.07 0 0 1 .21 1.61z" fill="#413044"/><path d="m261.05 100.97h6.98v3h-6.98z" fill="#4f3e52"/><g fill="#fff" opacity=".51"><path d="m296.05 84.74-26.68 31.9a9.13 9.13 0 0 1 -.14-1.59v-15.65l12.26-14.66z"/><path d="m309.36 86.24-31.25 37.37h-.31a8.46 8.46 0 0 1 -5.66-2.15l30.71-36.72h1.67a8.54 8.54 0 0 1 4.84 1.5z"/></g><path d="m304.36 125.6h-26.73a10.08 10.08 0 0 1 -10.07-10.07v-21.73a10.08 10.08 0 0 1 10.07-10.06h26.73a10.07 10.07 0 0 1 10.06 10.06v21.73a10.08 10.08 0 0 1 -10.06 10.07zm-26.73-38.86a7.07 7.07 0 0 0 -7.07 7.06v21.73a7.08 7.08 0 0 0 7.07 7.07h26.73a7.07 7.07 0 0 0 7.06-7.07v-21.73a7.07 7.07 0 0 0 -7.06-7.06z" fill="#4f3e52"/><g fill="#fff" opacity=".51"><path d="m243.85 85.7-26.68 31.9a9.22 9.22 0 0 1 -.17-1.6v-15.65l12.28-14.65z"/><path d="m257.16 87.2-31.25 37.36h-.32a8.4 8.4 0 0 1 -5.65-2.15l30.71-36.71h1.67a8.46 8.46 0 0 1 4.84 1.5z"/></g><path d="m252.39 126.55h-26.74a10.07 10.07 0 0 1 -10.06-10.06v-21.74a10.08 10.08 0 0 1 10.06-10.06h26.74a10.08 10.08 0 0 1 10.06 10.06v21.74a10.07 10.07 0 0 1 -10.06 10.06zm-26.74-38.86a7.07 7.07 0 0 0 -7.06 7.06v21.74a7.07 7.07 0 0 0 7.06 7.06h26.74a7.07 7.07 0 0 0 7.06-7.06v-21.74a7.07 7.07 0 0 0 -7.06-7.06z" fill="#4f3e52"/><g fill="#a0725c"><circle cx="285.68" cy="198.37" r="3.46"/><circle cx="288.76" cy="192.48" r=".58"/><circle cx="284.73" cy="190.07" r="1.42"/><circle cx="280.85" cy="193.77" r=".71"/><circle cx="278.18" cy="189.75" r="1.1"/><circle cx="279.45" cy="200.56" r="1.27"/><circle cx="279.09" cy="196.94" r=".45"/><circle cx="273.95" cy="193.54" r=".48"/><circle cx="276.83" cy="193.31" r=".83"/><circle cx="274.45" cy="198.79" r=".5"/><circle cx="236.04" cy="45.87" r="2.08"/><circle cx="236.67" cy="42.16" r=".42"/><circle cx="234.29" cy="39.99" r=".33"/><circle cx="232.56" cy="43.59" r=".84"/><circle cx="234.09" cy="41.76" r=".39"/><circle cx="238.33" cy="40.31" r="1.24"/><circle cx="238.4" cy="42.85" r=".27"/><circle cx="232.81" cy="46.34" r=".47"/><circle cx="231.72" cy="45.79" r=".44"/><circle cx="231.89" cy="40.78" r=".46"/><circle cx="234.93" cy="43.04" r=".3"/><circle cx="241.15" cy="42.16" r="1.26"/></g><circle cx="327.43" cy="385.15" fill="#f9c9ab" r="14.8"/><circle cx="205.91" cy="385.15" fill="#f9c9ab" r="14.8"/><rect fill="#f9646b" height="22.08" rx="6.28" width="38.76" x="276.51" y="239.29"/><rect fill="#eab192" height="3.96" rx="1.98" width="10.38" x="192.13" y="363.58"/><rect fill="#eab192" height="3.96" rx="1.98" width="10.38" x="189.8" y="356.48"/><rect fill="#eab192" height="3.96" rx="1.98" width="10.38" x="188.86" y="349.37"/><rect fill="#fff" height="2.04" rx="1.02" transform="matrix(0 1 -1 0 324.57 -120.88)" width="9.9" x="217.78" y="100.82"/><rect fill="#fff" height="3.9" rx="1.02" width="2.04" x="221.7" y="109.03"/><path d="m397.09 130.7h8.76v25.41h-8.76z" fill="#67ffca" transform="matrix(.59496308 -.80375303 .80375303 .59496308 47.33 380.75)"/><path d="m397.09 130.7h8.76v25.41h-8.76z" fill="#67ffca" transform="matrix(.77692624 .62959163 -.62959163 .77692624 179.83 -220.76)"/><ellipse cx="256.49" cy="5.44" fill="#fff" rx="1.8" ry="1.17" transform="matrix(.81259245 -.58283231 .58283231 .81259245 44.9 150.52)"/><ellipse cx="259.96" cy="3.2" fill="#fff" rx=".81" ry=".53" transform="matrix(.81259245 -.58283231 .58283231 .81259245 46.86 152.12)"/><path d="m264.35 403.76a5.76 5.76 0 0 1 -5.76-5.76v-18.9h11.51v18.9a5.76 5.76 0 0 1 -5.75 5.76zm-4.76-23.66v17.9a4.76 4.76 0 1 0 9.51 0v-17.9z" fill="#4f3e52"/><path d="m306.18 394.06h-13.11a7.9 7.9 0 0 1 -7.89-7.89v-1.4h1v1.4a6.9 6.9 0 0 0 6.89 6.89h13.11z" fill="#4f3e52"/><path d="m237.89 394.06h-13.12v-1h13.12a6.9 6.9 0 0 0 6.89-6.89v-1.4h1v1.4a7.9 7.9 0 0 1 -7.89 7.89z" fill="#4f3e52"/><rect fill="#4f3e52" height="2.53" rx="1.27" width="8.11" x="265.49" y="387.93"/><rect fill="#4f3e52" height="2.53" rx="1.27" width="8.11" x="265.49" y="392.03"/><rect fill="#4f3e52" height="2.53" rx="1.27" width="8.11" x="265.49" y="396.13"/><path d="m208 112.54a8.86 8.86 0 0 1 1.74-5.18c.78-1.23-1.16-2.36-1.94-1.14a10.93 10.93 0 0 0 -2.05 6.32c.06 1.44 2.31 1.45 2.25 0z" fill="#fff"/><path d="m212.71 104.55a2 2 0 0 1 .89-.64 1.16 1.16 0 0 0 .79-1.39 1.15 1.15 0 0 0 -1.39-.78 4.16 4.16 0 0 0 -1.89 1.22 1.16 1.16 0 0 0 0 1.59 1.13 1.13 0 0 0 1.6 0z" fill="#fff"/><path d="m193.27 321 .81 7.92c.19 1.9 3.2 1.92 3 0l-.81-7.92c-.2-1.9-3.2-1.92-3 0z" fill="#fff"/><path d="m194.55 334.27a3.16 3.16 0 0 1 .14 1.16 1.5 1.5 0 0 0 1.5 1.5 1.54 1.54 0 0 0 1.5-1.5 6.51 6.51 0 0 0 -.25-2 1.5 1.5 0 0 0 -2.89.8z" fill="#fff"/><path d="m234.32 455.69v2.53a1.5 1.5 0 0 0 3 0v-2.53a1.5 1.5 0 0 0 -3 0z" fill="#fff"/><path d="m239.85 59a19.42 19.42 0 0 1 6.72-5.13c1.75-.81.23-3.4-1.51-2.59a21.42 21.42 0 0 0 -7.33 5.6c-1.25 1.46.87 3.6 2.12 2.12z" fill="#fff"/><path d="m251 52.09 1.9-.72a1.53 1.53 0 0 0 1.1-1.84 1.51 1.51 0 0 0 -1.85-1.05l-1.9.72a1.53 1.53 0 0 0 -1.09 1.8 1.51 1.51 0 0 0 1.84 1.09z" fill="#fff"/><path d="m220.2 147.5v9.64a1.5 1.5 0 0 0 3 0v-9.64a1.5 1.5 0 0 0 -3 0z" fill="#fff"/><circle cx="221.84" cy="164.38" fill="#fff" r="1.91"/></svg>