<svg viewBox="0 0 159.7 112.55" xmlns="http://www.w3.org/2000/svg"><path d="m62.12 68.93h5.8v11.03h-5.8z" fill="#cbd1d7" transform="matrix(.66405672 .7476822 -.7476822 .66405672 77.5 -23.6)"/><path d="m66.44 76.57a.52.52 0 0 1 -.37-.16.5.5 0 0 1 0-.71l2.93-2.64a.5.5 0 0 1 .67.74l-2.93 2.64a.46.46 0 0 1 -.3.13z" fill="#8da4b7"/><path d="m66.38 76.86a.49.49 0 0 1 -.49-.4 4 4 0 0 0 -2.89-3.27.5.5 0 0 1 -.37-.59.49.49 0 0 1 .59-.38 5 5 0 0 1 3.64 4 .51.51 0 0 1 -.4.59z" fill="#8da4b7"/><path d="m62.9 80.54a.42.42 0 0 1 -.32-.15l-3.88-4.39a.51.51 0 0 1 -.11-.31.44.44 0 0 1 .15-.3l4.09-3.64a.43.43 0 0 1 .61 0 .44.44 0 0 1 0 .61l-3.78 3.35 3.31 3.72 7.6-6.75-3.18-3.59-2.41 2a.43.43 0 1 1 -.56-.66l2.74-2.32a.42.42 0 0 1 .6 0l3.74 4.23a.43.43 0 0 1 0 .6l-8.25 7.33a.46.46 0 0 1 -.35.27z" fill="#332d28"/><path d="m71.92 73.53-4.24-.94a1.5 1.5 0 0 1 -.73-.43 1.55 1.55 0 0 1 -.51-.69l-1.34-4.14a2.93 2.93 0 0 1 .61-2.83l2.66-2.92a1.53 1.53 0 0 1 2.27 2.06l-2.59 2.85 1.07 3.28 3.36.74 2.59-2.84a1.53 1.53 0 1 1 2.27 2.06l-2.66 2.92a2.88 2.88 0 0 1 -2.76.88z" fill="#545655"/><path d="m30.21 108.63h-9.74l-2-19.16h13.74z" fill="#cbd1d7"/><path d="m18.73 89.97h12.96v4.52h-12.96z" fill="#8da4b7"/><path d="m19.87 103.31a.43.43 0 0 1 -.43-.39l-.66-6.27a.43.43 0 0 1 .39-.47.42.42 0 0 1 .47.38l.65 6.27a.41.41 0 0 1 -.38.47z" fill="#332d28"/><path d="m30.21 109.06h-9.74a.43.43 0 0 1 -.43-.38l-.37-3.53a.43.43 0 0 1 .86-.09l.33 3.14h9l1.91-18.29h-12.77l.48 4.61a.43.43 0 0 1 -.48.48.42.42 0 0 1 -.47-.38l-.53-5.1a.44.44 0 0 1 .43-.48h13.78a.44.44 0 0 1 .43.48l-2 19.16a.43.43 0 0 1 -.43.38z" fill="#332d28"/><circle cx="29.15" cy="105.16" fill="#332d28" r=".37"/><path d="m31.84 112.12h-13l1-4.51h11z" fill="#545655"/><path d="m22.53 107.61-1 4.52h-2.69l1-4.52z" fill="#6d6d6d"/><path d="m31.76 112.13h-2.69l-1-4.52h2.69z" fill="#303331"/><path d="m31.84 112.55h-13a.39.39 0 0 1 -.33-.16.46.46 0 0 1 -.09-.36l1-4.52a.44.44 0 0 1 .42-.33h4.26a.43.43 0 0 1 .43.43.44.44 0 0 1 -.43.43h-3.91l-.81 3.65h11.92l-.81-3.69h-4.38a.43.43 0 0 1 -.43-.43.43.43 0 0 1 .43-.43h4.73a.44.44 0 0 1 .42.33l1 4.52a.46.46 0 0 1 -.09.36.39.39 0 0 1 -.33.2z" fill="#332d28"/><path d="m46.37 108.63h-9.74l-2-19.16h13.74z" fill="#cbd1d7"/><path d="m34.89 89.97h12.96v4.52h-12.96z" fill="#8da4b7"/><path d="m36 103.31a.43.43 0 0 1 -.43-.39l-.57-6.27a.41.41 0 0 1 .38-.47.42.42 0 0 1 .47.38l.66 6.27a.43.43 0 0 1 -.39.47z" fill="#332d28"/><path d="m46.37 109.06h-9.74a.43.43 0 0 1 -.43-.38l-.37-3.53a.43.43 0 0 1 .86-.09l.31 3.14h9l1.9-18.29h-12.79l.48 4.61a.43.43 0 0 1 -.86.09l-.53-5.09a.44.44 0 0 1 .43-.48h13.74a.42.42 0 0 1 .32.15.44.44 0 0 1 .11.33l-2 19.16a.43.43 0 0 1 -.43.38z" fill="#332d28"/><path d="m48 112.12h-12.99l1-4.51h10.99z" fill="#545655"/><path d="m38.7 107.61-1 4.52h-2.69l1-4.52z" fill="#6d6d6d"/><path d="m47.92 112.13h-2.69l-1-4.52h2.69z" fill="#303331"/><path d="m48 112.55h-13a.39.39 0 0 1 -.33-.16.46.46 0 0 1 -.09-.36l1-4.52a.44.44 0 0 1 .42-.33h4.26a.43.43 0 0 1 .43.43.43.43 0 0 1 -.43.43h-3.91l-.81 3.65h11.92l-.81-3.69h-4.38a.43.43 0 0 1 -.43-.43.43.43 0 0 1 .43-.43h4.73a.44.44 0 0 1 .42.33l1 4.52a.42.42 0 0 1 -.09.36.39.39 0 0 1 -.33.2z" fill="#332d28"/><path d="m33.71 13.51a.36.36 0 0 1 -.27-.12.38.38 0 0 1 0-.53l1.28-1.22-2.9-9.37a.38.38 0 0 1 .72-.27l3 9.6a.4.4 0 0 1 -.1.39l-1.44 1.42a.42.42 0 0 1 -.29.1z" fill="#332d28"/><path d="m33.6 25.53a.38.38 0 0 1 -.35-.24l-3.38-8.75a.37.37 0 0 1 .09-.41l2.29-2.13a.37.37 0 0 1 .53 0 .38.38 0 0 1 0 .53l-2.11 2 3.33 8.47a.37.37 0 0 1 -.22.48.31.31 0 0 1 -.18.05z" fill="#332d28"/><path d="m58.83 31.29h1.57a0 0 0 0 1 0 0v13a0 0 0 0 1 0 0h-1.57a2.24 2.24 0 0 1 -2.24-2.24v-8.52a2.24 2.24 0 0 1 2.24-2.24z" fill="#fcba59" transform="matrix(-1 0 0 -1 116.99 75.6)"/><path d="m56.9 31.29h1.57a0 0 0 0 1 0 0v13a0 0 0 0 1 0 0h-1.57a2.24 2.24 0 0 1 -2.24-2.24v-8.52a2.24 2.24 0 0 1 2.24-2.24z" fill="#f49519" transform="matrix(-1 0 0 -1 113.14 75.6)"/><path d="m58.17 44.7h-1.58a.4.4 0 0 1 -.4-.4v-13a.4.4 0 0 1 .4-.4h1.58a2.64 2.64 0 0 1 2.63 2.64v8.54a2.63 2.63 0 0 1 -2.63 2.62zm-1.17-.79h1.18a1.84 1.84 0 0 0 1.82-1.84v-8.54a1.84 1.84 0 0 0 -1.83-1.84h-1.17z" fill="#332d28"/><path d="m58.08 34.48a.4.4 0 0 1 -.4-.4v-2.43a.4.4 0 0 1 .8 0v2.43a.4.4 0 0 1 -.4.4z" fill="#332d28"/><path d="m55.37 66.02h5.79v9.6h-5.79z" fill="#cbd1d7" transform="matrix(-.90475273 .42593721 -.42593721 -.90475273 141.15 110.08)"/><path d="m56.17 72.46c1.6-3.72 4.06-4.24 4.06-4.24l-1.39-3-4.9 2.36s1.68 6.17 2.23 4.88z" fill="#8da4b7"/><path d="m57.69 76.83a.45.45 0 0 1 -.39-.25l-4.09-8.68a.44.44 0 0 1 .21-.58l5.23-2.46a.44.44 0 0 1 .58.21l4.09 8.68a.47.47 0 0 1 0 .33.43.43 0 0 1 -.22.24l-5.24 2.47a.39.39 0 0 1 -.17.04zm-3.52-8.91 3.72 7.91 4.46-2.1-3.72-7.91z" fill="#332d28"/><circle cx="53.42" cy="62" fill="#6d6d6d" r="6.21"/><circle cx="51.87" cy="63.06" fill="#545655" r="6.21"/><path d="m53.42 68.65a6.65 6.65 0 1 1 6.65-6.65 6.65 6.65 0 0 1 -6.65 6.65zm0-12.43a5.78 5.78 0 1 0 5.78 5.78 5.8 5.8 0 0 0 -5.78-5.78z" fill="#332d28"/><circle cx="61.42" cy="77.2" fill="#545655" r="4.17"/><path d="m61.42 79.87a2.67 2.67 0 1 1 2.67-2.67 2.67 2.67 0 0 1 -2.67 2.67zm0-4.33a1.67 1.67 0 1 0 1.67 1.66 1.66 1.66 0 0 0 -1.67-1.66z" opacity=".5"/><path d="m60.12 71.78a.36.36 0 0 1 -.33-.21l-1.79-3.57a.36.36 0 0 1 .17-.5.37.37 0 0 1 .5.17l1.79 3.57a.39.39 0 0 1 -.17.51.47.47 0 0 1 -.17.03z" fill="#332d28"/><path d="m61.42 81.8a4.6 4.6 0 1 1 4.58-4.6 4.61 4.61 0 0 1 -4.58 4.6zm0-8.34a3.74 3.74 0 1 0 3.74 3.74 3.75 3.75 0 0 0 -3.74-3.74z" fill="#332d28"/><path d="m3.71 75.73h5.8v11.03h-5.8z" fill="#cbd1d7" transform="matrix(.99430079 -.10661115 .10661115 .99430079 -8.63 1.17)"/><path d="m9.14 85.43a.5.5 0 0 1 -.5-.45l-.39-3.92a.5.5 0 0 1 1-.1l.38 3.92a.49.49 0 0 1 -.44.54z" fill="#8da4b7"/><path d="m6.06 82.25a4.83 4.83 0 0 1 -2.28-.55.49.49 0 0 1 -.18-.7.5.5 0 0 1 .68-.19 4 4 0 0 0 4.32-.48.51.51 0 0 1 .7.1.5.5 0 0 1 -.1.7 5.1 5.1 0 0 1 -3.14 1.12z" fill="#8da4b7"/><path d="m6.31 65.89h5.79v9.6h-5.79z" fill="#cbd1d7" transform="matrix(.90475273 .42593721 -.42593721 .90475273 30.99 2.81)"/><path d="m11.87 72.82a8.69 8.69 0 0 0 -4.62-4.76l1.38-2.94 5.24 2.46s-1.45 6.53-2 5.24z" fill="#8da4b7"/><path d="m9.78 76.7a.58.58 0 0 1 -.18 0l-5.24-2.51a.44.44 0 0 1 -.21-.57l1.2-2.54a.43.43 0 0 1 .78.37l-1 2.15 4.45 2.1 3.73-7.91-4.46-2.1-1.85 3.97a.43.43 0 1 1 -.78-.36l2.05-4.37a.45.45 0 0 1 .25-.22.42.42 0 0 1 .33 0l5.23 2.46a.44.44 0 0 1 .21.58l-4.09 8.68a.42.42 0 0 1 -.42.27z" fill="#332d28"/><path d="m24.48 53.43h18.64v2.26h-18.64z" fill="#545655"/><path d="m24.48 55.69h18.64v2.26h-18.64z" fill="#545655"/><path d="m24.48 50.26h18.64v2.26h-18.64z" fill="#303331"/><path d="m24.48 52.52h18.64v2.26h-18.64z" fill="#303331"/><path d="m36.16 53.9h6.94v4.24h-6.94z" fill="#303331"/><path d="m9.45 31.29h1.55a0 0 0 0 1 0 0v13a0 0 0 0 1 0 0h-1.55a2.24 2.24 0 0 1 -2.24-2.24v-8.52a2.24 2.24 0 0 1 2.24-2.24z" fill="#fcba59"/><path d="m11.19 31.29h1.57a0 0 0 0 1 0 0v13a0 0 0 0 1 0 0h-1.57a2.24 2.24 0 0 1 -2.24-2.24v-8.52a2.24 2.24 0 0 1 2.24-2.24z" fill="#f49519"/><rect fill="#545655" height="30.85" rx="4.83" width="45.55" x="11.02" y="22.35"/><path d="m56.19 27.19v21.18a4.84 4.84 0 0 1 -4.83 4.84h-4a4.84 4.84 0 0 0 4.83-4.84v-21.18a4.84 4.84 0 0 0 -4.83-4.84h4a4.84 4.84 0 0 1 4.83 4.84z" fill="#303331"/><path d="m11.27 27.19v21.18a4.84 4.84 0 0 0 4.83 4.84h3.95a4.84 4.84 0 0 1 -4.83-4.84v-21.18a4.84 4.84 0 0 1 4.83-4.84h-3.95a4.84 4.84 0 0 0 -4.83 4.84z" fill="#6d6d6d"/><circle cx="14.05" cy="61.87" fill="#6d6d6d" r="6.21"/><circle cx="15.6" cy="62.93" fill="#545655" r="6.21"/><path d="m4.41 87.65a.43.43 0 0 1 -.41-.37l-.46-3.57a.43.43 0 0 1 .37-.48.46.46 0 0 1 .49.37l.4 3.15 4.77-.52-1.11-10.11-5 .53.54 5a.43.43 0 0 1 -.85.09l-.59-5.45a.43.43 0 0 1 .44-.45l5.8-.63a.47.47 0 0 1 .32.1.4.4 0 0 1 .15.29l1.18 11a.44.44 0 0 1 -.38.48l-5.62.61z" fill="#332d28"/><path d="m14.05 68.51a6.65 6.65 0 0 1 -6.65-6.64 6.54 6.54 0 0 1 .39-2.23.43.43 0 1 1 .81.29 5.78 5.78 0 1 0 1.16-1.93.43.43 0 0 1 -.64-.57 6.64 6.64 0 1 1 4.93 11.09z" fill="#332d28"/><path d="m50.75 91.8h-33.91a3.2 3.2 0 0 1 -3.17-2.8l-2.67-26.22a4.84 4.84 0 0 1 4.83-4.84h35.91a4.84 4.84 0 0 1 4.83 4.84l-2.65 26.22a3.2 3.2 0 0 1 -3.17 2.8z" fill="#545655"/><path d="m56.72 62.5-2.65 26.22a3.21 3.21 0 0 1 -3.18 2.8h-4.09a3.2 3.2 0 0 0 3.2-2.8l2.62-26.22a4.84 4.84 0 0 0 -4.83-4.84h4.09a4.84 4.84 0 0 1 4.84 4.84z" fill="#303331"/><path d="m11.08 62.5 2.65 26.22a3.21 3.21 0 0 0 3.18 2.8h4.09a3.2 3.2 0 0 1 -3.17-2.8l-2.65-26.22a4.84 4.84 0 0 1 4.82-4.84h-4.08a4.84 4.84 0 0 0 -4.84 4.84z" fill="#6d6d6d"/><path d="m50.75 92.23h-33.91a3.64 3.64 0 0 1 -3.6-3.18l-.59-5.88a.43.43 0 0 1 .35-.47.42.42 0 0 1 .47.39l.63 5.91a2.76 2.76 0 0 0 2.74 2.42h33.91a2.78 2.78 0 0 0 2.75-2.43l2.64-26.21a4.4 4.4 0 0 0 -4.4-4.36h-35.89a4.41 4.41 0 0 0 -4.4 4.41l1.81 17.91a.43.43 0 0 1 -.38.47.43.43 0 0 1 -.47-.39l-1.82-18a5.28 5.28 0 0 1 5.26-5.31h35.89a5.27 5.27 0 0 1 5.26 5.27l-2.65 26.22a3.64 3.64 0 0 1 -3.6 3.23z" fill="#332d28"/><path d="m47.39 88.44h-27.18a2.56 2.56 0 0 1 -2.55-2.25l-2.12-21a3.88 3.88 0 0 1 3.87-3.88h28.77a3.88 3.88 0 0 1 3.87 3.88l-2.12 21a2.56 2.56 0 0 1 -2.54 2.25z" fill="#c0ecff"/><path d="m25.15 88.44h-4.94a2.56 2.56 0 0 1 -2.55-2.24l-2.12-21a3.88 3.88 0 0 1 3.87-3.88h4.94a3.88 3.88 0 0 0 -3.87 3.88l2.12 21a2.56 2.56 0 0 0 2.55 2.24z" fill="#fff" opacity=".65"/><path d="m42.79 88.44h4.94a2.56 2.56 0 0 0 2.55-2.24l2.12-21a3.88 3.88 0 0 0 -3.87-3.88h-4.94a3.88 3.88 0 0 1 3.87 3.88l-2.12 21a2.56 2.56 0 0 1 -2.55 2.24z" fill="#93cee2"/><rect fill="#c0ecff" height="23.76" rx="3.26" width="39.28" x="14.16" y="25.8"/><path d="m7.21 40.4a.43.43 0 0 1 -.43-.4v-3.9a.43.43 0 0 1 .43-.43.43.43 0 0 1 .43.43v3.9a.43.43 0 0 1 -.43.4z" fill="#332d28"/><path d="m11 44.7h-1.55a2.64 2.64 0 0 1 -2.64-2.63.4.4 0 0 1 .8 0 1.84 1.84 0 0 0 1.84 1.84h1.17v-12.22h-1.17a1.84 1.84 0 0 0 -1.84 1.84.4.4 0 0 1 -.8 0 2.64 2.64 0 0 1 2.64-2.64h1.55a.4.4 0 0 1 .4.4v13a.4.4 0 0 1 -.4.41z" fill="#332d28"/><path d="m43.11 56.12h-18.63a.43.43 0 0 1 -.43-.43v-2.26a.43.43 0 0 1 .43-.43h18.63a.43.43 0 0 1 .43.43v2.26a.43.43 0 0 1 -.43.43zm-18.2-.86h17.77v-1.4h-17.77z" fill="#332d28"/><path d="m43.11 58.38h-18.63a.43.43 0 0 1 -.43-.43v-2.26a.43.43 0 0 1 .43-.43h4.66a.43.43 0 0 1 0 .86h-4.23v1.4h17.77v-1.4h-11.28a.43.43 0 1 1 0-.86h11.71a.43.43 0 0 1 .43.43v2.31a.43.43 0 0 1 -.43.38z" fill="#332d28"/><circle cx="6.05" cy="77.07" fill="#545655" r="4.17"/><path d="m6.05 79.74a2.67 2.67 0 1 1 2.66-2.67 2.68 2.68 0 0 1 -2.66 2.67zm0-4.33a1.67 1.67 0 1 0 1.66 1.66 1.66 1.66 0 0 0 -1.66-1.66z" opacity=".5"/><path d="m11.1 86.58-3.78-2.16a1.43 1.43 0 0 0 -.83-.17 1.43 1.43 0 0 0 -.83.17l-3.78 2.16a2.89 2.89 0 0 0 -1.45 2.5v4a1.54 1.54 0 1 0 3.07-.08v-3.81l3-1.71 3 1.71v3.81a1.54 1.54 0 1 0 3.07 0v-4a2.89 2.89 0 0 0 -1.47-2.42z" fill="#545655"/><path d="m11 95.07a2 2 0 0 1 -2-2v-3.56l-2.51-1.51-2.56 1.51v3.59a2 2 0 1 1 -3.93 0v-3.95a3.33 3.33 0 0 1 1.66-2.87l3.78-2.16a1.88 1.88 0 0 1 1.07-.23 1.82 1.82 0 0 1 1 .23l3.77 2.16a3.32 3.32 0 0 1 1.72 2.87v3.95a2 2 0 0 1 -2 1.97zm-4.51-7.95a.38.38 0 0 1 .21 0l3 1.71a.44.44 0 0 1 .21.38v3.89a1.11 1.11 0 1 0 2.21 0v-3.95a2.48 2.48 0 0 0 -1.24-2.15l-3.77-2.13a1 1 0 0 0 -.6-.12 1.17 1.17 0 0 0 -.64.11l-3.78 2.14a2.47 2.47 0 0 0 -1.23 2.15v3.95a1.11 1.11 0 1 0 2.21 0v-3.84a.44.44 0 0 1 .21-.38l3-1.71a.38.38 0 0 1 .21-.05z" fill="#332d28"/><path d="m28.21 49.67h-6.65l10.81-23.67h6.65z" fill="#fff" opacity=".65"/><path d="m47.25 49.67h-17.64l10.81-23.67h6.65z" fill="#fff" opacity=".65"/><path d="m49.79 48.12h-7.29a.43.43 0 0 1 0-.86h7.29a.43.43 0 1 1 0 .86z" fill="#332d28"/><path d="m41.09 48.12h-1.82a.43.43 0 0 1 0-.86h1.82a.43.43 0 0 1 0 .86z" fill="#332d28"/><path d="m46.88 86.84h-6.1a.37.37 0 0 1 -.38-.37.38.38 0 0 1 .38-.38h6.1a.38.38 0 0 1 .37.38.37.37 0 0 1 -.37.37z" fill="#332d28"/><path d="m14.36 78.75a.43.43 0 0 1 -.43-.38l-1-8.54a.45.45 0 0 1 .38-.48.44.44 0 0 1 .48.38l1 8.54a.43.43 0 0 1 -.38.48z" fill="#332d28"/><path d="m2.64 88.39a.43.43 0 0 1 -.21-.8l3.28-1.91a.44.44 0 0 1 .59.16.43.43 0 0 1 -.16.59l-3.28 1.9a.43.43 0 0 1 -.22.06z" fill="#332d28"/><path d="m7.35 71.7a.41.41 0 0 1 -.19 0 .42.42 0 0 1 -.2-.57l1.79-3.63a.43.43 0 0 1 .58-.19.42.42 0 0 1 .19.57l-1.79 3.58a.43.43 0 0 1 -.38.24z" fill="#332d28"/><path d="m6.05 81.67a4.6 4.6 0 1 1 4.6-4.6 4.6 4.6 0 0 1 -4.6 4.6zm0-8.34a3.74 3.74 0 1 0 3.74 3.74 3.74 3.74 0 0 0 -3.74-3.74z" fill="#332d28"/><circle cx="33.56" cy="74.23" fill="#fff" r="9.6"/><path d="m33.56 84.21a10 10 0 1 1 10-10 10 10 0 0 1 -10 10zm0-19.2a9.23 9.23 0 1 0 9.23 9.22 9.24 9.24 0 0 0 -9.23-9.23z" fill="#332d28"/><path d="m40.18 74.23c0-.91-1-1.71-2.79-2.21.46-1.78.27-3-.52-3.51s-2 0-3.31 1.3c-1.3-1.26-2.53-1.75-3.31-1.3s-1 1.73-.52 3.51c-1.78.5-2.79 1.3-2.79 2.21s1 1.71 2.79 2.21c-.46 1.78-.27 3 .52 3.51a1.29 1.29 0 0 0 .67.17 4.31 4.31 0 0 0 2.64-1.47 4.31 4.31 0 0 0 2.64 1.47 1.29 1.29 0 0 0 .67-.17c.79-.46 1-1.73.52-3.51 1.78-.5 2.79-1.29 2.79-2.21zm-6.62 3.62a12.17 12.17 0 0 1 -.8-.95h.8.8a12.17 12.17 0 0 1 -.8.95zm0-7.24a12.17 12.17 0 0 1 .8 1 14.23 14.23 0 0 0 -1.6 0 12.17 12.17 0 0 1 .8-1zm-1.21 5.72a15.65 15.65 0 0 1 -1.21-2.1 15 15 0 0 1 1.21-2.09 16.29 16.29 0 0 1 2.42 0 15 15 0 0 1 1.23 2.09 15.65 15.65 0 0 1 -1.21 2.1 16.29 16.29 0 0 1 -2.44 0zm-1.13-3.45-.38.71q-.24-.59-.42-1.17c.4-.09.81-.16 1.22-.21zm-.38 2 .38.7.42.68c-.43-.06-.84-.13-1.22-.22.12-.39.26-.78.42-1.16zm5.44 0c.16.38.3.77.42 1.16-.4.09-.81.16-1.22.22.29-.45.52-.91.8-1.38zm0-1.29a15.52 15.52 0 0 0 -.8-1.38c.41.05.82.12 1.22.21q-.18.58-.42 1.17zm.31-4.6c.55.31.65 1.41.27 2.89a15.48 15.48 0 0 0 -1.78-.27 15.36 15.36 0 0 0 -1.08-1.4c1-1.05 2.05-1.54 2.59-1.21zm-6.06 0a.71.71 0 0 1 .39-.1 3.87 3.87 0 0 1 2.25 1.32 15.36 15.36 0 0 0 -1.17 1.4 13.42 13.42 0 0 0 -1.78.27c-.34-1.48-.22-2.58.31-2.88zm-3 5.24c0-.63.9-1.26 2.37-1.68a12.73 12.73 0 0 0 .66 1.68 15 15 0 0 0 -.66 1.68c-1.5-.41-2.4-1.05-2.4-1.68zm3 5.24c-.55-.31-.65-1.41-.27-2.89a13.42 13.42 0 0 0 1.78.27 15.5 15.5 0 0 0 1.13 1.41c-1.07 1.05-2.1 1.52-2.64 1.21zm6.06 0a.71.71 0 0 1 -.39.1 3.89 3.89 0 0 1 -2.2-1.31 15.5 15.5 0 0 0 1.13-1.41 13.42 13.42 0 0 0 1.78-.27c.33 1.48.23 2.58-.32 2.89zm.65-3.56a11.8 11.8 0 0 0 -.65-1.68 11.43 11.43 0 0 0 .65-1.68c1.48.42 2.38 1 2.38 1.68s-.9 1.27-2.38 1.68z" fill="#61dafb"/><circle cx="33.56" cy="74.23" fill="#61dafb" r="1.18"/><path d="m18.45 82a.38.38 0 0 1 -.37-.34l-.7-6.21a.36.36 0 0 1 .33-.41.38.38 0 0 1 .41.33l.71 6.21a.39.39 0 0 1 -.33.42z" fill="#fff"/><path d="m16 39.39a.5.5 0 0 1 -.5-.5v-7.6a.5.5 0 0 1 1 0v7.6a.5.5 0 0 1 -.5.5z" fill="#fff"/><path d="m9 40a.38.38 0 0 1 -.38-.38v-4.53a.38.38 0 0 1 .38-.37.37.37 0 0 1 .37.37v4.48a.37.37 0 0 1 -.37.43z" fill="#fff"/><path d="m6.05 80.19a3.12 3.12 0 1 1 3.12-3.12 3.12 3.12 0 0 1 -3.12 3.12zm0-5.37a2.26 2.26 0 1 0 2.25 2.25 2.26 2.26 0 0 0 -2.25-2.25z" fill="#332d28"/><path d="m61.42 80.32a3.12 3.12 0 1 1 3.12-3.12 3.12 3.12 0 0 1 -3.12 3.12zm0-5.37a2.26 2.26 0 1 0 2.26 2.25 2.25 2.25 0 0 0 -2.26-2.2z" fill="#332d28"/><rect fill="#332d28" height="6.12" rx="1.47" width="2.94" x="28.48" y="31.02"/><circle cx="28.48" cy="33.53" fill="#fff" r="1.12"/><rect fill="#332d28" height="6.12" rx="1.47" width="2.94" x="35.97" y="31.02"/><circle cx="35.97" cy="33.53" fill="#fff" r="1.12"/><circle cx="32.69" cy="2.94" fill="#f49519" r="2.57"/><path d="m31.42 5.05a.51.51 0 0 1 -.42-.18 2.8 2.8 0 0 1 0-3.69.5.5 0 0 1 .71 0 .49.49 0 0 1 0 .7 1.8 1.8 0 0 0 0 2.39.5.5 0 0 1 -.08.7.45.45 0 0 1 -.21.08z" fill="#fcba59"/><path d="m32.69 5.89a2.95 2.95 0 1 1 2.94-2.95 2.95 2.95 0 0 1 -2.94 2.95zm0-5.14a2.2 2.2 0 1 0 2.19 2.19 2.19 2.19 0 0 0 -2.19-2.19z" fill="#332d28"/><rect fill="#303331" height="1.85" rx=".93" width="11.14" x="35.72" y="22.35"/><rect fill="#6d6d6d" height="1.85" rx=".93" width="11.14" x="19.58" y="49.67"/><rect fill="#6d6d6d" height="1.85" rx=".93" width="11.14" x="19.58" y="22.35"/><rect fill="#fff" height="1.85" opacity=".65" rx=".93" width="11.14" x="24.56" y="86.43"/><g fill="#332d28"><path d="m51.74 53.58h-35.89a5.21 5.21 0 0 1 -5.21-5.21v-21.18a5.21 5.21 0 0 1 5.21-5.19h35.89a5.21 5.21 0 0 1 5.26 5.19v21.18a5.21 5.21 0 0 1 -5.26 5.21zm-35.89-30.85a4.46 4.46 0 0 0 -4.46 4.46v21.18a4.46 4.46 0 0 0 4.46 4.46h35.89a4.46 4.46 0 0 0 4.46-4.46v-21.18a4.46 4.46 0 0 0 -4.46-4.46z"/><path d="m50.12 50.09h-32.65a3.68 3.68 0 0 1 -3.68-3.68v-17.25a3.69 3.69 0 0 1 3.68-3.69h2.58a.43.43 0 1 1 0 .86h-2.58a2.83 2.83 0 0 0 -2.82 2.83v17.25a2.83 2.83 0 0 0 2.82 2.82h32.65a2.82 2.82 0 0 0 2.82-2.82v-17.25a2.83 2.83 0 0 0 -2.82-2.83h-26.12a.43.43 0 0 1 0-.86h26.12a3.69 3.69 0 0 1 3.68 3.69v17.25a3.68 3.68 0 0 1 -3.68 3.68z"/><path d="m47.38 88.87h-27.17a3 3 0 0 1 -3-2.62l-1.33-13.42a.43.43 0 1 1 .85-.08l1.36 13.4a2.13 2.13 0 0 0 2.12 1.85h27.17a2.13 2.13 0 0 0 2.12-1.87l2.13-21a3.45 3.45 0 0 0 -3.45-3.4h-28.77a3.45 3.45 0 0 0 -3.41 3.45l.48 4.73a.43.43 0 0 1 -.39.47.42.42 0 0 1 -.47-.38l-.48-4.78a4.32 4.32 0 0 1 4.3-4.35h28.74a4.31 4.31 0 0 1 4.3 4.31l-2.12 21.06a3 3 0 0 1 -2.98 2.63z"/><path d="m35.35 93.03h12.48v.5h-12.48z"/><path d="m36.38 105.97h10.25v.5h-10.25z"/><path d="m35.37 98.02h12.48v.5h-12.48z"/><path d="m35.37 96.7h12.48v.5h-12.48z"/><path d="m35.37 99.34h11.81v.5h-11.81z"/><path d="m36.03 100.66h11.15v.5h-11.15z"/><path d="m36.03 101.97h11.12v.5h-11.12z"/><path d="m18.96 93.03h12.48v.5h-12.48z"/><path d="m19.99 105.97h10.25v.5h-10.25z"/><path d="m18.99 98.02h12.48v.5h-12.48z"/><path d="m18.99 96.7h12.48v.5h-12.48z"/><path d="m18.99 99.34h11.8v.5h-11.8z"/><path d="m19.64 100.66h11.15v.5h-11.15z"/><path d="m19.64 101.97h11.12v.5h-11.12z"/></g><rect fill="#fff" height="1.57" opacity=".65" rx=".79" transform="matrix(.10661115 .99430079 -.99430079 .10661115 121.53 66.85)" width="9.45" x="18.83" y="100.27"/><circle cx="37.54" cy="105.16" fill="#332d28" r=".37"/><circle cx="20.69" cy="89.97" fill="#332d28" r=".37"/><circle cx="5.92" cy="77.07" fill="#332d28" r=".37"/><circle cx="61.42" cy="77.07" fill="#332d28" r=".37"/><path d="m66.92 64.85a.47.47 0 0 1 -.34-.13.5.5 0 0 1 0-.71l2.15-2.34a.51.51 0 0 1 .71 0 .51.51 0 0 1 0 .71l-2.16 2.35a.46.46 0 0 1 -.36.12z" fill="#6d6d6d"/><path d="m74 71.69a.46.46 0 0 1 -.33-.13.5.5 0 0 1 0-.71l2.15-2.35a.5.5 0 0 1 .7 0 .5.5 0 0 1 0 .71l-2.15 2.35a.52.52 0 0 1 -.37.13z" fill="#303331"/><path d="m72.59 74a3.42 3.42 0 0 1 -.71-.07l-4.25-.93a2 2 0 0 1 -.94-.55 1.9 1.9 0 0 1 -.61-.86l-1.34-4.14a3.35 3.35 0 0 1 .7-3.25l2.66-2.92a2 2 0 0 1 2.77-.14 1.94 1.94 0 0 1 .64 1.36 1.91 1.91 0 0 1 -.51 1.38l-2.41 2.66.25.77a.43.43 0 0 1 -.28.54.42.42 0 0 1 -.54-.27l-.33-1a.45.45 0 0 1 .09-.43l2.59-2.84a1.11 1.11 0 0 0 -.08-1.56 1.09 1.09 0 0 0 -1.55.08l-2.66 2.92a2.45 2.45 0 0 0 -.52 2.4l1.34 4.14a1 1 0 0 0 .37.49 1.15 1.15 0 0 0 .55.35l4.24.94a2.46 2.46 0 0 0 2.35-.75l2.66-2.92a1.11 1.11 0 0 0 .28-.8 1.08 1.08 0 0 0 -.36-.76 1.11 1.11 0 0 0 -1.56.07l-2.58 2.85a.42.42 0 0 1 -.41.13l-3.37-.75a.43.43 0 0 1 -.32-.28l-.25-.77a.45.45 0 0 1 .28-.55.43.43 0 0 1 .54.28l.18.54 2.88.64 2.42-2.66a2 2 0 0 1 2.77-.14 2 2 0 0 1 .13 2.8l-2.65 2.92a3.33 3.33 0 0 1 -2.46 1.08z" fill="#332d28"/><path d="m67.9 71.32a.5.5 0 0 1 -.48-.35l-1.23-4a.5.5 0 0 1 1-.3l1.23 4a.5.5 0 0 1 -.33.62.39.39 0 0 1 -.19.03z" fill="#6d6d6d"/><path d="m84.37 93.76a.5.5 0 0 1 -.5-.5v-3.85a.5.5 0 0 1 .5-.5.5.5 0 0 1 .5.5v3.85a.5.5 0 0 1 -.5.5z" fill="#6d6d6d"/><path d="m143.61 64.87h5.8v11.03h-5.8z" fill="#cbd1d7" transform="matrix(.66405672 .7476822 -.7476822 .66405672 101.84 -85.89)"/><path d="m147.93 72.5a.49.49 0 0 1 -.37-.16.5.5 0 0 1 0-.71l2.96-2.63a.49.49 0 0 1 .7 0 .5.5 0 0 1 0 .71l-2.93 2.63a.46.46 0 0 1 -.36.16z" fill="#8da4b7"/><path d="m147.87 72.8a.49.49 0 0 1 -.49-.41 4 4 0 0 0 -2.88-3.26.5.5 0 0 1 .22-1 5 5 0 0 1 3.64 4 .5.5 0 0 1 -.4.59z" fill="#8da4b7"/><path d="m144.39 76.47a.45.45 0 0 1 -.32-.14l-3.88-4.33a.44.44 0 0 1 0-.61l4.1-3.63a.42.42 0 0 1 .6 0 .43.43 0 0 1 0 .61l-3.78 3.35 3.31 3.72 7.6-6.75-3.18-3.59-2.41 2a.42.42 0 0 1 -.61 0 .43.43 0 0 1 0-.6l2.74-2.33a.43.43 0 0 1 .6 0l3.84 4.26a.44.44 0 0 1 0 .61l-8.25 7.32a.41.41 0 0 1 -.36.11z" fill="#332d28"/><path d="m153.41 69.46-4.24-.94a1.53 1.53 0 0 1 -.74-.43 1.6 1.6 0 0 1 -.5-.69l-1.34-4.14a2.9 2.9 0 0 1 .61-2.82l2.66-2.93a1.53 1.53 0 0 1 2.27 2.06l-2.59 2.85 1.07 3.28 3.36.75 2.59-2.85a1.53 1.53 0 0 1 2.27 2.06l-2.66 2.93a2.9 2.9 0 0 1 -2.76.87z" fill="#545655"/><path d="m154.08 69.91a3.36 3.36 0 0 1 -.71-.08l-4.25-.94a2 2 0 0 1 -.94-.55 1.85 1.85 0 0 1 -.61-.86l-1.34-4.14a3.35 3.35 0 0 1 .7-3.25l2.66-2.92a2 2 0 1 1 2.9 2.64l-2.41 2.66.91 2.81 2.88.64 2.42-2.66a2 2 0 0 1 2.9 2.64l-2.65 2.92a3.34 3.34 0 0 1 -2.46 1.09zm-.53-.92a2.46 2.46 0 0 0 2.35-.75l2.66-2.92a1.1 1.1 0 1 0 -1.64-1.48l-2.58 2.84a.41.41 0 0 1 -.41.13l-3.37-.74a.47.47 0 0 1 -.32-.29l-1.06-3.28a.43.43 0 0 1 .09-.42l2.59-2.85a1.1 1.1 0 0 0 -1.64-1.48l-2.65 2.92a2.47 2.47 0 0 0 -.52 2.41l1.34 4.13a1 1 0 0 0 .37.49 1.08 1.08 0 0 0 .55.35z" fill="#332d28"/><path d="m111.7 108.56h-9.74l-2-21.15h13.74z" fill="#cbd1d7"/><path d="m100.22 85.9h12.96v4.52h-12.96z" fill="#8da4b7"/><path d="m101.36 101.24a.43.43 0 0 1 -.43-.39l-.66-6.27a.43.43 0 0 1 .86-.09l.65 6.27a.43.43 0 0 1 -.38.48z" fill="#332d28"/><path d="m111.7 109h-9.7a.42.42 0 0 1 -.43-.4l-.37-5.52a.43.43 0 0 1 .4-.46.44.44 0 0 1 .46.4l.34 5.12h9l1.92-20.29h-12.8l.49 4.61a.44.44 0 0 1 -.39.48.43.43 0 0 1 -.47-.39l-.53-5.09a.44.44 0 0 1 .11-.33.42.42 0 0 1 .27-.13h13.7a.43.43 0 0 1 .32.14.44.44 0 0 1 .11.33l-2 21.15a.43.43 0 0 1 -.43.38z" fill="#332d28"/><circle cx="110.64" cy="103.09" fill="#332d28" r=".37"/><path d="m127.86 108.56h-9.74l-2-21.15h13.74z" fill="#cbd1d7"/><path d="m116.38 85.9h12.96v4.52h-12.96z" fill="#8da4b7"/><path d="m117.39 101.34a.43.43 0 0 1 -.43-.4l-.53-6.37a.43.43 0 0 1 .4-.46.42.42 0 0 1 .46.39l.53 6.37a.42.42 0 0 1 -.39.46z" fill="#332d28"/><path d="m127.86 109h-9.74a.42.42 0 0 1 -.43-.4l-.37-5.52a.43.43 0 0 1 .4-.46.44.44 0 0 1 .46.4l.34 5.12h9l1.92-20.29h-12.84l.48 4.61a.44.44 0 0 1 -.39.48.43.43 0 0 1 -.47-.39l-.53-5.09a.44.44 0 0 1 .11-.33.43.43 0 0 1 .32-.14h13.74a.43.43 0 0 1 .32.14.44.44 0 0 1 .11.33l-2 21.15a.43.43 0 0 1 -.43.39z" fill="#332d28"/><path d="m116.71 12.56a.39.39 0 0 1 -.27-.11.37.37 0 0 1 0-.53l1.18-1.12-3.62-3.8a.37.37 0 0 1 0-.53.38.38 0 0 1 .53 0l3.94 4.07a.34.34 0 0 1 .1.27.36.36 0 0 1 -.11.26l-1.46 1.39a.39.39 0 0 1 -.29.1z" fill="#332d28"/><path d="m117.21 19.59a.4.4 0 0 1 -.26-.1l-4-3.76a.4.4 0 0 1 -.12-.27.34.34 0 0 1 .12-.27l2.3-2.19a.37.37 0 0 1 .53 0 .38.38 0 0 1 0 .53l-2 1.91 3.7 3.48a.38.38 0 0 1 0 .53.36.36 0 0 1 -.27.14z" fill="#332d28"/><path d="m140.32 27.23h1.57a0 0 0 0 1 0 0v13a0 0 0 0 1 0 0h-1.57a2.24 2.24 0 0 1 -2.24-2.23v-8.54a2.24 2.24 0 0 1 2.24-2.23z" fill="#fcba59" transform="matrix(-1 0 0 -1 279.97 67.46)"/><path d="m138.39 27.23h1.61a0 0 0 0 1 0 0v13a0 0 0 0 1 0 0h-1.57a2.24 2.24 0 0 1 -2.27-2.23v-8.54a2.24 2.24 0 0 1 2.24-2.24z" fill="#f49519" transform="matrix(-1 0 0 -1 276.12 67.46)"/><path d="m139.65 40.64h-1.57a.4.4 0 0 1 -.4-.4v-13a.4.4 0 0 1 .4-.4h1.57a2.64 2.64 0 0 1 2.64 2.63v8.53a2.64 2.64 0 0 1 -2.64 2.64zm-1.17-.8h1.17a1.84 1.84 0 0 0 1.84-1.84v-8.54a1.84 1.84 0 0 0 -1.84-1.84h-1.17z" fill="#332d28"/><path d="m139.57 30.41a.4.4 0 0 1 -.4-.4v-2.43a.4.4 0 1 1 .8 0v2.42a.4.4 0 0 1 -.4.41z" fill="#332d28"/><path d="m136.86 61.96h5.79v9.6h-5.79z" fill="#cbd1d7" transform="matrix(-.90475273 .42593721 -.42593721 -.90475273 294.63 67.62)"/><path d="m137.66 68.39c1.6-3.72 4.06-4.24 4.06-4.24l-1.39-3-4.9 2.36s1.68 6.17 2.23 4.88z" fill="#8da4b7"/><path d="m139.18 72.76h-.15a.47.47 0 0 1 -.24-.22l-4.09-8.69a.43.43 0 0 1 .21-.57l5.23-2.47a.42.42 0 0 1 .33 0 .35.35 0 0 1 .24.22l4.09 8.68a.43.43 0 0 1 -.2.58l-5.24 2.46a.39.39 0 0 1 -.18.01zm-3.52-8.91 3.72 7.91 4.46-2.1-3.72-7.91z" fill="#332d28"/><circle cx="134.91" cy="57.94" fill="#6d6d6d" r="6.21"/><circle cx="133.36" cy="59" fill="#545655" r="6.21"/><path d="m134.91 64.58a6.65 6.65 0 1 1 2.77-12.68.42.42 0 0 1 .21.57.43.43 0 0 1 -.57.21 5.72 5.72 0 0 0 -2.41-.53 5.78 5.78 0 1 0 4.45 2.09.43.43 0 1 1 .66-.55 6.65 6.65 0 0 1 -5.11 10.89z" fill="#332d28"/><circle cx="142.91" cy="73.14" fill="#545655" r="4.17"/><path d="m141.61 67.71a.39.39 0 0 1 -.34-.21l-1.78-3.58a.37.37 0 0 1 .16-.5.38.38 0 0 1 .51.17l1.84 3.58a.38.38 0 0 1 -.17.5.35.35 0 0 1 -.22.04z" fill="#332d28"/><path d="m142.91 77.74a4.6 4.6 0 1 1 4.6-4.6 4.61 4.61 0 0 1 -4.6 4.6zm0-8.34a3.74 3.74 0 1 0 3.74 3.74 3.74 3.74 0 0 0 -3.74-3.74z" fill="#332d28"/><path d="m85.4 71.66h5.8v14.78h-5.8z" fill="#cbd1d7" transform="matrix(.99430079 -.10661115 .10661115 .99430079 -7.93 9.87)"/><path d="m90.62 81.36a.49.49 0 0 1 -.49-.45l-.39-3.91a.49.49 0 0 1 .45-.54.48.48 0 0 1 .54.44l.39 3.92a.5.5 0 0 1 -.44.55z" fill="#8da4b7"/><path d="m87.55 78.19a5 5 0 0 1 -2.28-.55.51.51 0 0 1 -.18-.69.49.49 0 0 1 .68-.18 4 4 0 0 0 4.32-.48.5.5 0 1 1 .6.79 5.12 5.12 0 0 1 -3.14 1.11z" fill="#8da4b7"/><path d="m87.8 61.83h5.79v9.6h-5.79z" fill="#cbd1d7" transform="matrix(.90475273 .42593721 -.42593721 .90475273 37.02 -32.29)"/><path d="m93.36 68.75a8.74 8.74 0 0 0 -4.62-4.75l1.38-2.94 5.24 2.47s-1.45 6.47-2 5.22z" fill="#8da4b7"/><path d="m91.27 72.63a.39.39 0 0 1 -.18 0l-5.24-2.47a.4.4 0 0 1 -.22-.24.47.47 0 0 1 0-.33l1.21-2.59a.43.43 0 0 1 .57-.21.44.44 0 0 1 .21.58l-1 2.14 4.45 2.1 3.73-7.91-4.46-2.1-1.87 4a.44.44 0 0 1 -.58.2.43.43 0 0 1 -.2-.57l2-4.36a.39.39 0 0 1 .25-.22.42.42 0 0 1 .33 0l5.23 2.47a.42.42 0 0 1 .21.57l-4.09 8.68a.45.45 0 0 1 -.24.23z" fill="#332d28"/><path d="m105.97 49.37h18.64v2.26h-18.64z" fill="#545655"/><path d="m105.97 51.63h18.64v2.26h-18.64z" fill="#545655"/><path d="m105.97 46.19h18.64v2.26h-18.64z" fill="#303331"/><path d="m105.97 48.45h18.64v2.26h-18.64z" fill="#303331"/><path d="m117.65 49.84h6.94v4.24h-6.94z" fill="#303331"/><path d="m90.94 27.23h1.57a0 0 0 0 1 0 0v13a0 0 0 0 1 0 0h-1.57a2.24 2.24 0 0 1 -2.24-2.23v-8.54a2.24 2.24 0 0 1 2.24-2.24z" fill="#fcba59"/><path d="m92.68 27.23h1.57a0 0 0 0 1 0 0v13a0 0 0 0 1 0 0h-1.57a2.24 2.24 0 0 1 -2.24-2.23v-8.54a2.24 2.24 0 0 1 2.24-2.24z" fill="#f49519"/><rect fill="#477481" height="30.85" rx="4.83" width="45.55" x="92.51" y="18.29"/><path d="m137.68 23.12v21.18a4.84 4.84 0 0 1 -4.83 4.84h-3.95a4.84 4.84 0 0 0 4.83-4.84v-21.18a4.84 4.84 0 0 0 -4.83-4.84h3.95a4.84 4.84 0 0 1 4.83 4.84z" fill="#295860"/><path d="m92.76 23.12v21.18a4.84 4.84 0 0 0 4.83 4.84h4a4.84 4.84 0 0 1 -4.83-4.84v-21.18a4.84 4.84 0 0 1 4.83-4.84h-4a4.84 4.84 0 0 0 -4.83 4.84z" fill="#5c8e99"/><circle cx="95.54" cy="57.8" fill="#6d6d6d" r="6.21"/><circle cx="97.09" cy="58.86" fill="#545655" r="6.21"/><path d="m86.3 87.44a.5.5 0 0 1 -.49-.44l-.59-4.78a.49.49 0 0 1 .43-.55.5.5 0 0 1 .56.43l.53 4.29 4.63-.5-1.47-13.71-4.81.52.73 6.8a.5.5 0 0 1 -.45.55.49.49 0 0 1 -.54-.44l-.83-7.3a.5.5 0 0 1 .44-.55l5.81-.62a.47.47 0 0 1 .36.11.49.49 0 0 1 .19.33l1.57 14.69a.49.49 0 0 1 -.44.55l-5.61.62z" fill="#332d28"/><path d="m95.54 64.45a6.65 6.65 0 1 1 6.64-6.65 6.65 6.65 0 0 1 -6.64 6.65zm0-12.43a5.79 5.79 0 1 0 5.78 5.78 5.8 5.8 0 0 0 -5.78-5.8z" fill="#332d28"/><path d="m132.24 87.73h-33.91a3.2 3.2 0 0 1 -3.17-2.8l-2.65-26.22a4.83 4.83 0 0 1 4.83-4.83h35.89a4.83 4.83 0 0 1 4.83 4.83l-2.65 26.22a3.2 3.2 0 0 1 -3.17 2.8z" fill="#477481"/><path d="m138.21 58.43-2.65 26.22a3.21 3.21 0 0 1 -3.18 2.8h-4.09a3.2 3.2 0 0 0 3.17-2.8l2.65-26.22a4.84 4.84 0 0 0 -4.83-4.84h4.09a4.84 4.84 0 0 1 4.84 4.84z" fill="#295860"/><path d="m92.57 58.43 2.65 26.22a3.21 3.21 0 0 0 3.18 2.8h4.09a3.2 3.2 0 0 1 -3.17-2.8l-2.65-26.22a4.84 4.84 0 0 1 4.83-4.84h-4.09a4.84 4.84 0 0 0 -4.84 4.84z" fill="#5c8e99"/><path d="m132.24 88.16h-33.91a3.64 3.64 0 0 1 -3.6-3.16l-.59-5.88a.43.43 0 0 1 .38-.47.42.42 0 0 1 .48.35l.6 5.87a2.76 2.76 0 0 0 2.74 2.41h33.91a2.76 2.76 0 0 0 2.75-2.4l2.65-26.21a4.39 4.39 0 0 0 -4.4-4.36h-35.91a4.4 4.4 0 0 0 -4.4 4.4l1.81 17.91a.42.42 0 0 1 -.38.47.43.43 0 0 1 -.47-.38l-1.82-18a5.28 5.28 0 0 1 5.26-5.3h35.89a5.27 5.27 0 0 1 5.26 5.26l-2.65 26.33a3.64 3.64 0 0 1 -3.6 3.16z" fill="#332d28"/><path d="m128.87 84.37h-27.18a2.56 2.56 0 0 1 -2.54-2.24l-2.15-21.02a3.88 3.88 0 0 1 3.87-3.88h28.77a3.88 3.88 0 0 1 3.87 3.88l-2.12 21a2.56 2.56 0 0 1 -2.52 2.26z" fill="#88e0ff"/><path d="m106.64 84.37h-4.94a2.56 2.56 0 0 1 -2.55-2.24l-2.15-21.02a3.88 3.88 0 0 1 3.87-3.88h4.94a3.88 3.88 0 0 0 -3.81 3.88l2.12 21a2.56 2.56 0 0 0 2.52 2.26z" fill="#fff" opacity=".65"/><path d="m124.28 84.37h4.94a2.56 2.56 0 0 0 2.55-2.24l2.12-21a3.88 3.88 0 0 0 -3.89-3.9h-4.94a3.88 3.88 0 0 1 3.94 3.88l-2.12 21a2.56 2.56 0 0 1 -2.6 2.26z" fill="#4cc5e5"/><rect fill="#88e0ff" height="23.76" rx="3.26" width="39.28" x="95.64" y="21.74"/><path d="m88.7 36.34a.43.43 0 0 1 -.43-.43v-3.91a.43.43 0 0 1 .43-.43.43.43 0 0 1 .43.43v3.91a.43.43 0 0 1 -.43.43z" fill="#332d28"/><path d="m92.51 40.64h-1.57a2.64 2.64 0 0 1 -2.64-2.64.4.4 0 0 1 .4-.4.39.39 0 0 1 .39.4 1.85 1.85 0 0 0 1.85 1.84h1.17v-12.22h-1.17a1.85 1.85 0 0 0 -1.85 1.84.39.39 0 0 1 -.39.4.4.4 0 0 1 -.4-.4 2.64 2.64 0 0 1 2.64-2.63h1.57a.4.4 0 0 1 .4.4v13a.4.4 0 0 1 -.4.41z" fill="#332d28"/><path d="m124.6 52.06h-18.6a.43.43 0 0 1 -.43-.43v-2.26a.43.43 0 0 1 .43-.43h18.6a.43.43 0 0 1 .43.43v2.26a.43.43 0 0 1 -.43.43zm-18.2-.86h17.77v-1.4h-17.77z" fill="#332d28"/><path d="m124.6 54.31h-18.6a.43.43 0 0 1 -.43-.43v-2.25a.43.43 0 0 1 .43-.43h4.66a.43.43 0 0 1 .43.43.44.44 0 0 1 -.43.43h-4.26v1.39h17.77v-1.39h-11.29a.44.44 0 0 1 -.43-.43.43.43 0 0 1 .43-.43h11.72a.43.43 0 0 1 .43.43v2.25a.43.43 0 0 1 -.43.43z" fill="#332d28"/><circle cx="87.54" cy="73" fill="#545655" r="4.17"/><path d="m93.59 86.51-3.78-2.16a1.52 1.52 0 0 0 -.83-.17 1.57 1.57 0 0 0 -.84.17l-3.77 2.16a2.91 2.91 0 0 0 -1.45 2.49v4a1.54 1.54 0 0 0 3.08 0v-3.88l3-1.71 3 1.71v3.88a1.54 1.54 0 0 0 3 0v-4a2.91 2.91 0 0 0 -1.41-2.49z" fill="#545655"/><path d="m109.7 45.6h-6.65l10.81-23.67h6.65z" fill="#fff" opacity=".65"/><path d="m128.74 45.6h-17.64l10.81-23.67h6.65z" fill="#fff" opacity=".65"/><path d="m128.37 82.78h-6.1a.38.38 0 0 1 -.38-.38.37.37 0 0 1 .38-.37h6.1a.37.37 0 0 1 .37.37.38.38 0 0 1 -.37.38z" fill="#332d28"/><path d="m95.85 74.69a.43.43 0 0 1 -.43-.38l-1-8.55a.43.43 0 0 1 .38-.47.42.42 0 0 1 .48.38l1 8.54a.43.43 0 0 1 -.38.47z" fill="#332d28"/><path d="m93.5 95a2 2 0 0 1 -2-2v-3.6l-2.5-1.4-2.56 1.46v3.54a2 2 0 0 1 -3.93 0v-4a3.33 3.33 0 0 1 1.66-2.87l3.78-2.16a2 2 0 0 1 1.05-.15 1.91 1.91 0 0 1 1 .23l3.77 2.16a3.32 3.32 0 0 1 1.67 2.87v4a2 2 0 0 1 -1.94 1.92zm-4.52-8a.39.39 0 0 1 .21.06l3 1.71a.42.42 0 0 1 .21.37v3.86a1.11 1.11 0 0 0 2.21 0v-4a2.45 2.45 0 0 0 -1.24-2l-3.77-2.2a1 1 0 0 0 -.6-.12 1.14 1.14 0 0 0 -.64.12l-3.78 2.2a2.44 2.44 0 0 0 -1.23 2.12v4a1.1 1.1 0 1 0 2.2 0v-3.93a.43.43 0 0 1 .22-.37l3-1.71a.46.46 0 0 1 .23-.06z" fill="#332d28"/><path d="m85.13 88.33a.42.42 0 0 1 -.37-.22.43.43 0 0 1 .16-.59l3.28-1.9a.44.44 0 0 1 .59.15.43.43 0 0 1 -.16.59l-3.28 1.91a.43.43 0 0 1 -.22.06z" fill="#332d28"/><path d="m88.84 67.63a.41.41 0 0 1 -.19 0 .44.44 0 0 1 -.2-.58l1.79-3.58a.43.43 0 0 1 .77.39l-1.79 3.57a.42.42 0 0 1 -.38.2z" fill="#332d28"/><path d="m87.54 77.61a4.61 4.61 0 1 1 4.6-4.61 4.61 4.61 0 0 1 -4.6 4.61zm0-8.34a3.74 3.74 0 1 0 3.74 3.73 3.73 3.73 0 0 0 -3.74-3.73z" fill="#332d28"/><circle cx="115.05" cy="70.17" fill="#ffe652" r="9.6"/><path d="m115.05 80.14a10 10 0 0 1 -7.3-16.77.38.38 0 1 1 .55.51 9.23 9.23 0 1 0 1.59-1.36.38.38 0 0 1 -.52-.1.37.37 0 0 1 .1-.52 10 10 0 1 1 5.58 18.24z" fill="#332d28"/><path d="m99.54 79.21a.39.39 0 0 1 -.37-.34l-.7-6.21a.36.36 0 0 1 .33-.41.37.37 0 0 1 .41.33l.71 6.21a.38.38 0 0 1 -.33.41z" fill="#fff"/><path d="m97.53 35.2a.38.38 0 0 1 -.38-.37v-7.6a.38.38 0 0 1 .38-.38.37.37 0 0 1 .37.38v7.6a.37.37 0 0 1 -.37.37z" fill="#fff"/><path d="m90.44 35.88a.38.38 0 0 1 -.38-.38v-4.5a.38.38 0 1 1 .75 0v4.5a.38.38 0 0 1 -.37.38z" fill="#fff"/><rect fill="#332d28" height="6.12" rx="1.47" width="2.94" x="109.97" y="25.25"/><circle cx="109.97" cy="27.76" fill="#fff" r="1.12"/><rect fill="#332d28" height="6.12" rx="1.47" width="2.94" x="117.46" y="25.25"/><circle cx="117.46" cy="27.76" fill="#fff" r="1.12"/><rect fill="#35626d" height="1.85" rx=".93" width="11.14" x="117.21" y="18.29"/><rect fill="#5c8e99" height="1.85" rx=".93" width="11.14" x="101.07" y="45.6"/><rect fill="#5c8e99" height="1.85" rx=".93" width="11.14" x="101.07" y="18.29"/><rect fill="#fff" height="1.85" opacity=".65" rx=".93" width="11.14" x="106.05" y="82.36"/><path d="m133.23 49.52h-35.89a5.22 5.22 0 0 1 -5.21-5.21v-21.19a5.22 5.22 0 0 1 5.21-5.21h35.89a5.22 5.22 0 0 1 5.21 5.21v21.19a5.22 5.22 0 0 1 -5.21 5.21zm-35.89-30.86a4.46 4.46 0 0 0 -4.46 4.46v21.19a4.46 4.46 0 0 0 4.46 4.46h35.89a4.46 4.46 0 0 0 4.46-4.46v-21.19a4.46 4.46 0 0 0 -4.46-4.46z" fill="#332d28"/><path d="m131.61 46h-32.61a3.69 3.69 0 0 1 -3.68-3.69v-17.22a3.69 3.69 0 0 1 3.68-3.69h2.58a.43.43 0 1 1 0 .86h-2.58a2.83 2.83 0 0 0 -2.82 2.83v17.25a2.83 2.83 0 0 0 2.82 2.83h32.65a2.83 2.83 0 0 0 2.82-2.83v-17.25a2.83 2.83 0 0 0 -2.82-2.83h-26.2a.43.43 0 1 1 0-.86h26.16a3.69 3.69 0 0 1 3.68 3.69v17.25a3.69 3.69 0 0 1 -3.68 3.66z" fill="#332d28"/><path d="m128.88 84.8h-27.19a3 3 0 0 1 -3-2.62l-1.32-13.41a.43.43 0 0 1 .85-.09l1.36 13.4a2.13 2.13 0 0 0 2.11 1.86h27.19a2.13 2.13 0 0 0 2.12-1.87l2.13-21a3.46 3.46 0 0 0 -3.45-3.41h-10.62a.43.43 0 0 1 -.43-.43.43.43 0 0 1 .43-.43h10.61a4.31 4.31 0 0 1 4.3 4.31l-2.12 21.06a3 3 0 0 1 -2.97 2.63z" fill="#332d28"/><path d="m116.94 57.66h-5.16a.43.43 0 0 1 -.43-.43.43.43 0 0 1 .43-.43h5.16a.44.44 0 0 1 .44.43.44.44 0 0 1 -.44.43z" fill="#332d28"/><path d="m97.51 66.32a.43.43 0 0 1 -.43-.39l-.48-4.78a4.32 4.32 0 0 1 4.3-4.35h8.37a.43.43 0 0 1 .43.43.43.43 0 0 1 -.43.43h-8.37a3.45 3.45 0 0 0 -3.44 3.45l.48 4.73a.44.44 0 0 1 -.39.48z" fill="#332d28"/><path d="m116.46 88.97h12.86v.5h-12.86z" fill="#332d28"/><path d="m116.86 95.95h12.48v.5h-12.48z" fill="#332d28"/><path d="m116.86 94.64h12.48v.5h-12.48z" fill="#332d28"/><path d="m116.86 97.27h11.81v.5h-11.81z" fill="#332d28"/><path d="m117.52 98.59h11.15v.5h-11.15z" fill="#332d28"/><path d="m117.52 99.91h11.12v.5h-11.12z" fill="#332d28"/><path d="m100.45 88.97h12.92v.5h-12.92z" fill="#332d28"/><path d="m101.13 96.4h11.82v.5h-11.82z" fill="#332d28"/><path d="m100.47 95.08h12.48v.5h-12.48z" fill="#332d28"/><path d="m101.13 97.72h11.15v.5h-11.15z" fill="#332d28"/><path d="m101.13 99.03h11.15v.5h-11.15z" fill="#332d28"/><path d="m101.13 100.35h11.12v.5h-11.12z" fill="#332d28"/><rect fill="#fff" height="1.57" opacity=".65" rx=".79" transform="matrix(.10661115 .99430079 -.99430079 .10661115 189.25 -15.59)" width="9.45" x="98.57" y="96.74"/><circle cx="102.18" cy="85.9" fill="#332d28" r=".37"/><path d="m142.91 75.68a2.54 2.54 0 1 1 2.54-2.54 2.54 2.54 0 0 1 -2.54 2.54zm0-4.33a1.79 1.79 0 1 0 1.79 1.79 1.79 1.79 0 0 0 -1.79-1.79z" opacity=".5"/><path d="m142.91 74a.87.87 0 1 1 .87-.87.87.87 0 0 1 -.87.87zm0-1a.13.13 0 0 0 -.13.13c0 .14.26.14.26 0a.13.13 0 0 0 -.13-.13z" opacity=".5"/><path d="m87.41 75.68a2.54 2.54 0 1 1 2.59-2.54 2.54 2.54 0 0 1 -2.59 2.54zm0-4.33a1.79 1.79 0 1 0 1.79 1.79 1.79 1.79 0 0 0 -1.79-1.79z" opacity=".5"/><path d="m87.41 74a.87.87 0 1 1 .88-.87.87.87 0 0 1 -.88.87zm0-1a.12.12 0 0 0 -.12.13c0 .14.25.14.25 0a.13.13 0 0 0 -.13-.13z" opacity=".5"/><path d="m111.25 72.59a1 1 0 0 0 .35.08.61.61 0 0 0 .37-.14.63.63 0 0 0 .17-.5v-5.9h2.08v6.37a1.53 1.53 0 0 1 -.2.8 1.44 1.44 0 0 1 -.52.52 2.31 2.31 0 0 1 -.76.29 4.24 4.24 0 0 1 -.88.09 3.84 3.84 0 0 1 -.76-.08 4.07 4.07 0 0 1 -.67-.19 6 6 0 0 1 -.55-.24l1-1.28z" fill="#332d28"/><path d="m116.37 72.2a1.58 1.58 0 0 0 .48.33 1.35 1.35 0 0 0 .52.11.7.7 0 0 0 .37-.09.32.32 0 0 0 .16-.29.27.27 0 0 0 -.09-.2 1.18 1.18 0 0 0 -.31-.2c-.16-.07-.4-.17-.73-.29l-.48-.23a2.36 2.36 0 0 1 -.53-.38 2 2 0 0 1 -.42-.56 1.73 1.73 0 0 1 -.16-.78 1.51 1.51 0 0 1 .31-1 1.85 1.85 0 0 1 .84-.6 3 3 0 0 1 1.13-.21 2.85 2.85 0 0 1 1.15.21 2.25 2.25 0 0 1 .79.51 2.13 2.13 0 0 1 .47.61l-1.38.76a1.43 1.43 0 0 0 -.3-.34 1.24 1.24 0 0 0 -.34-.18 1 1 0 0 0 -.33-.06.76.76 0 0 0 -.32.07.24.24 0 0 0 -.12.21.36.36 0 0 0 .17.3 2.68 2.68 0 0 0 .47.21l.63.22a4.24 4.24 0 0 1 .64.3 1.93 1.93 0 0 1 .48.41 1.63 1.63 0 0 1 .3.51 1.81 1.81 0 0 1 .1.63 1.75 1.75 0 0 1 -.2.87 1.86 1.86 0 0 1 -.55.63 2.61 2.61 0 0 1 -.77.37 3 3 0 0 1 -.9.13 3.29 3.29 0 0 1 -1.18-.21 3.12 3.12 0 0 1 -1-.57 2.75 2.75 0 0 1 -.6-.82l1.26-.91a2.22 2.22 0 0 0 .44.53z" fill="#332d28"/><rect fill="#545655" height="8.51" rx="4.25" width="27.67" x="101.85" y="33.92"/><path d="m129.12 38.17a4.27 4.27 0 0 1 -4.26 4.26h-3.21a4.26 4.26 0 1 0 0-8.51h3.21a4.25 4.25 0 0 1 4.26 4.25z" fill="#303331"/><path d="m101.45 38.17a4.27 4.27 0 0 0 4.26 4.26h3.21a4.26 4.26 0 1 1 0-8.51h-3.21a4.25 4.25 0 0 0 -4.26 4.25z" fill="#6d6d6d"/><path d="m124.87 42.85h-19.17a4.68 4.68 0 0 1 0-9.36h19.17a4.68 4.68 0 1 1 0 9.36zm-19.17-8.5a3.82 3.82 0 0 0 0 7.64h19.17a3.82 3.82 0 0 0 0-7.64z" fill="#332d28"/><path d="m110.13 42.86a.43.43 0 0 1 -.43-.43v-4.24a.43.43 0 0 1 .43-.43.43.43 0 0 1 .43.43v4.24a.44.44 0 0 1 -.43.43z" fill="#332d28"/><path d="m110.13 36.34a.43.43 0 0 1 -.43-.43v-1.91a.43.43 0 0 1 .43-.43.44.44 0 0 1 .43.43v2a.43.43 0 0 1 -.43.34z" fill="#332d28"/><path d="m112.71 42.86a.44.44 0 0 1 -.44-.43v-8.43a.44.44 0 0 1 .87 0v8.48a.44.44 0 0 1 -.43.38z" fill="#332d28"/><path d="m115.29 42.86a.44.44 0 0 1 -.44-.43v-1.85a.44.44 0 0 1 .87 0v1.85a.44.44 0 0 1 -.43.43z" fill="#332d28"/><path d="m115.29 39.13a.44.44 0 0 1 -.44-.43v-4.7a.44.44 0 0 1 .87 0v4.7a.44.44 0 0 1 -.43.43z" fill="#332d28"/><path d="m120.44 42.86a.44.44 0 0 1 -.43-.43v-5.29a.44.44 0 0 1 .43-.43.43.43 0 0 1 .43.43v5.29a.43.43 0 0 1 -.43.43z" fill="#332d28"/><path d="m120.44 35.6a.44.44 0 0 1 -.43-.43v-1.17a.44.44 0 0 1 .43-.43.43.43 0 0 1 .43.43v1.22a.43.43 0 0 1 -.43.38z" fill="#332d28"/><path d="m117.86 42.86a.44.44 0 0 1 -.43-.43v-8.43a.44.44 0 0 1 .43-.43.43.43 0 0 1 .43.43v8.48a.43.43 0 0 1 -.43.38z" fill="#332d28"/><path d="m123 42.86a.44.44 0 0 1 -.43-.43v-8.43a.44.44 0 0 1 .43-.43.43.43 0 0 1 .43.43v8.48a.43.43 0 0 1 -.43.38z" fill="#332d28"/><path d="m107.55 42.86a.43.43 0 0 1 -.43-.43v-8.43a.43.43 0 0 1 .43-.43.44.44 0 0 1 .45.43v8.48a.44.44 0 0 1 -.45.38z" fill="#332d28"/><path d="m104.9 38.1a.43.43 0 0 1 -.43-.43v-3.47a.43.43 0 0 1 .86 0v3.47a.43.43 0 0 1 -.43.43z" fill="#332d28"/><path d="m104.9 42.43a.43.43 0 0 1 -.43-.43v-2.26a.43.43 0 0 1 .86 0v2.26a.43.43 0 0 1 -.43.43z" fill="#332d28"/><path d="m126.3 38.1a.43.43 0 0 1 -.43-.43v-3.47a.43.43 0 1 1 .86 0v3.47a.43.43 0 0 1 -.43.43z" fill="#332d28"/><path d="m126.3 42.43a.43.43 0 0 1 -.43-.43v-2.26a.43.43 0 1 1 .86 0v2.26a.43.43 0 0 1 -.43.43z" fill="#332d28"/><circle cx="113.7" cy="6.74" fill="#f49519" r="2.57"/><path d="m112.43 8.85a.51.51 0 0 1 -.39-.18 2.8 2.8 0 0 1 0-3.69.5.5 0 0 1 .71 0 .49.49 0 0 1 0 .7 1.8 1.8 0 0 0 0 2.39.49.49 0 0 1 -.07.7.48.48 0 0 1 -.25.08z" fill="#fcba59"/><path d="m113.7 9.69a2.95 2.95 0 1 1 3-2.95 3 3 0 0 1 -3 2.95zm0-5.14a2.2 2.2 0 1 0 2.2 2.19 2.19 2.19 0 0 0 -2.2-2.19z" fill="#332d28"/><path d="m112.83 7.07a1.22 1.22 0 0 1 -.06-.26v.1a1.82 1.82 0 0 1 0-.33v.1a1.1 1.1 0 0 1 .06-.26.36.36 0 0 0 0-.29.41.41 0 0 0 -.23-.18.42.42 0 0 0 -.29 0 .5.5 0 0 0 -.17.23 1.58 1.58 0 0 0 0 1 .38.38 0 0 0 .46.26.38.38 0 0 0 .22-.17.34.34 0 0 0 0-.29z" fill="#fff"/><path d="m113.17 112.06h-14.68l1.13-4.52h12.42z" fill="#545655"/><path d="m102.2 107.54-1 4.52h-2.69l1-4.52z" fill="#6d6d6d"/><path d="m113.13 112.06h-2.69l-1-4.52h2.69z" fill="#303331"/><path d="m113.45 112.52h-15.24a.45.45 0 0 1 -.37-.18.44.44 0 0 1 -.08-.4l1.17-4.52a.47.47 0 0 1 .45-.35h5a.47.47 0 0 1 .47.47.46.46 0 0 1 -.47.46h-4.64l-.93 3.59h14l-.93-3.59h-5.19a.46.46 0 0 1 -.47-.46.47.47 0 0 1 .47-.47h5.55a.48.48 0 0 1 .45.35l1.17 4.52a.44.44 0 0 1 -.08.4.46.46 0 0 1 -.33.18z" fill="#332d28"/><path d="m112 110.64h-7.49a.25.25 0 0 1 -.25-.25.26.26 0 0 1 .25-.25h7.49a.25.25 0 0 1 .25.25.25.25 0 0 1 -.25.25z" fill="#332d28"/><path d="m102.6 110.64h-3.6a.25.25 0 0 1 -.25-.25.26.26 0 0 1 .25-.25h3.59a.25.25 0 0 1 .25.25.25.25 0 0 1 -.24.25z" fill="#332d28"/><path d="m131.1 112.06h-14.67l1.13-4.52h12.41z" fill="#545655"/><path d="m120.14 107.54-1 4.52h-2.69l1-4.52z" fill="#6d6d6d"/><path d="m131.06 112.06h-2.69l-1-4.52h2.69z" fill="#303331"/><path d="m131.39 112.52h-15.25a.43.43 0 0 1 -.36-.18.48.48 0 0 1 -.09-.4l1.18-4.52a.47.47 0 0 1 .45-.35h5a.47.47 0 0 1 .46.47.46.46 0 0 1 -.46.46h-4.63l-.93 3.59h14l-.93-3.59h-5.18a.46.46 0 0 1 -.47-.46.47.47 0 0 1 .47-.47h5.54a.47.47 0 0 1 .45.35l1.18 4.52a.48.48 0 0 1 -.09.4.43.43 0 0 1 -.34.18z" fill="#332d28"/><path d="m129.89 110.64h-7.49a.25.25 0 0 1 -.25-.25.25.25 0 0 1 .25-.25h7.49a.25.25 0 0 1 .25.25.25.25 0 0 1 -.25.25z" fill="#332d28"/><path d="m120.54 110.64h-3.54a.25.25 0 0 1 -.25-.25.25.25 0 0 1 .25-.25h3.59a.26.26 0 0 1 .25.25.25.25 0 0 1 -.3.25z" fill="#332d28"/><circle cx="122.77" cy="102.85" fill="#332d28" r=".37"/><path d="m122.77 104.63a1.79 1.79 0 1 1 1.78-1.78 1.79 1.79 0 0 1 -1.78 1.78zm0-3.07a1.29 1.29 0 1 0 1.28 1.29 1.29 1.29 0 0 0 -1.28-1.29z" fill="#332d28"/><path d="m155.39 67.72a.46.46 0 0 1 -.33-.13.48.48 0 0 1 0-.7l2.15-2.35a.5.5 0 0 1 .71 0 .5.5 0 0 1 0 .7l-2.16 2.35a.49.49 0 0 1 -.37.13z" fill="#303331"/><path d="m149.16 66.63a.51.51 0 0 1 -.48-.35l-1.23-4a.5.5 0 0 1 1-.29l1.23 4a.51.51 0 0 1 -.33.63z" fill="#6d6d6d"/><circle cx="138.69" cy="53" fill="#332d28" r=".48"/><path d="m109.28 20.64h-5.28a.5.5 0 0 1 0-1h5.31a.5.5 0 0 1 0 1z" fill="#fff"/><circle cx="103.99" cy="103.93" fill="#fff" opacity=".65" r=".96"/></svg>