<svg viewBox="0 0 1286.04 746.09" xmlns="http://www.w3.org/2000/svg" xmlns:xlink="http://www.w3.org/1999/xlink"><linearGradient id="a" gradientUnits="userSpaceOnUse" x1="1.32" x2="1254.6" y1="371.19" y2="371.19"><stop offset="0" stop-color="#c5e9fa"/><stop offset="1" stop-color="#c4f4ea"/></linearGradient><path d="m1218.18 449.46c-45.45 117.68-130.9 220.78-249.59 266.09a431.14 431.14 0 0 1 -47.21 14.95c-84.68 21.59-177.32 14.08-255.38-25.26-33.13-16.71-63.34-38.79-96.59-55.26s-71.22-27.25-107.41-19.12c-31.16 7-57.45 27.06-83.92 44.93-62.4 42.13-137.43 75.47-211.32 61-34-6.65-67.48-25.07-83.27-55.86-34.9-68.07 30.92-149 17.59-224.28-8.53-48.18-47.49-84.26-71.71-126.78-41.45-72.73-36.55-169.34 12.05-237.49s138.32-104.3 220.58-88.84c100.31 18.86 176.15 103.75 273.69 133.79 61 18.77 127.23 13.17 185.49-11.55 94.13-39.95 223.45-101.22 329.38-91.24 56.33 5.31 111.58 30.31 148.76 73 47 53.89 61.09 130.4 53.25 201.46a563.35 563.35 0 0 1 -34.39 140.46z" fill="url(#a)"/><g fill="#e7f6ff"><path d="m1248.42 542.54a26.3 26.3 0 0 1 -6.2-.75 25.94 25.94 0 1 1 6.2.75zm0-40.18a14.09 14.09 0 0 0 -3.32 27.77 14.08 14.08 0 1 0 3.32-27.77z"/><circle cx="1213.76" cy="567.4" r="11.33" transform="matrix(.235651 -.97183775 .97183775 .235651 376.29 1613.25)"/><path d="m55.19 540.07a26.09 26.09 0 1 1 1.14 0zm0-40.17h-.59a14.09 14.09 0 1 0 .61 0z"/><circle cx="36.08" cy="572.54" r="11.33" transform="matrix(.99907092 -.04309628 .04309628 .99907092 -24.62 2.08)"/><path d="m709.08 118.26a26.06 26.06 0 1 1 14.92-4.71 26.07 26.07 0 0 1 -14.92 4.71zm-.08-40.16a14.14 14.14 0 1 0 2.47.22 14.17 14.17 0 0 0 -2.47-.22z"/><circle cx="649.4" cy="107.59" r="11.33" transform="matrix(.81875141 -.57414817 .57414817 .81875141 55.91 392.32)"/></g><path d="m713.36 105.14h44.48v44.48h-44.48z" fill="none"/><path d="m713.36 105.14h44.48v44.48h-44.48z" fill="none"/><path d="m1286 252.66a41.46 41.46 0 0 0 -41.46-41.46c-.92 0-1.83 0-2.73.09.06-.9.09-1.81.09-2.73a41.46 41.46 0 1 0 -81.56 10.54 41.46 41.46 0 1 0 -32.61 74.19 41.46 41.46 0 0 0 68.84 13.94 41.46 41.46 0 0 0 62.66-15.8 41.47 41.47 0 0 0 26.77-38.77z" fill="#fff"/><path d="m191.45 153a41.46 41.46 0 0 0 -41.45-41.5c-.92 0-1.83 0-2.73.09.06-.9.09-1.81.09-2.73a41.46 41.46 0 1 0 -81.56 10.54 41.46 41.46 0 1 0 -32.61 74.19 41.46 41.46 0 0 0 68.81 13.94 41.46 41.46 0 0 0 62.66-15.8 41.47 41.47 0 0 0 26.79-38.73z" fill="#fff"/><path d="m954.18 742.93h-596.5v-13h596.5a6.5 6.5 0 1 1 0 13z" fill="#426572"/><path d="m331 742.93h-36.47a6.5 6.5 0 0 1 0-13h36.47a6.5 6.5 0 1 1 0 13z" fill="#426572"/><path d="m270.86 742.93h-11.62a6.5 6.5 0 0 1 0-13h11.62a6.5 6.5 0 0 1 0 13z" fill="#426572"/><path d="m1163.34 742.93h-183.34v-13h183.34a6.5 6.5 0 0 1 0 13z" fill="#426572"/><path d="m226 742.93h-183.35v-13h183.35a6.5 6.5 0 1 1 0 13z" fill="#426572"/><path d="m254.27 235.44h730.73a13.36 13.36 0 0 1 13.36 13.36v463.51a0 0 0 0 1 0 0h-757.45a0 0 0 0 1 0 0v-463.51a13.36 13.36 0 0 1 13.36-13.36z" fill="#ebf0f9"/><path d="m270.24 268.53h701.77v400.9h-701.77z" fill="#637f91"/><path d="m265 668.68h710a0 0 0 0 1 0 0 12 12 0 0 1 -12 12h-686a12 12 0 0 1 -12-12 0 0 0 0 1 0 0z" fill="#fff"/><g fill="#a7bcd5" opacity=".5"><path d="m479.94 267.03-104.92 404.66h-52.84l104.92-404.66z"/><path d="m614.63 267.03-104.93 404.66h-110.8l104.92-404.66z"/></g><path d="m1004.33 718.31h-769.42v-437.41a51.52 51.52 0 0 1 51.46-51.46h288.1v12h-288.1a39.51 39.51 0 0 0 -39.46 39.46v425.41h745.42v-453.94a10.94 10.94 0 0 0 -10.93-10.93h-273.94v-12h273.94a23 23 0 0 1 22.93 22.93z" fill="#426572"/><path d="m145.38 698h968.78a0 0 0 0 1 0 0v3.12a39 39 0 0 1 -39 39h-890.78a39 39 0 0 1 -39-39v-3.12a0 0 0 0 1 0 0z" fill="#ebf0f9"/><path d="m1109.21 718.33a29.34 29.34 0 0 1 -27.39 18.8h-910.11a29.34 29.34 0 0 1 -27.39-18.8z" fill="#a7bcd5" opacity=".5"/><path d="m1070.65 744.64h-890.78a45.05 45.05 0 0 1 -45-45v-9.12h980.78v9.12a45.05 45.05 0 0 1 -45 45zm-923.65-42.13a33 33 0 0 0 32.88 30.12h890.78a33 33 0 0 0 32.88-30.12z" fill="#426572"/><path d="m976.5 673.18h-713.76v-410.65h713.76zm-701.77-12h689.77v-386.65h-689.76z" fill="#426572"/><path d="m1096.11 364.81v110.57a9.06 9.06 0 0 1 -9 9h-196.34a8.88 8.88 0 0 1 -3.66-.78 9 9 0 0 1 -5.37-8.24v-110.55a9 9 0 0 1 5.78-8.42 8.84 8.84 0 0 1 3.22-.6h196.31a9.06 9.06 0 0 1 8.94 7.77 8.59 8.59 0 0 1 .12 1.25z" fill="#fff"/><path d="m1094.61 361.8v110.57a9.06 9.06 0 0 1 -9 9h-196.34a8.88 8.88 0 0 1 -3.66-.78 9 9 0 0 1 -5.37-8.24v-1.5h193.31a9.06 9.06 0 0 0 9-9v-109.07h3a9.06 9.06 0 0 1 8.94 7.77 8.59 8.59 0 0 1 .12 1.25z" fill="#d6dee9"/><path d="m1085.58 488.9h-196.31a14.82 14.82 0 0 1 -6.12-1.31 15 15 0 0 1 -8.91-13.72v-110.56a15.12 15.12 0 0 1 9.3-13.88l1-.54h.48a14.82 14.82 0 0 1 4.21-.6h196.31a15.09 15.09 0 0 1 14.88 12.93 14.52 14.52 0 0 1 .15 2.09v110.57a14.91 14.91 0 0 1 -2.79 8.71 15.06 15.06 0 0 1 -12.2 6.31zm-198.11-128a3 3 0 0 0 -1.23 2.42v110.56a3 3 0 0 0 1.81 2.76 2.93 2.93 0 0 0 1.22.26h196.31a3 3 0 0 0 2.46-1.29 3 3 0 0 0 .56-1.74v-110.56a2.6 2.6 0 0 0 0-.38 3.05 3.05 0 0 0 -3-2.65h-196.33a2.88 2.88 0 0 0 -.83.12z" fill="#426572"/><path d="m937 413.81a32.07 32.07 0 0 0 -9.6-3.81 11.88 11.88 0 0 0 5.6-10.18 11.92 11.92 0 1 0 -18.31 10.18 31.85 31.85 0 0 0 -10 3.84 5.82 5.82 0 0 0 -2.63 4.51v14.29a3 3 0 0 0 3 3h31.59a3 3 0 0 0 3-3v-14.31a5.62 5.62 0 0 0 -2.65-4.52z" fill="#426572"/><path d="m957.72 374.49h105.3v12h-105.3z" fill="#426572"/><path d="m957.72 395.55h67.69v12h-67.69z" fill="#426572"/><path d="m957.72 436.92h103.8v12h-103.8z" fill="#426572"/><path d="m630.62 739.39s160.06-80 160.06-200.07v-160.07l-160.06-40-160.06 40v160.06c0 120.05 160.06 200.08 160.06 200.08z" fill="#e8837e"/><path d="m662.35 724.65a362.33 362.33 0 0 1 -31.83 18.74s-160.06-80-160.06-200.08v-160.06l35-8.75v135.69c0 104.6 105.74 182.81 156.89 214.46z" fill="#d66765"/><path d="m627.42 746.09-2.68-1.34c-1.66-.83-41.17-20.75-81.3-55.87-23.69-20.73-42.59-42.43-56.18-64.52-17.19-27.93-25.9-56.54-25.9-85v-164.79l166.06-41.52 1.46.36 164.6 41.15v164.75c0 28.51-8.71 57.12-25.9 85-13.59 22.09-32.49 43.79-56.18 64.52-40.13 35.12-79.64 55-81.3 55.87zm-154.06-362.15v155.37c0 26.25 8.11 52.75 24.12 78.76 13 21.06 31.08 41.85 53.86 61.78a429.65 429.65 0 0 0 76.08 52.77 430.41 430.41 0 0 0 76.28-52.94c22.73-19.92 40.81-40.68 53.73-61.68 16-26 24-52.43 24-78.64v-155.42l-154.01-38.52z" fill="#426572"/><path d="m534.44 600.8 69.16 55.33 9.82 7.86c5.42 4.34 10.56 6.73 17.64 5.78a20.72 20.72 0 0 0 15.34-10l75.7-123.77 10.8-17.65c5.74-9.38 2.36-23.51-7.53-28.73-10.23-5.41-22.61-2.48-28.73 7.53l-75.7 123.76-10.8 17.65 33-4.25-69.14-55.31-9.82-7.86c-8.56-6.85-21.45-9-29.7 0-7 7.62-9.16 22.37 0 29.7z" fill="#fff"/><path d="m356 345a111.31 111.31 0 1 0 -199.1-99.42 111.33 111.33 0 0 0 89.46 163.31q-4.82 1.14-9.79 1.85a111.31 111.31 0 0 0 95.87-32.76 111.57 111.57 0 0 0 23.56-32.98z" fill="#606060" opacity=".2"/><circle cx="242.76" cy="271.6" fill="#a8ef9e" r="111.3"/><path d="m348.75 279.55a111.31 111.31 0 0 1 -127.19 110.15 111.3 111.3 0 0 0 0-220.31 111.31 111.31 0 0 1 127.2 110.16z" fill="#a7e59c"/><path d="m240.11 394.19a117.3 117.3 0 1 1 117.29-117.29 117.43 117.43 0 0 1 -117.29 117.29zm0-222.59a105.3 105.3 0 1 0 105.29 105.3 105.41 105.41 0 0 0 -105.29-105.3z" fill="#426572"/><path d="m669.8 229.97h22.5v12h-22.5z" fill="#426572"/><path d="m594.63 229.97h60.66v12h-60.66z" fill="#426572"/><path d="m283.86 337.74c-32.66 4.63-72.92-7.35-72.92-7.35l-19.85 3.95a5.89 5.89 0 0 1 -7-6 395.17 395.17 0 0 0 -1.09-42.56 5.87 5.87 0 0 1 8.24-5.93 34.17 34.17 0 0 0 14.36 3.52c12.05-.1 22.57-9.34 27.95-20.31s6.6-18.08 7.73-30.28c.49-5.33 1.27-11.24 5.32-14.66 7-5.93 18.52 1 20.79 9.95s-1.39 12.93-4.48 21.63c-2 5.68-1.56 6-3.18 11.85a3.6 3.6 0 0 0 .06 3 3.17 3.17 0 0 0 2.3 1.06c6.54.84 10.83 3.28 17.38 4a16.31 16.31 0 0 1 13.53 10.53v49.09a8.46 8.46 0 0 1 -9.1 8.51z" fill="#85d175"/></svg>