<svg viewBox="0 0 330.77 192.73" xmlns="http://www.w3.org/2000/svg"><ellipse cx="185.07" cy="184.81" fill="#3e3127" rx="145.7" ry="7.91"/><path d="m286.22 171.23h-200.48a4.76 4.76 0 0 1 -4.74-4.76v-127.6c0-2.63 2.13-7.76 4.76-7.76h200.46c2.62 0 4.75 5.13 4.75 7.76v127.6a4.76 4.76 0 0 1 -4.75 4.76z" fill="#637582"/><path d="m291 34.17v4.63c0-2.63.87-4.76-1.75-4.76h-205.52c-2.62-.04-2.73 2.13-2.73 4.76v-4.63a4.76 4.76 0 0 1 4.75-4.76h200.47a4.76 4.76 0 0 1 4.78 4.76z" fill="#9fb1bc"/><path d="m89.54 168v-127.38h192.87v127.26" fill="#caeefc"/><path d="m89.72 162.85h192.87v4.65h-192.87z" fill="#78abba"/><path d="m89.72 41.84h192.87v4.65h-192.87z" fill="#fff"/><path d="m293 168.83h-4v-133.83a2.75 2.75 0 0 0 -2.75-2.75h-200.51a2.76 2.76 0 0 0 -2.74 2.75v133h-4v-133a6.76 6.76 0 0 1 6.76-6.75h200.46a6.76 6.76 0 0 1 6.78 6.75z" fill="#3e3127"/><rect fill="#637582" height="14.84" rx="7.42" width="267.7" x="52.13" y="168.83"/><path d="m319.83 177.23a7.41 7.41 0 0 1 -7.42 7.42h-252.86a7.42 7.42 0 0 1 -7.42-7.42 7.3 7.3 0 0 1 1-3.71 7.39 7.39 0 0 0 6.42 3.71h252.86a7.42 7.42 0 0 0 5.25-2.17 7.28 7.28 0 0 0 1.17-1.54 7.3 7.3 0 0 1 1 3.71z" fill="#455760"/><path d="m312.41 186.32h-252.86a9.42 9.42 0 1 1 0-18.84h252.86a9.42 9.42 0 0 1 0 18.84zm-252.86-14.84a5.42 5.42 0 1 0 0 10.84h252.86a5.42 5.42 0 0 0 0-10.84z" fill="#3e3127"/><path d="m166.16 121.06c-9.31 1-18.68 1.77-27.91 2.83l-47.25 5.43v-7.43l42.18-4.89c10.65-1.22 21.48-2.05 32.21-3.32a46.45 46.45 0 0 0 .77 7.38z" fill="#78abba"/><path d="m253.15 129.68a46.25 46.25 0 0 1 -88.45-8.47 46.45 46.45 0 0 1 -.77-7.34c0-.41 0-.82 0-1.23 0-1.28.05-2.56.15-3.81 0 0 0-.09 0-.13a45.71 45.71 0 0 0 5.13 17.6 46.35 46.35 0 0 0 80 3.38l7.52-10.76z" fill="#78abba"/><path d="m91.04 168.69h-3v-128.89h195.88v128.76h-3v-125.76h-189.88z" fill="#3e3127"/><path d="m72 41.67a18.4 18.4 0 0 1 6.23-34.1c.38-.06.75-.11 1.13-.14a16.7 16.7 0 0 1 12.94 4.35 17.82 17.82 0 0 1 5.87 13.22v.76h-2v-.76a15.82 15.82 0 0 0 -5.17-11.74 14.74 14.74 0 0 0 -11.41-3.84c-.33 0-.67.07-1 .13a16.4 16.4 0 0 0 -5.59 30.39z" fill="#3e3127"/><path d="m104 13.58a6.79 6.79 0 1 1 6.79-6.79 6.8 6.8 0 0 1 -6.79 6.79zm0-11.58a4.79 4.79 0 1 0 4.79 4.79 4.8 4.8 0 0 0 -4.79-4.79z" fill="#3e3127"/><path d="m285.9 21.33a1 1 0 0 1 -1-1v-14.78a1 1 0 0 1 2 0v14.78a1 1 0 0 1 -1 1z" fill="#3e3127"/><path d="m316.27 43.19h-14.41a1 1 0 0 1 0-2h14.41a1 1 0 0 1 0 2z" fill="#3e3127"/><path d="m311.26 15.35a1 1 0 0 1 -.74-.32 1 1 0 0 1 .06-1.42l5.56-5.14a1 1 0 1 1 1.36 1.46l-5.56 5.15a1 1 0 0 1 -.68.27z" fill="#3e3127"/><path d="m298.23 27.41a1 1 0 0 1 -.73-.32 1 1 0 0 1 .05-1.42l7.85-7.27a1 1 0 0 1 1.42.06 1 1 0 0 1 -.06 1.41l-7.85 7.27a1 1 0 0 1 -.68.27z" fill="#3e3127"/><path d="m293.26 22.62a1 1 0 0 1 -.52-.14 1 1 0 0 1 -.33-1.38l3.4-5.58a1 1 0 0 1 1.38-.33 1 1 0 0 1 .33 1.37l-3.41 5.59a1 1 0 0 1 -.85.47z" fill="#3e3127"/><path d="m306.08 35.09h-4.22a1 1 0 0 1 0-2h4.22a1 1 0 0 1 0 2z" fill="#3e3127"/><path d="m163.91 112.7c-11.44 1.41-23 2.27-34.42 3.58l-78.44 9c-10.47 1.2-21.26 4.13-31.8 1.87s-17.25-12.15-17.25-22.68v.81c0-10.55 6.76-20.43 17.25-22.68s21.33.67 31.8 1.87l78.44 9c11.38 1.31 23 2.16 34.43 3.58" fill="#ecebeb"/><path d="m161.94 99.67v3.82c-11.45-1.41-23.05-2.27-34.43-3.58l-78.44-9c-10.47-1.2-21.26-4.13-31.8-1.91-9.72 2.12-16.27 10.75-17.13 20.4a17.33 17.33 0 0 1 -.14-1.91c.16-10.4 6.88-20.06 17.24-22.28 10.54-2.26 21.33.67 31.8 1.87l78.44 9c11.41 1.32 23.01 2.17 34.46 3.59z" fill="#fff"/><path d="m166.16 108.13v5c-11.45 1.42-23 2.28-34.43 3.58l-78.43 9c-10.47 1.29-21.3 4.17-31.81 1.91-10.34-2.22-17.07-11.88-17.24-22.27a24 24 0 0 1 .58-4.95c1.85 8.38 8 15.48 16.66 17.33 10.55 2.26 21.34 4.19 31.81 3l78.43-9c11.38-1.32 22.98-2.18 34.43-3.6z" fill="#c4c4c4"/><path d="m253.15 119.71a46.31 46.31 0 1 1 -1.2-36.6h-37v36.6z" fill="#ecebeb"/><path d="m252.75 85.28h-3a46.18 46.18 0 0 0 -84.94 22.27c0-.9-.08-1.8-.08-2.71a46.19 46.19 0 0 1 88-19.56z" fill="#fff"/><path d="m253.15 120.91a46.25 46.25 0 0 1 -89.24-17 44.16 44.16 0 0 1 .28-5 45.62 45.62 0 0 0 5 16.48 46.35 46.35 0 0 0 78.44 5.6z" fill="#c4c4c4"/><path d="m183.91 86.31h22.33v7.09h-22.33z" fill="#fff"/><path d="m183.91 98.73h22.33v7.09h-22.33z" fill="#fff"/><path d="m183.91 111.15h22.33v7.09h-22.33z" fill="#fff"/><path d="m27.65 131.31a41.88 41.88 0 0 1 -8.82-.87c-10.66-2.28-18.47-12.23-18.83-23.82v-.82c.36-11.59 8.17-21.54 18.83-23.8 8.31-1.78 16.67-.49 24.75.75 2.54.39 5.16.8 7.7 1.09l78.44 9c5.12.59 10.39 1.1 15.49 1.59 6.22.6 12.65 1.22 19 2l-.49 4c-6.25-.78-12.66-1.39-18.85-2-5.12-.49-10.41-1-15.57-1.59l-78.44-9c-2.61-.3-5.27-.71-7.85-1.1-7.72-1.19-15.71-2.43-23.3-.8-9 1.87-15.53 10.38-15.71 20.27.18 9.89 6.71 18.4 15.67 20.32 7.59 1.63 15.58.39 23.31-.8 2.57-.4 5.23-.81 7.84-1.11q39.22-4.49 78.44-9c5.16-.59 10.44-1.1 15.55-1.59 6.2-.6 12.61-1.21 18.86-2l.49 4c-6.31.78-12.74 1.4-19 2-5.09.49-10.35 1-15.47 1.59l-78.44 9c-2.53.29-5.16.69-7.69 1.08a104.51 104.51 0 0 1 -15.91 1.61z" fill="#3e3127"/><path d="m210.1 152.52a48.19 48.19 0 1 1 43.66-68.59l1.34 2.84h-38.19v32.6h39.17l-1.08 2.73a47.77 47.77 0 0 1 -44.9 30.42zm0-92.37a44.19 44.19 0 1 0 40 63.22h-37.19v-40.6h35.77a44.4 44.4 0 0 0 -38.58-22.62z" fill="#3e3127"/><path d="m207.24 95.67h-24.33v-9.1h24.33zm-22.33-2h20.33v-5.1h-20.33z" fill="#3e3127"/><path d="m207.24 108.08h-24.33v-9.08h24.33zm-22.33-2h20.33v-5.08h-20.33z" fill="#3e3127"/><path d="m207.24 120.5h-24.33v-9.09h24.33zm-22.33-2h20.33v-5.09h-20.33z" fill="#3e3127"/><circle cx="47.38" cy="120.36" fill="#c4c4c4" r="3.1"/><circle cx="202.06" cy="139.86" fill="#c4c4c4" r="4.33"/><circle cx="270.12" cy="160.84" fill="#78abba" r="4.33"/><path d="m105.32 46.34a4.33 4.33 0 0 1 -8.66 0c0-2.34 1.94-2.34 4.34-2.34s4.32 0 4.32 2.34z" fill="#fff"/><circle cx="106.84" cy="51.86" fill="#d2eef9" r="2.16"/><circle cx="96.53" cy="51.78" fill="#d2eef9" r="1.08"/><circle cx="51.09" cy="116.41" fill="#c4c4c4" r="1.2"/><circle cx="207.53" cy="134.53" fill="#c4c4c4" r="1.2"/><circle cx="273.26" cy="153.32" fill="#78abba" r="1.2"/><circle cx="197.04" cy="133.72" fill="#c4c4c4" r="1.96"/><circle cx="261.13" cy="154.22" fill="#78abba" r="3.02"/><g fill="#3e3127"><path d="m63 96.92h-.1l-10.73-1.26a1 1 0 1 1 .23-2l10.73 1.25a1 1 0 0 1 -.11 2z"/><path d="m65 100.31h-.1l-6.41-.75a1 1 0 1 1 .23-2l6.41.75a1 1 0 0 1 -.11 2z"/><path d="m295.12 176.2a.49.49 0 0 1 -.5-.49.5.5 0 0 1 .5-.51h10.8a.49.49 0 0 1 .5.49.51.51 0 0 1 -.49.51z"/><path d="m301.86 178.32a.49.49 0 0 1 -.5-.49.51.51 0 0 1 .5-.51h6.45a.5.5 0 0 1 .5.5.49.49 0 0 1 -.49.5z"/><path d="m61.81 176.2a.49.49 0 0 1 -.5-.49.5.5 0 0 1 .5-.51h10.8a.51.51 0 0 1 .5.49.52.52 0 0 1 -.5.51h-10.81z"/><path d="m68.55 178.32a.5.5 0 0 1 -.5-.49.51.51 0 0 1 .5-.51h6.45a.5.5 0 0 1 0 1h-6.46z"/><path d="m255.58 66a1 1 0 0 1 -.68-.27 1 1 0 0 1 -.05-1.41l11.27-12.19a1 1 0 1 1 1.47 1.35l-11.27 12.2a1 1 0 0 1 -.74.32z"/><path d="m267 60.63a1 1 0 0 1 -.74-1.68l6.74-7.29a1 1 0 0 1 1.5 1.34l-6.74 7.29a1 1 0 0 1 -.76.34z"/><path d="m308.08 158.91a6.79 6.79 0 1 1 6.79-6.79 6.8 6.8 0 0 1 -6.79 6.79zm0-11.58a4.79 4.79 0 1 0 4.79 4.79 4.8 4.8 0 0 0 -4.79-4.79z"/><path d="m208.61 177.25h-44.9a15.42 15.42 0 0 1 -13.57-8.09 1 1 0 1 1 1.76-.95 13.42 13.42 0 0 0 11.81 7h44.9a13.42 13.42 0 0 0 11.81-7 1 1 0 1 1 1.76.95 15.42 15.42 0 0 1 -13.57 8.09z"/></g><path d="m221.3 69.09a.75.75 0 0 1 -.21 0 43.52 43.52 0 0 0 -18.35-.1 1 1 0 0 1 -1.19-.76 1 1 0 0 1 .77-1.19 45.18 45.18 0 0 1 19.19.1 1 1 0 0 1 .77 1.18 1 1 0 0 1 -.98.77z" fill="#fff"/><path d="m189.65 74.42a1 1 0 0 1 -.79-.39 1 1 0 0 1 .17-1.4 30.52 30.52 0 0 1 6.97-3.69 1 1 0 1 1 .74 1.86 28.6 28.6 0 0 0 -6.46 3.41 1 1 0 0 1 -.63.21z" fill="#fff"/><path d="m97.74 67.33a1.5 1.5 0 0 1 -1.5-1.5v-6.34a1.5 1.5 0 1 1 3 0v6.34a1.5 1.5 0 0 1 -1.5 1.5z" fill="#fff"/><path d="m97.74 84.81a1.5 1.5 0 0 1 -1.5-1.5v-9.93a1.5 1.5 0 0 1 3 0v9.93a1.5 1.5 0 0 1 -1.5 1.5z" fill="#fff"/><path d="m93.1 94.66v.46a2.88 2.88 0 0 0 2.53 2.88l23.59 2.94a2.89 2.89 0 0 0 3.24-2.87v-1.18" fill="#fff"/></svg>